{"glyphs":{"0":{"ha":735,"x_min":69,"x_max":665,"o":"m 631 904 q 665 599 665 786 q 599 194 665 367 q 368 -17 517 -17 q 138 172 215 -17 q 69 596 69 335 q 106 849 69 721 q 217 1050 142 976 q 396 1121 292 1124 q 631 904 567 1118 m 368 17 q 491 74 438 17 q 574 221 544 131 q 618 408 603 311 q 633 599 633 504 q 396 1088 633 1082 l 394 1088 q 328 1059 363 1088 q 260 974 293 1031 q 206 816 226 918 q 185 583 185 714 q 198 374 185 471 q 231 213 211 276 q 276 103 251 149 q 325 37 301 57 q 368 17 349 17 z "},"1":{"ha":247,"x_min":69,"x_max":178,"o":"m 178 1032 q 156 50 178 961 q 142 5 156 21 q 112 -11 129 -11 q 82 5 94 -11 q 69 50 69 21 q 69 113 69 69 q 72 469 69 246 q 76 853 74 692 q 78 1031 78 1014 q 128 1122 81 1122 q 151 1115 142 1122 q 166 1101 161 1108 q 174 1078 171 1093 q 177 1056 176 1064 q 178 1032 178 1047 z "},"2":{"ha":814,"x_min":69,"x_max":744,"o":"m 744 115 q 744 113 744 114 q 744 111 744 111 q 744 108 744 110 q 743 106 744 107 q 743 104 743 106 q 735 92 740 100 q 712 67 729 85 q 675 36 694 50 q 623 12 656 22 q 554 1 590 1 q 472 10 513 1 q 410 26 432 18 q 354 49 389 33 q 210 86 267 86 q 121 72 157 86 q 94 61 107 67 q 93 60 93 60 q 92 60 92 60 q 90 60 90 60 q 89 58 90 58 q 86 58 88 58 q 85 58 86 58 q 83 58 83 58 l 82 58 q 82 60 82 60 q 80 60 81 60 q 78 61 79 60 q 76 61 76 61 q 74 64 75 63 l 74 64 l 74 65 q 72 66 72 65 q 71 67 72 67 l 71 68 l 71 68 q 70 70 71 69 q 69 72 69 71 q 69 75 69 74 l 69 76 q 83 141 69 110 q 129 208 97 172 q 185 265 161 243 q 261 329 210 288 q 321 382 300 364 q 378 435 342 400 q 436 494 415 469 q 483 558 457 519 q 523 631 510 596 q 546 709 536 665 q 556 799 556 753 q 542 913 556 861 q 494 1004 529 965 q 407 1043 460 1043 q 270 976 331 1043 q 203 821 210 910 q 203 819 203 821 q 203 803 203 811 q 203 801 203 803 q 203 800 203 801 q 201 799 203 800 q 201 797 201 797 q 200 794 201 796 q 199 793 200 793 q 199 792 199 793 q 197 792 199 792 q 192 788 194 789 l 190 788 q 188 788 189 788 q 186 786 188 786 q 171 797 175 786 q 169 800 171 799 q 169 803 169 801 l 169 804 q 169 819 169 814 q 235 1029 175 946 q 407 1121 301 1121 q 477 1113 444 1121 q 544 1084 510 1106 q 601 1028 578 1063 q 640 937 625 994 q 656 803 656 879 q 643 692 656 747 q 613 595 631 638 q 562 507 594 553 q 503 431 529 461 q 434 360 478 400 q 366 301 390 321 q 299 246 342 281 q 158 119 189 158 q 215 128 186 126 q 266 128 244 131 q 317 120 288 126 q 364 109 347 114 q 411 94 381 104 q 593 57 526 57 q 715 122 669 57 q 716 124 715 124 q 717 125 717 124 q 722 128 719 128 q 726 129 724 129 q 731 129 728 129 q 733 129 732 129 q 735 128 733 129 q 736 128 736 128 l 738 128 q 738 126 738 126 q 739 126 739 126 q 740 125 740 125 l 740 124 q 742 123 742 124 q 743 121 742 122 q 744 117 744 119 l 744 115 z "},"3":{"ha":776,"x_min":42,"x_max":707,"o":"m 658 490 q 707 310 707 413 q 593 53 707 143 q 376 -18 503 -18 q 136 82 219 -18 q 81 397 42 196 q 81 399 81 399 q 88 407 82 404 q 90 408 89 408 q 99 411 93 411 q 100 410 99 410 q 108 406 104 410 q 108 406 108 406 q 111 403 110 404 q 111 401 111 401 q 112 399 111 400 q 113 399 113 399 q 113 396 113 397 q 113 394 113 394 q 113 392 113 393 q 113 390 113 392 q 168 153 94 235 q 376 72 240 72 q 439 86 403 72 q 512 126 475 100 q 574 202 549 153 q 599 311 599 251 q 539 499 599 417 q 403 581 479 581 q 400 581 401 581 l 400 582 q 398 582 399 582 q 397 582 397 582 q 394 583 396 582 q 393 585 393 583 q 388 592 389 588 q 388 593 388 592 q 386 594 388 593 q 386 595 386 594 q 386 597 386 596 q 386 599 386 599 q 386 601 386 600 q 388 604 388 603 q 389 606 389 606 q 389 607 389 606 q 392 610 390 608 q 392 610 392 610 q 393 611 393 611 q 397 613 394 613 q 399 614 397 613 l 400 614 q 463 639 435 622 q 507 675 490 656 q 535 716 524 694 q 550 756 546 738 q 554 792 554 775 q 549 862 554 829 q 534 919 543 894 q 511 964 525 944 q 482 997 497 983 q 449 1020 467 1011 q 413 1033 431 1029 q 376 1038 394 1038 q 242 975 303 1038 q 179 821 182 913 q 179 814 179 818 q 174 802 179 807 q 163 797 169 797 q 151 802 156 797 q 146 814 146 807 q 146 821 146 819 q 225 1049 149 972 q 403 1118 292 1118 q 583 1033 515 1118 q 650 808 650 949 q 617 682 650 739 q 514 599 583 625 q 658 490 608 571 z "},"4":{"ha":743,"x_min":69,"x_max":675,"o":"m 674 1026 q 653 44 675 961 q 638 -1 651 15 q 608 -17 625 -17 q 578 -1 590 -17 q 565 44 567 15 q 565 107 565 64 q 571 760 565 328 q 419 601 511 669 q 235 533 328 533 q 124 572 163 533 q 83 653 96 601 q 69 772 69 706 q 71 924 69 838 q 74 1075 74 1019 q 100 1110 74 1096 q 164 1115 138 1132 q 181 1081 182 1104 q 176 950 179 1029 q 172 742 168 829 q 203 628 176 654 q 239 614 215 614 q 347 636 292 614 q 446 693 403 658 q 522 763 489 728 q 571 829 554 799 q 574 1025 574 1008 q 624 1117 578 1117 q 651 1108 640 1117 q 667 1084 663 1100 q 672 1057 671 1068 q 674 1026 674 1046 z "},"5":{"ha":776,"x_min":42,"x_max":707,"o":"m 658 493 q 707 311 707 415 q 593 56 707 146 q 376 -15 503 -15 q 136 85 219 -15 q 81 400 42 199 q 81 401 81 401 q 83 407 82 404 q 85 408 85 408 q 86 410 85 408 q 88 410 86 410 q 90 413 89 411 q 99 414 94 414 q 100 413 99 413 q 101 413 100 413 q 103 413 103 413 q 107 410 106 411 q 108 408 107 410 q 108 408 108 408 q 110 406 110 407 q 111 404 111 406 q 113 396 114 400 l 113 394 q 168 156 94 238 q 376 75 240 75 q 439 89 403 75 q 512 129 475 103 q 574 205 549 156 q 599 314 599 254 q 574 442 599 382 q 491 542 549 501 q 354 583 433 583 q 347 585 350 583 q 235 604 276 589 q 172 652 193 619 q 144 723 150 685 q 138 828 138 761 q 139 1021 138 939 q 139 1067 139 1054 q 188 1117 139 1115 q 625 1096 222 1118 q 651 1083 640 1096 q 661 1051 661 1069 q 651 1022 661 1033 q 625 1010 640 1010 q 596 1010 611 1010 q 437 1011 535 1010 q 268 1015 339 1013 q 188 1017 197 1017 q 172 1021 179 1018 q 171 828 171 940 q 172 760 171 785 q 180 710 174 736 q 199 669 186 683 q 233 643 211 656 q 285 625 254 631 q 363 618 317 619 q 403 617 381 617 q 658 493 581 617 z "},"6":{"ha":765,"x_min":69,"x_max":696,"o":"m 428 614 q 517 594 471 614 q 604 540 564 575 q 670 449 644 506 q 696 325 696 392 q 669 178 696 243 q 668 175 669 176 q 589 61 642 108 q 493 3 544 22 q 400 -15 442 -15 q 181 85 274 -15 q 69 422 69 204 q 92 660 69 549 q 147 842 115 771 q 222 974 179 914 q 298 1065 265 1035 q 363 1118 331 1094 q 408 1134 390 1135 q 436 1122 426 1133 q 440 1089 447 1113 q 404 1042 433 1065 q 172 481 189 853 q 428 614 278 614 m 639 190 q 663 325 663 250 q 638 440 663 389 q 576 521 614 492 q 500 565 539 550 q 428 581 461 581 q 279 535 346 581 q 171 419 213 489 l 171 417 q 183 291 171 347 q 212 199 194 235 q 255 135 229 163 q 303 94 281 108 q 351 73 325 81 q 391 63 376 65 q 418 61 406 61 q 518 76 479 61 q 581 115 557 90 q 639 190 606 139 z "},"7":{"ha":661,"x_min":69,"x_max":592,"o":"m 543 1108 q 592 1060 592 1104 q 590 1050 592 1054 q 590 1049 590 1049 q 578 999 589 1029 q 413 585 571 981 q 199 44 244 163 q 150 -3 179 -3 q 142 -1 146 -3 q 121 23 126 4 q 125 71 115 42 q 339 635 186 236 q 483 1011 450 925 q 106 1031 313 1019 q 87 1037 94 1031 q 74 1053 79 1043 q 69 1075 69 1063 q 80 1105 69 1093 q 106 1117 90 1117 q 133 1117 114 1117 q 374 1113 221 1117 q 543 1108 526 1110 z "},"8":{"ha":757,"x_min":69,"x_max":688,"o":"m 440 565 q 504 544 478 554 q 561 517 531 533 q 613 483 592 501 q 651 438 633 464 q 678 378 669 413 q 688 304 688 344 q 661 154 688 218 q 589 54 635 90 q 490 1 543 18 q 379 -17 438 -17 q 365 -17 372 -17 q 363 -17 364 -17 q 322 -12 342 -17 q 178 49 240 1 q 69 278 69 129 q 85 372 69 329 q 124 441 101 414 q 188 492 147 468 q 258 530 228 517 q 340 561 289 543 q 204 630 260 589 q 120 722 149 671 q 92 833 92 774 q 114 953 92 896 q 176 1047 136 1010 q 378 1121 253 1122 q 378 1121 378 1121 q 381 1121 379 1121 q 386 1121 382 1121 q 583 1040 507 1118 q 660 839 660 961 q 597 679 660 750 q 440 565 533 608 m 200 851 q 216 751 200 797 q 251 679 232 706 q 301 630 269 653 q 348 599 332 607 q 388 581 364 592 l 390 581 q 558 685 488 615 q 628 839 628 756 q 560 1015 628 946 q 385 1088 492 1085 q 378 1088 381 1088 q 258 1013 317 1088 q 200 851 200 939 m 379 17 q 433 20 406 17 q 503 41 461 24 q 577 87 546 58 q 632 172 608 115 q 656 304 656 228 q 647 366 656 338 q 627 415 639 394 q 593 454 615 436 q 553 484 571 472 q 503 508 535 496 q 450 527 471 521 q 392 546 429 533 q 389 544 392 544 q 385 543 386 543 q 231 434 294 506 q 167 268 167 363 q 213 106 167 172 q 324 22 258 39 q 379 17 353 17 z "},"9":{"ha":765,"x_min":69,"x_max":696,"o":"m 365 1135 q 448 1126 408 1135 q 535 1089 488 1117 q 616 1015 582 1061 q 673 888 650 969 q 696 696 696 806 q 678 532 696 611 q 634 393 660 453 q 567 275 608 333 q 494 180 526 217 q 415 103 461 143 q 347 48 369 64 q 293 10 325 32 q 235 -18 254 -18 q 218 -10 224 -18 q 251 53 203 10 q 592 636 561 322 q 347 504 490 508 q 338 504 342 504 q 248 524 294 504 q 161 578 201 543 q 95 669 121 613 q 69 793 69 726 q 178 1057 69 961 q 272 1116 221 1097 q 365 1135 324 1135 m 347 538 q 490 585 426 540 q 596 699 554 631 q 596 701 596 699 q 573 887 596 806 q 515 1013 550 968 q 441 1079 479 1057 q 365 1101 403 1101 q 363 1101 364 1101 q 301 1078 335 1100 q 238 1022 268 1057 q 187 931 207 986 q 167 811 167 875 q 185 688 167 743 q 233 601 204 632 q 292 553 263 569 q 347 538 322 538 z "},"\u0000":{"ha":0,"x_min":0,"x_max":0,"o":""},"\n":{"ha":0,"x_min":0,"x_max":0,"o":""},"\r":{"ha":0,"x_min":0,"x_max":0,"o":""}," ":{"ha":385,"x_min":0,"x_max":0,"o":""},"!":{"ha":257,"x_min":69,"x_max":189,"o":"m 188 1051 q 167 329 189 999 q 152 294 165 307 q 122 281 139 281 q 93 293 106 281 q 79 329 81 306 q 79 375 79 343 q 80 526 79 436 q 82 701 81 615 q 85 865 83 788 q 87 993 86 943 q 88 1050 88 1043 q 138 1121 92 1121 q 165 1115 154 1121 q 181 1095 176 1108 q 186 1074 185 1082 q 188 1051 188 1065 m 83 198 q 90 205 83 198 q 117 213 97 213 q 151 198 138 213 q 165 164 165 183 q 151 131 165 144 q 117 117 138 117 q 83 131 97 117 q 69 164 69 144 q 83 198 69 183 z "},"\"":{"ha":368,"x_min":69,"x_max":300,"o":"m 299 1096 q 278 951 300 1086 q 247 935 274 935 q 211 956 215 935 q 199 1090 199 1022 q 200 1097 199 1096 q 249 1121 206 1121 q 299 1096 296 1121 m 119 1121 q 168 1096 165 1121 q 164 1056 169 1092 q 153 987 158 1019 q 147 951 147 954 q 117 935 144 935 q 82 956 85 935 q 69 1090 69 1022 q 69 1097 69 1096 q 119 1121 75 1121 z "},"#":{"ha":1231,"x_min":68,"x_max":1161,"o":"m 1106 761 q 1147 750 1132 761 q 1161 725 1161 739 q 1147 696 1161 708 q 1108 683 1133 683 q 931 679 1036 681 q 890 576 897 594 q 825 413 888 571 q 986 413 926 413 q 1026 402 1013 413 q 1042 376 1040 392 q 1036 358 1042 367 q 1018 342 1031 349 q 989 335 1006 336 q 792 331 913 333 q 726 165 754 236 q 678 46 697 93 q 631 -1 660 -1 q 621 0 626 -1 q 601 24 607 6 q 606 71 596 43 q 703 331 638 161 q 400 326 557 328 q 390 301 397 318 q 350 199 364 233 q 317 118 336 164 q 288 42 299 72 q 239 -6 268 -6 q 231 -4 235 -6 q 210 20 215 1 q 214 68 204 39 q 311 325 246 154 q 154 324 182 324 l 153 324 q 69 368 71 325 q 146 415 68 414 q 344 415 160 417 q 424 622 396 550 q 443 674 429 636 q 275 671 301 671 l 272 671 q 189 715 190 672 q 265 764 188 761 q 478 764 281 764 q 572 1008 564 986 q 649 1082 608 1097 q 661 982 692 1065 q 575 763 656 965 q 632 763 601 763 q 867 761 840 761 q 964 1011 956 990 q 1040 1085 1000 1100 q 1053 985 1082 1069 q 964 761 1047 972 q 1106 761 1061 761 m 735 414 q 835 678 778 529 q 626 675 738 676 q 539 674 582 675 q 499 572 526 642 q 478 524 489 550 q 456 465 468 497 q 436 415 443 433 q 460 415 446 415 q 487 415 474 415 q 511 415 500 415 q 735 414 632 414 z "},"$":{"ha":633,"x_min":69,"x_max":564,"o":"m 507 469 q 564 331 564 408 q 530 215 564 265 q 444 140 496 165 q 333 111 393 115 l 333 15 q 328 3 333 8 q 317 -1 324 -1 q 305 3 310 -1 q 300 15 300 8 l 300 111 q 131 183 193 117 q 69 335 69 250 q 69 336 69 336 l 69 338 q 69 339 69 339 q 71 340 69 339 q 71 342 71 340 q 72 344 71 343 q 75 347 74 346 q 78 350 76 349 q 82 351 81 351 l 83 351 q 84 351 83 351 q 86 351 85 351 q 88 351 86 351 q 89 351 88 351 q 90 351 89 351 q 92 350 90 351 q 94 350 93 350 q 95 349 94 349 q 97 347 96 349 q 97 347 97 347 q 100 344 99 346 q 101 343 100 343 q 101 342 101 343 q 101 340 101 340 q 101 339 101 340 q 103 338 101 339 q 171 226 114 267 q 297 186 228 186 q 413 226 358 186 q 467 339 467 267 q 456 408 467 376 q 431 460 444 439 q 383 507 417 482 q 326 547 350 532 q 251 590 303 561 q 207 615 219 607 q 110 694 144 653 q 75 792 75 736 q 78 831 75 811 q 95 880 82 850 q 131 933 108 910 q 197 973 153 956 q 300 992 242 990 l 300 1088 q 305 1099 300 1094 q 317 1104 310 1104 q 328 1099 324 1104 q 333 1088 333 1094 l 333 992 q 437 967 392 988 q 507 917 482 947 q 544 851 532 886 q 556 779 556 815 q 556 776 556 778 l 556 775 q 556 774 556 775 q 554 772 556 774 q 554 771 554 772 q 553 769 554 769 q 551 767 551 768 q 550 766 550 767 q 549 765 550 765 q 547 763 547 764 q 544 763 546 763 l 543 763 q 542 763 543 763 q 539 763 540 763 q 538 763 539 763 q 535 763 536 763 q 532 764 533 763 q 531 765 531 764 q 529 765 531 765 q 526 769 528 767 q 525 769 525 769 q 524 774 524 771 q 332 915 483 915 q 265 908 294 915 q 216 885 236 900 q 185 847 196 869 q 175 796 175 825 q 187 740 175 765 q 227 688 199 714 q 277 647 256 663 q 342 601 299 631 q 506 472 460 525 q 507 469 507 471 z "},"%":{"ha":844,"x_min":69,"x_max":775,"o":"m 758 378 q 775 271 775 332 q 692 57 775 131 q 578 11 640 11 q 543 15 560 11 q 503 31 526 18 q 463 64 479 43 q 433 125 446 85 q 421 218 421 165 q 436 304 421 260 q 478 388 451 349 q 547 452 504 426 q 640 478 590 478 q 707 453 675 478 q 757 381 739 428 q 758 378 758 379 m 678 89 q 742 271 742 153 q 726 368 742 326 q 672 414 707 414 q 574 360 618 414 q 531 222 531 307 q 540 133 531 171 q 567 76 549 96 q 608 56 585 56 q 660 74 635 56 q 676 88 668 81 q 678 89 676 89 m 340 669 q 226 624 289 624 q 206 625 215 624 q 182 630 196 626 q 156 640 168 633 q 130 657 143 647 q 106 683 117 667 q 88 719 96 699 q 74 769 79 740 q 69 831 69 797 q 94 945 69 888 q 170 1047 118 1003 q 288 1090 222 1090 q 356 1065 324 1090 q 406 993 388 1040 l 406 993 q 406 990 406 992 q 422 883 422 944 q 340 669 422 743 m 179 835 q 199 713 179 757 q 257 668 219 668 q 307 686 282 668 q 324 700 317 693 q 325 701 325 701 q 390 883 390 765 q 375 979 390 939 q 321 1026 354 1026 q 254 1003 286 1026 q 201 936 222 981 q 179 835 179 892 m 647 999 q 482 583 640 979 q 268 44 317 167 q 221 -3 249 -3 q 211 -1 215 -3 q 190 23 196 4 q 194 71 185 42 q 326 419 238 188 q 483 829 415 651 q 558 1025 551 1007 q 636 1100 594 1115 q 647 999 678 1083 z "},"&":{"ha":843,"x_min":69,"x_max":774,"o":"m 774 657 q 762 590 774 621 q 735 537 750 558 q 688 491 719 515 q 635 453 657 467 q 574 418 614 440 q 563 113 632 239 q 561 111 563 113 q 547 88 554 99 q 328 -17 471 -17 q 141 65 213 -17 q 69 278 69 146 q 118 471 69 386 q 269 593 169 563 q 154 811 154 640 q 235 1033 154 938 q 311 1097 269 1074 q 389 1121 353 1121 q 506 1076 461 1121 q 556 953 550 1031 q 557 933 557 943 q 539 857 557 893 q 491 799 521 821 q 428 776 461 776 q 416 781 421 776 q 411 793 411 786 q 416 805 411 800 q 428 810 421 810 q 494 848 464 810 q 524 933 524 886 q 524 942 524 938 q 522 951 524 943 q 489 1036 518 1007 q 439 1057 468 1057 q 385 1041 417 1057 q 325 997 353 1025 q 250 794 250 919 q 378 608 250 640 q 378 607 378 608 q 379 607 378 607 q 380 607 379 607 q 382 606 381 607 q 385 604 383 606 l 385 604 l 386 603 q 388 601 386 603 q 389 599 389 600 q 390 596 390 597 l 390 594 q 390 593 390 594 q 390 592 390 593 q 390 589 390 590 q 390 588 390 589 q 383 578 389 582 q 381 576 382 576 q 379 576 381 576 q 378 575 378 575 q 374 575 375 575 q 276 535 322 575 q 204 428 231 496 q 178 283 178 361 q 192 172 178 219 q 224 98 206 124 q 269 57 243 72 q 315 38 296 42 q 354 35 335 35 q 460 56 418 35 q 533 129 501 78 q 544 401 594 239 q 518 386 522 389 q 354 186 360 292 q 338 171 353 171 l 336 171 q 325 176 329 171 q 321 189 321 182 q 501 414 328 311 q 546 440 519 425 q 549 442 546 440 q 554 444 553 444 q 615 480 594 468 q 664 514 635 492 q 706 554 693 536 q 730 599 719 572 q 740 657 740 626 q 745 669 740 664 q 757 674 750 674 q 769 669 764 674 q 774 657 774 664 z "},"'":{"ha":238,"x_min":69,"x_max":169,"o":"m 168 1096 q 147 951 169 1086 q 117 935 144 935 q 82 956 85 935 q 69 1090 69 1022 q 69 1097 69 1096 q 119 1121 75 1121 q 168 1096 167 1121 z "},"(":{"ha":365,"x_min":69,"x_max":296,"o":"m 296 4 q 296 2 296 3 q 296 0 296 1 q 296 -1 296 -1 q 296 -3 296 -1 q 295 -4 296 -3 q 294 -6 294 -6 q 294 -7 294 -7 q 290 -11 293 -10 q 289 -12 290 -12 l 289 -14 q 288 -15 288 -14 q 283 -17 285 -15 q 281 -17 282 -17 q 279 -17 281 -17 q 278 -17 279 -17 l 276 -17 q 275 -16 276 -17 q 274 -15 274 -15 q 272 -15 274 -15 q 271 -14 271 -15 q 133 156 186 35 q 69 522 69 303 q 88 752 69 639 q 153 969 106 865 q 269 1118 200 1074 q 272 1119 271 1119 q 274 1120 274 1119 q 275 1121 274 1121 q 277 1121 276 1121 q 279 1121 278 1121 q 281 1121 281 1121 q 283 1121 282 1121 q 285 1119 285 1121 q 286 1119 286 1119 q 288 1119 288 1119 l 289 1118 q 290 1117 290 1117 q 292 1115 292 1117 q 293 1114 293 1114 q 294 1111 293 1113 q 295 1110 294 1111 q 296 1108 296 1110 q 296 1107 296 1107 q 296 1105 296 1106 q 296 1103 296 1104 q 296 1100 296 1101 q 294 1099 296 1100 q 294 1097 294 1099 q 293 1096 294 1097 q 206 874 239 1006 q 172 522 172 743 q 186 326 172 419 q 221 170 200 233 q 260 68 242 107 q 293 10 278 29 q 293 8 293 10 q 294 7 294 8 l 294 6 q 296 4 294 6 z "},")":{"ha":365,"x_min":69,"x_max":296,"o":"m 96 1118 q 213 969 165 1074 q 278 752 260 865 q 296 522 296 639 q 232 156 296 303 q 94 -14 179 35 q 93 -15 94 -15 q 92 -15 92 -15 q 90 -16 92 -15 q 89 -17 89 -17 l 88 -17 q 86 -17 86 -17 q 84 -17 85 -17 q 82 -17 83 -17 q 78 -15 81 -15 q 76 -14 78 -14 l 76 -12 q 75 -11 75 -12 q 71 -7 72 -10 q 71 -6 71 -7 q 70 -4 71 -6 q 69 -3 69 -3 l 69 -1 q 69 0 69 -1 q 69 2 69 1 q 70 4 69 3 q 71 6 71 6 l 71 7 q 72 8 71 8 q 72 10 72 10 l 74 10 q 152 195 111 58 q 193 522 193 332 q 160 874 193 743 q 72 1096 126 1006 q 71 1097 71 1097 q 71 1099 71 1099 q 69 1100 71 1100 q 69 1103 69 1101 q 69 1105 69 1104 q 69 1107 69 1106 q 69 1108 69 1107 q 70 1110 69 1110 q 71 1111 71 1110 q 72 1114 72 1113 q 74 1115 72 1114 q 75 1117 74 1117 q 76 1118 75 1117 l 78 1119 q 79 1119 78 1119 q 82 1121 81 1121 q 86 1121 83 1121 q 88 1121 88 1121 q 90 1121 89 1121 q 92 1120 92 1121 q 93 1119 92 1119 q 96 1118 94 1119 z "},"*":{"ha":467,"x_min":63,"x_max":404,"o":"m 393 1001 q 381 960 404 969 q 282 936 374 958 q 340 860 336 869 q 326 819 353 838 q 303 810 314 810 q 283 821 292 810 q 233 903 279 826 q 183 821 188 825 q 164 810 175 810 q 139 819 153 810 q 126 860 114 838 q 185 936 131 869 q 86 960 92 958 q 72 1001 63 969 q 107 1026 82 1031 q 204 990 119 1025 q 201 1089 200 1078 q 236 1114 204 1114 q 271 1089 269 1114 q 263 992 271 1082 q 301 1006 285 1000 q 358 1026 353 1025 q 393 1001 383 1031 m 104 990 q 133 982 113 988 q 104 993 113 990 q 104 991 104 992 q 104 990 104 990 m 160 846 q 176 872 164 851 q 157 847 165 858 q 158 847 158 847 q 160 846 158 847 m 235 1051 q 238 1082 238 1075 q 235 1082 236 1082 q 235 1051 235 1071 m 308 847 q 290 872 301 858 q 307 846 301 853 q 308 847 307 846 q 308 847 308 847 m 333 982 q 363 990 354 988 q 363 991 363 990 q 361 993 363 992 q 333 982 351 989 z "},"+":{"ha":581,"x_min":69,"x_max":511,"o":"m 479 585 q 495 578 488 585 q 507 563 503 572 q 511 540 511 553 q 502 510 511 522 q 478 499 493 499 q 454 499 464 499 q 333 500 407 499 q 324 342 328 417 q 310 319 322 328 q 279 310 297 310 l 278 310 q 248 319 260 310 q 236 342 236 328 q 236 367 236 354 q 239 503 236 417 q 113 507 124 506 q 69 556 69 511 q 113 606 69 604 q 240 600 121 607 q 244 708 244 697 q 294 751 249 751 q 344 708 343 751 q 339 594 344 700 q 479 585 414 589 z "},",":{"ha":235,"x_min":63,"x_max":165,"o":"m 165 165 l 165 164 q 163 149 165 156 q 96 50 150 101 q 85 46 92 46 q 74 50 79 46 q 74 72 63 61 q 113 117 97 94 q 90 124 100 118 q 75 141 81 131 q 69 164 69 151 q 83 198 69 183 q 117 213 97 213 q 150 199 136 213 q 165 165 164 185 z "},"-":{"ha":581,"x_min":69,"x_max":511,"o":"m 479 582 q 495 576 488 582 q 507 560 503 569 q 511 538 511 550 q 502 508 511 519 q 478 496 493 496 q 454 496 467 496 q 377 497 422 496 q 289 499 332 497 q 207 501 246 500 q 142 503 168 501 q 113 504 117 504 q 69 553 69 508 q 113 603 69 601 q 113 603 113 603 q 114 604 113 604 q 479 582 153 604 z "},".":{"ha":235,"x_min":69,"x_max":165,"o":"m 83 198 q 90 205 83 198 q 117 213 97 213 q 151 198 138 213 q 165 164 165 183 q 151 131 165 144 q 117 117 138 117 q 83 131 97 117 q 69 164 69 144 q 83 198 69 183 z "},"/":{"ha":611,"x_min":67,"x_max":560,"o":"m 517 1096 q 529 996 560 1081 q 364 581 522 976 q 149 40 190 146 q 101 -7 131 -7 q 92 -6 96 -7 q 72 19 76 0 q 75 67 67 38 q 208 415 119 183 q 364 825 296 647 q 440 1021 432 1003 q 517 1096 476 1111 z "},":":{"ha":235,"x_min":69,"x_max":165,"o":"m 151 684 q 144 677 151 684 q 117 669 138 669 q 83 684 97 669 q 69 718 69 699 q 83 751 69 738 q 117 765 97 765 q 151 751 138 765 q 165 718 165 738 q 151 684 165 699 m 83 407 q 90 414 83 407 q 117 421 97 421 q 151 407 138 421 q 165 373 165 393 q 151 339 165 353 q 117 325 138 325 q 83 339 97 325 q 69 373 69 353 q 83 407 69 393 z "},";":{"ha":235,"x_min":63,"x_max":165,"o":"m 165 375 l 165 374 l 165 374 q 163 358 165 365 q 96 258 150 310 q 85 254 92 254 q 74 260 79 254 q 74 281 63 271 q 113 325 97 303 q 82 341 94 328 q 69 374 69 354 q 83 407 69 393 q 117 421 97 421 q 141 415 131 421 q 158 398 151 408 q 165 375 165 388 m 151 684 q 144 677 151 684 q 117 669 138 669 q 83 684 97 669 q 69 718 69 699 q 83 751 69 738 q 117 765 97 765 q 151 751 138 765 q 165 718 165 738 q 151 684 165 699 z "},"<":{"ha":607,"x_min":69,"x_max":538,"o":"m 536 378 q 538 375 538 376 q 538 374 538 374 l 538 372 q 538 372 538 372 q 536 369 538 371 q 536 368 536 369 q 536 365 536 367 q 531 360 533 363 q 529 358 529 358 q 526 358 528 358 q 525 357 525 357 q 523 357 524 357 q 521 357 522 357 q 518 357 519 357 q 517 357 518 357 q 278 432 443 371 q 78 514 113 493 q 69 527 69 518 q 76 542 69 536 q 253 628 103 561 q 499 733 403 696 q 500 733 499 733 q 501 735 500 735 q 504 735 503 735 q 506 735 506 735 l 507 735 q 508 733 508 733 l 510 733 q 510 733 510 733 q 511 732 511 733 q 517 728 515 731 q 517 727 517 728 q 519 726 518 726 q 519 724 519 725 l 519 724 l 519 722 q 521 721 521 721 l 521 719 q 521 718 521 719 q 521 716 521 717 q 519 714 521 715 q 519 713 519 714 l 519 711 q 519 710 519 711 q 517 708 518 710 q 516 706 517 707 q 515 705 515 706 q 513 704 514 704 l 513 704 q 253 531 368 611 q 410 449 285 513 q 528 388 508 399 q 531 386 529 388 q 532 385 532 386 q 535 382 533 383 q 536 379 535 381 q 536 378 536 378 z "},"=":{"ha":581,"x_min":69,"x_max":511,"o":"m 479 467 q 502 453 493 465 q 511 422 511 440 q 507 400 511 410 q 495 385 503 390 q 478 379 488 381 q 454 379 467 379 q 321 381 403 379 q 179 385 239 383 q 113 389 119 388 q 69 438 69 392 q 113 488 69 486 q 479 467 136 489 m 113 638 q 69 688 69 642 q 113 738 69 736 l 114 738 q 479 717 157 738 q 502 703 493 715 q 511 671 511 690 q 507 650 511 660 q 495 635 503 640 q 478 629 488 629 q 454 629 464 629 q 321 631 403 629 q 179 635 239 633 q 113 638 119 638 z "},">":{"ha":607,"x_min":69,"x_max":538,"o":"m 531 542 q 537 527 538 536 q 529 514 536 518 q 328 432 493 493 q 89 357 163 371 q 88 357 89 357 q 86 357 86 357 q 83 357 85 357 q 79 358 82 357 q 78 358 79 358 q 76 360 78 358 q 71 365 72 363 q 69 368 71 367 q 69 369 69 368 q 69 372 69 371 q 69 373 69 372 q 69 375 69 374 q 71 379 69 376 q 72 382 71 381 q 72 383 72 382 q 79 388 75 386 q 197 449 103 401 q 353 531 319 513 q 94 704 239 611 q 93 704 94 704 q 92 705 93 704 q 90 706 90 706 q 89 708 90 707 q 89 710 89 710 l 88 710 q 88 712 88 711 q 87 713 88 713 q 86 714 86 713 q 86 718 86 715 q 86 720 86 719 q 86 722 86 721 q 88 724 86 724 q 88 725 88 724 l 88 725 q 89 726 88 725 l 89 728 q 90 728 89 728 q 91 730 90 729 q 93 731 92 731 q 95 733 94 732 q 96 733 96 733 q 97 733 96 733 q 99 733 97 733 q 103 735 100 735 q 104 735 104 735 l 106 735 q 107 733 106 735 q 108 733 108 733 q 353 628 204 696 q 531 542 503 561 z "},"?":{"ha":536,"x_min":69,"x_max":467,"o":"m 212 198 q 219 205 212 198 q 246 213 226 213 q 279 198 265 213 q 293 164 293 183 q 290 145 293 154 q 280 130 286 136 q 265 120 274 124 q 246 117 256 117 q 212 131 226 117 q 197 164 197 144 q 212 198 197 183 m 281 1121 q 349 1110 317 1121 q 408 1078 381 1100 q 451 1016 435 1056 q 467 924 467 976 q 453 836 467 882 q 424 762 439 790 q 381 682 410 733 q 338 601 353 631 q 302 519 322 571 q 272 413 282 468 q 263 297 263 358 q 258 285 263 290 q 246 281 253 281 q 234 285 239 281 q 229 297 229 290 q 244 511 229 415 q 274 648 260 607 q 313 749 288 689 q 335 802 328 783 q 348 851 342 821 q 354 914 354 882 q 344 978 354 950 q 319 1022 335 1007 q 285 1045 303 1038 q 253 1053 268 1053 q 128 994 167 1053 q 103 894 103 950 q 98 883 103 888 q 86 878 93 878 q 74 883 79 878 q 69 894 69 888 q 94 1003 69 954 l 94 1004 q 97 1007 96 1006 l 99 1011 q 178 1092 128 1063 q 281 1121 228 1121 z "},"@":{"ha":826,"x_min":69,"x_max":757,"o":"m 444 893 q 585 872 525 893 q 676 823 644 851 q 728 755 708 794 q 752 686 747 715 q 757 628 757 657 q 735 486 757 557 q 672 367 713 415 q 588 319 632 319 q 507 361 538 319 q 469 490 476 404 q 443 433 457 458 q 300 319 382 319 q 216 360 251 319 q 181 485 181 400 q 256 692 181 597 q 410 786 332 786 q 493 760 464 786 q 499 756 496 758 q 500 756 499 756 q 526 782 506 775 q 565 783 546 789 q 587 771 578 779 q 600 750 596 763 q 599 721 604 738 q 575 605 585 667 q 568 481 565 543 q 592 393 571 418 q 629 376 606 375 q 641 385 633 378 q 660 409 649 393 q 682 446 672 425 q 683 447 682 447 q 724 628 724 533 q 718 686 724 658 q 694 747 713 714 q 648 803 676 779 q 567 844 619 828 q 444 860 514 860 q 264 810 344 860 q 143 685 183 760 q 103 529 103 610 q 169 339 103 400 q 425 278 247 265 q 437 273 432 278 q 442 262 442 268 q 438 250 443 256 q 426 244 433 244 q 376 243 401 243 q 147 315 224 243 q 69 529 69 386 q 86 634 69 582 q 135 733 103 686 q 213 815 168 779 q 317 872 257 851 q 444 893 378 893 m 471 592 q 488 714 475 656 q 482 724 485 721 q 472 735 478 731 q 443 736 461 740 q 373 691 408 726 q 311 596 338 656 q 285 474 285 536 q 299 398 285 425 q 329 371 314 371 q 374 394 350 371 q 414 449 397 417 q 415 450 414 450 q 468 582 439 494 q 469 587 468 583 q 471 592 469 590 z "},"A":{"ha":1150,"x_min":69,"x_max":1204,"o":"m 1167 403 q 1190 408 1175 417 q 1196 386 1204 400 q 1132 215 1171 342 q 1113 156 1119 176 q 1095 104 1107 136 q 1073 55 1083 72 q 1049 19 1063 38 q 1019 -7 1035 1 q 985 -15 1003 -15 l 985 -15 l 982 -15 q 848 39 894 -15 q 789 211 801 93 q 775 436 783 254 q 771 528 771 522 q 569 508 661 522 q 541 374 556 433 q 507 253 526 315 q 464 144 488 190 q 412 60 440 99 q 347 3 383 22 q 268 -15 310 -15 q 198 -4 232 -15 q 135 31 164 7 q 88 96 106 54 q 69 193 69 138 q 454 521 69 435 q 542 538 497 531 q 568 682 551 588 q 638 1006 610 925 q 638 1007 638 1006 q 638 1008 638 1007 q 639 1008 639 1008 q 736 1121 678 1121 q 781 1103 761 1121 q 813 1044 800 1086 q 835 963 826 1001 q 849 848 843 924 q 858 725 856 772 q 865 582 861 678 q 867 565 865 576 q 967 567 907 567 q 978 562 974 567 q 983 550 983 557 q 978 538 983 543 q 967 533 974 533 q 868 532 908 533 q 874 409 871 460 q 883 293 878 358 q 897 183 889 228 q 917 99 906 139 q 946 38 929 58 q 985 18 963 18 q 1009 26 997 18 q 1031 50 1021 33 q 1050 83 1042 67 q 1069 127 1058 99 q 1085 174 1079 156 q 1100 225 1090 192 q 1167 403 1140 356 m 268 17 q 347 44 310 17 q 411 116 385 72 q 462 226 438 160 q 502 357 486 293 q 535 503 518 421 q 461 489 496 497 q 103 193 103 408 q 151 60 103 103 q 268 17 200 17 m 576 543 q 768 561 665 556 q 750 835 760 731 q 707 1054 731 1033 q 669 994 692 1053 l 668 994 q 600 676 642 915 q 576 543 585 586 z "},"À":{"ha":1150,"x_min":69,"x_max":1204,"o":"m 1167 403 q 1190 408 1175 417 q 1196 386 1204 400 q 1132 215 1171 342 q 1113 156 1119 176 q 1095 104 1107 136 q 1073 55 1083 72 q 1049 19 1063 38 q 1019 -7 1035 1 q 985 -15 1003 -15 l 985 -15 l 982 -15 q 848 39 894 -15 q 789 211 801 93 q 775 436 783 254 q 771 528 771 522 q 569 508 661 522 q 541 374 556 433 q 507 253 526 315 q 464 144 488 190 q 412 60 440 99 q 347 3 383 22 q 268 -15 310 -15 q 198 -4 232 -15 q 135 31 164 7 q 88 96 106 54 q 69 193 69 138 q 454 521 69 435 q 542 538 497 531 q 568 682 551 588 q 638 1006 610 925 q 638 1007 638 1006 q 638 1008 638 1007 q 639 1008 639 1008 q 736 1121 678 1121 q 781 1103 761 1121 q 813 1044 800 1086 q 835 963 826 1001 q 849 848 843 924 q 858 725 856 772 q 865 582 861 678 q 867 565 865 576 q 967 567 907 567 q 978 562 974 567 q 983 550 983 557 q 978 538 983 543 q 967 533 974 533 q 868 532 908 533 q 874 409 871 460 q 883 293 878 358 q 897 183 889 228 q 917 99 906 139 q 946 38 929 58 q 985 18 963 18 q 1009 26 997 18 q 1031 50 1021 33 q 1050 83 1042 67 q 1069 127 1058 99 q 1085 174 1079 156 q 1100 225 1090 192 q 1167 403 1140 356 m 268 17 q 347 44 310 17 q 411 116 385 72 q 462 226 438 160 q 502 357 486 293 q 535 503 518 421 q 461 489 496 497 q 103 193 103 408 q 151 60 103 103 q 268 17 200 17 m 576 543 q 768 561 665 556 q 750 835 760 731 q 707 1054 731 1033 q 669 994 692 1053 l 668 994 q 600 676 642 915 q 576 543 585 586 z "},"Á":{"ha":1150,"x_min":69,"x_max":1204,"o":"m 1167 403 q 1190 408 1175 417 q 1196 386 1204 400 q 1132 215 1171 342 q 1113 156 1119 176 q 1095 104 1107 136 q 1073 55 1083 72 q 1049 19 1063 38 q 1019 -7 1035 1 q 985 -15 1003 -15 l 985 -15 l 982 -15 q 848 39 894 -15 q 789 211 801 93 q 775 436 783 254 q 771 528 771 522 q 569 508 661 522 q 541 374 556 433 q 507 253 526 315 q 464 144 488 190 q 412 60 440 99 q 347 3 383 22 q 268 -15 310 -15 q 198 -4 232 -15 q 135 31 164 7 q 88 96 106 54 q 69 193 69 138 q 454 521 69 435 q 542 538 497 531 q 568 682 551 588 q 638 1006 610 925 q 638 1007 638 1006 q 638 1008 638 1007 q 639 1008 639 1008 q 736 1121 678 1121 q 781 1103 761 1121 q 813 1044 800 1086 q 835 963 826 1001 q 849 848 843 924 q 858 725 856 772 q 865 582 861 678 q 867 565 865 576 q 967 567 907 567 q 978 562 974 567 q 983 550 983 557 q 978 538 983 543 q 967 533 974 533 q 868 532 908 533 q 874 409 871 460 q 883 293 878 358 q 897 183 889 228 q 917 99 906 139 q 946 38 929 58 q 985 18 963 18 q 1009 26 997 18 q 1031 50 1021 33 q 1050 83 1042 67 q 1069 127 1058 99 q 1085 174 1079 156 q 1100 225 1090 192 q 1167 403 1140 356 m 268 17 q 347 44 310 17 q 411 116 385 72 q 462 226 438 160 q 502 357 486 293 q 535 503 518 421 q 461 489 496 497 q 103 193 103 408 q 151 60 103 103 q 268 17 200 17 m 576 543 q 768 561 665 556 q 750 835 760 731 q 707 1054 731 1033 q 669 994 692 1053 l 668 994 q 600 676 642 915 q 576 543 585 586 z "},"Â":{"ha":1150,"x_min":69,"x_max":1204,"o":"m 1167 403 q 1190 408 1175 417 q 1196 386 1204 400 q 1132 215 1171 342 q 1113 156 1119 176 q 1095 104 1107 136 q 1073 55 1083 72 q 1049 19 1063 38 q 1019 -7 1035 1 q 985 -15 1003 -15 l 985 -15 l 982 -15 q 848 39 894 -15 q 789 211 801 93 q 775 436 783 254 q 771 528 771 522 q 569 508 661 522 q 541 374 556 433 q 507 253 526 315 q 464 144 488 190 q 412 60 440 99 q 347 3 383 22 q 268 -15 310 -15 q 198 -4 232 -15 q 135 31 164 7 q 88 96 106 54 q 69 193 69 138 q 454 521 69 435 q 542 538 497 531 q 568 682 551 588 q 638 1006 610 925 q 638 1007 638 1006 q 638 1008 638 1007 q 639 1008 639 1008 q 736 1121 678 1121 q 781 1103 761 1121 q 813 1044 800 1086 q 835 963 826 1001 q 849 848 843 924 q 858 725 856 772 q 865 582 861 678 q 867 565 865 576 q 967 567 907 567 q 978 562 974 567 q 983 550 983 557 q 978 538 983 543 q 967 533 974 533 q 868 532 908 533 q 874 409 871 460 q 883 293 878 358 q 897 183 889 228 q 917 99 906 139 q 946 38 929 58 q 985 18 963 18 q 1009 26 997 18 q 1031 50 1021 33 q 1050 83 1042 67 q 1069 127 1058 99 q 1085 174 1079 156 q 1100 225 1090 192 q 1167 403 1140 356 m 268 17 q 347 44 310 17 q 411 116 385 72 q 462 226 438 160 q 502 357 486 293 q 535 503 518 421 q 461 489 496 497 q 103 193 103 408 q 151 60 103 103 q 268 17 200 17 m 576 543 q 768 561 665 556 q 750 835 760 731 q 707 1054 731 1033 q 669 994 692 1053 l 668 994 q 600 676 642 915 q 576 543 585 586 z "},"Ã":{"ha":1150,"x_min":69,"x_max":1204,"o":"m 1167 403 q 1190 408 1175 417 q 1196 386 1204 400 q 1132 215 1171 342 q 1113 156 1119 176 q 1095 104 1107 136 q 1073 55 1083 72 q 1049 19 1063 38 q 1019 -7 1035 1 q 985 -15 1003 -15 l 985 -15 l 982 -15 q 848 39 894 -15 q 789 211 801 93 q 775 436 783 254 q 771 528 771 522 q 569 508 661 522 q 541 374 556 433 q 507 253 526 315 q 464 144 488 190 q 412 60 440 99 q 347 3 383 22 q 268 -15 310 -15 q 198 -4 232 -15 q 135 31 164 7 q 88 96 106 54 q 69 193 69 138 q 454 521 69 435 q 542 538 497 531 q 568 682 551 588 q 638 1006 610 925 q 638 1007 638 1006 q 638 1008 638 1007 q 639 1008 639 1008 q 736 1121 678 1121 q 781 1103 761 1121 q 813 1044 800 1086 q 835 963 826 1001 q 849 848 843 924 q 858 725 856 772 q 865 582 861 678 q 867 565 865 576 q 967 567 907 567 q 978 562 974 567 q 983 550 983 557 q 978 538 983 543 q 967 533 974 533 q 868 532 908 533 q 874 409 871 460 q 883 293 878 358 q 897 183 889 228 q 917 99 906 139 q 946 38 929 58 q 985 18 963 18 q 1009 26 997 18 q 1031 50 1021 33 q 1050 83 1042 67 q 1069 127 1058 99 q 1085 174 1079 156 q 1100 225 1090 192 q 1167 403 1140 356 m 268 17 q 347 44 310 17 q 411 116 385 72 q 462 226 438 160 q 502 357 486 293 q 535 503 518 421 q 461 489 496 497 q 103 193 103 408 q 151 60 103 103 q 268 17 200 17 m 576 543 q 768 561 665 556 q 750 835 760 731 q 707 1054 731 1033 q 669 994 692 1053 l 668 994 q 600 676 642 915 q 576 543 585 586 z "},"Ä":{"ha":1150,"x_min":69,"x_max":1204,"o":"m 1167 403 q 1190 408 1175 417 q 1196 386 1204 400 q 1132 215 1171 342 q 1113 156 1119 176 q 1095 104 1107 136 q 1073 55 1083 72 q 1049 19 1063 38 q 1019 -7 1035 1 q 985 -15 1003 -15 l 985 -15 l 982 -15 q 848 39 894 -15 q 789 211 801 93 q 775 436 783 254 q 771 528 771 522 q 569 508 661 522 q 541 374 556 433 q 507 253 526 315 q 464 144 488 190 q 412 60 440 99 q 347 3 383 22 q 268 -15 310 -15 q 198 -4 232 -15 q 135 31 164 7 q 88 96 106 54 q 69 193 69 138 q 454 521 69 435 q 542 538 497 531 q 568 682 551 588 q 638 1006 610 925 q 638 1007 638 1006 q 638 1008 638 1007 q 639 1008 639 1008 q 736 1121 678 1121 q 781 1103 761 1121 q 813 1044 800 1086 q 835 963 826 1001 q 849 848 843 924 q 858 725 856 772 q 865 582 861 678 q 867 565 865 576 q 967 567 907 567 q 978 562 974 567 q 983 550 983 557 q 978 538 983 543 q 967 533 974 533 q 868 532 908 533 q 874 409 871 460 q 883 293 878 358 q 897 183 889 228 q 917 99 906 139 q 946 38 929 58 q 985 18 963 18 q 1009 26 997 18 q 1031 50 1021 33 q 1050 83 1042 67 q 1069 127 1058 99 q 1085 174 1079 156 q 1100 225 1090 192 q 1167 403 1140 356 m 268 17 q 347 44 310 17 q 411 116 385 72 q 462 226 438 160 q 502 357 486 293 q 535 503 518 421 q 461 489 496 497 q 103 193 103 408 q 151 60 103 103 q 268 17 200 17 m 576 543 q 768 561 665 556 q 750 835 760 731 q 707 1054 731 1033 q 669 994 692 1053 l 668 994 q 600 676 642 915 q 576 543 585 586 z "},"Å":{"ha":1150,"x_min":69,"x_max":1204,"o":"m 1167 403 q 1190 408 1175 417 q 1196 386 1204 400 q 1132 215 1171 342 q 1113 156 1119 176 q 1095 104 1107 136 q 1073 55 1083 72 q 1049 19 1063 38 q 1019 -7 1035 1 q 985 -15 1003 -15 l 985 -15 l 982 -15 q 848 39 894 -15 q 789 211 801 93 q 775 436 783 254 q 771 528 771 522 q 569 508 661 522 q 541 374 556 433 q 507 253 526 315 q 464 144 488 190 q 412 60 440 99 q 347 3 383 22 q 268 -15 310 -15 q 198 -4 232 -15 q 135 31 164 7 q 88 96 106 54 q 69 193 69 138 q 454 521 69 435 q 542 538 497 531 q 568 682 551 588 q 638 1006 610 925 q 638 1007 638 1006 q 638 1008 638 1007 q 639 1008 639 1008 q 736 1121 678 1121 q 781 1103 761 1121 q 813 1044 800 1086 q 835 963 826 1001 q 849 848 843 924 q 858 725 856 772 q 865 582 861 678 q 867 565 865 576 q 967 567 907 567 q 978 562 974 567 q 983 550 983 557 q 978 538 983 543 q 967 533 974 533 q 868 532 908 533 q 874 409 871 460 q 883 293 878 358 q 897 183 889 228 q 917 99 906 139 q 946 38 929 58 q 985 18 963 18 q 1009 26 997 18 q 1031 50 1021 33 q 1050 83 1042 67 q 1069 127 1058 99 q 1085 174 1079 156 q 1100 225 1090 192 q 1167 403 1140 356 m 268 17 q 347 44 310 17 q 411 116 385 72 q 462 226 438 160 q 502 357 486 293 q 535 503 518 421 q 461 489 496 497 q 103 193 103 408 q 151 60 103 103 q 268 17 200 17 m 576 543 q 768 561 665 556 q 750 835 760 731 q 707 1054 731 1033 q 669 994 692 1053 l 668 994 q 600 676 642 915 q 576 543 585 586 z "},"B":{"ha":1019,"x_min":68,"x_max":1064,"o":"m 1039 410 q 1059 399 1054 415 q 1049 378 1064 383 q 846 313 922 340 q 849 285 847 299 q 826 161 850 224 q 758 53 803 99 q 618 -15 694 -15 l 617 -15 q 533 6 565 -15 q 518 19 525 13 q 496 75 494 43 q 563 203 497 147 q 750 311 629 260 q 721 387 744 350 q 669 448 697 424 q 606 493 642 472 q 553 522 571 514 q 522 533 535 529 l 521 535 q 519 535 521 535 q 518 536 519 535 q 514 540 515 538 l 514 542 q 513 543 513 542 q 512 545 513 544 q 511 546 511 546 q 511 547 511 546 q 511 551 511 550 q 511 553 511 551 q 511 554 511 554 q 513 556 513 556 q 513 557 513 557 q 514 558 514 558 q 515 560 514 560 q 518 563 515 561 l 518 564 q 585 641 553 589 q 637 751 617 693 q 669 862 657 808 q 681 951 681 915 q 621 1063 681 1063 q 550 1003 582 1063 q 549 1000 549 1001 q 486 742 507 913 q 446 283 465 572 q 446 281 446 282 q 433 72 439 107 l 433 68 q 428 37 431 47 q 419 12 425 26 q 405 -10 414 -3 q 381 -17 396 -17 q 347 -1 360 -17 q 335 74 328 19 q 348 274 339 113 q 360 652 357 435 q 339 985 363 869 q 314 1044 332 1022 q 272 1065 296 1065 q 176 1028 218 1065 q 114 924 133 990 q 114 922 114 924 q 112 716 93 821 q 171 560 131 611 q 167 537 181 547 q 144 539 154 526 q 90 662 111 582 q 70 836 68 742 q 106 1000 72 931 q 301 1121 165 1121 q 356 1105 331 1121 q 399 1060 381 1089 q 425 992 417 1031 q 451 726 444 897 q 519 1015 476 922 q 521 1018 519 1017 q 522 1021 521 1019 q 651 1121 571 1121 q 722 1101 693 1121 q 765 1042 750 1081 q 781 951 781 1004 q 760 816 781 889 q 707 681 740 743 q 604 560 661 597 q 758 485 696 542 q 840 346 821 429 q 1039 410 915 372 m 751 275 q 529 74 532 181 q 542 42 528 56 q 551 35 546 38 q 649 49 603 15 q 700 103 678 68 q 735 183 722 139 q 751 275 749 228 z "},"C":{"ha":668,"x_min":68,"x_max":715,"o":"m 679 403 q 701 408 688 417 q 706 385 715 399 q 664 308 694 367 q 601 196 626 235 q 329 -15 475 -15 q 179 47 240 -15 q 69 422 68 158 q 153 886 71 681 q 390 1121 246 1121 q 508 1069 465 1121 q 536 1021 525 1050 q 544 703 581 915 q 525 690 542 688 q 511 708 508 693 q 519 967 539 871 q 518 968 518 967 q 513 989 515 979 q 510 999 511 996 q 507 1007 508 1003 q 439 1057 486 1057 q 360 1021 404 1057 q 276 910 315 985 q 178 394 178 721 q 191 247 178 310 q 222 149 204 183 q 267 92 240 114 q 315 65 293 71 q 360 58 336 58 q 470 94 421 58 q 574 214 519 129 q 575 215 575 214 q 635 324 597 253 q 679 403 665 385 z "},"Ç":{"ha":668,"x_min":68,"x_max":715,"o":"m 679 403 q 701 408 688 417 q 706 385 715 399 q 664 308 694 367 q 601 196 626 235 q 329 -15 475 -15 q 179 47 240 -15 q 69 422 68 158 q 153 886 71 681 q 390 1121 246 1121 q 508 1069 465 1121 q 536 1021 525 1050 q 544 703 581 915 q 525 690 542 688 q 511 708 508 693 q 519 967 539 871 q 518 968 518 967 q 513 989 515 979 q 510 999 511 996 q 507 1007 508 1003 q 439 1057 486 1057 q 360 1021 404 1057 q 276 910 315 985 q 178 394 178 721 q 191 247 178 310 q 222 149 204 183 q 267 92 240 114 q 315 65 293 71 q 360 58 336 58 q 470 94 421 58 q 574 214 519 129 q 575 215 575 214 q 635 324 597 253 q 679 403 665 385 z "},"D":{"ha":1019,"x_min":68,"x_max":1064,"o":"m 1039 408 q 1059 397 1054 413 q 1049 376 1064 381 q 829 304 911 335 q 792 181 813 238 q 753 97 774 133 q 711 35 733 60 q 666 -3 689 10 q 618 -17 643 -17 l 617 -17 q 535 3 568 -17 q 518 17 525 8 q 496 74 494 40 q 558 197 497 142 q 732 301 619 253 q 767 581 767 438 q 746 808 767 699 q 692 983 725 917 q 621 1050 658 1050 q 550 1001 576 1050 q 549 999 549 999 q 485 740 507 910 q 446 281 464 571 q 446 279 446 281 q 433 71 439 107 l 433 67 q 428 35 431 46 q 419 10 425 25 q 405 -12 414 -6 q 381 -18 396 -18 q 347 -4 360 -18 q 335 72 328 18 q 344 199 338 94 q 356 449 350 303 q 358 749 361 596 q 339 983 356 901 q 325 1026 335 1007 q 301 1054 315 1044 q 272 1064 288 1064 q 176 1026 218 1064 q 114 921 133 989 q 114 921 114 921 q 112 715 93 819 q 171 558 131 610 q 167 534 181 544 q 144 538 154 524 q 90 660 111 581 q 70 834 68 739 q 106 999 72 929 q 301 1119 165 1119 q 356 1103 331 1119 q 399 1058 381 1088 q 425 990 417 1029 q 451 724 444 894 q 519 1014 476 921 q 521 1016 521 1015 q 521 1018 521 1017 l 522 1018 q 651 1119 571 1119 q 821 940 761 1119 q 865 646 865 804 q 838 342 865 485 q 1039 408 914 369 m 721 260 q 528 72 532 172 q 542 40 528 54 q 551 32 546 35 q 594 36 571 22 q 661 116 628 57 q 721 260 694 175 z "},"E":{"ha":667,"x_min":69,"x_max":715,"o":"m 678 400 q 701 403 688 413 q 706 381 715 394 q 664 304 694 364 q 601 192 625 231 q 328 -19 474 -19 q 141 62 213 -19 q 69 275 69 143 q 118 468 69 383 q 269 590 169 558 q 154 807 154 638 q 235 1029 154 935 q 311 1093 269 1069 q 389 1117 353 1117 q 507 1067 464 1117 q 536 1018 525 1046 q 543 699 579 911 q 524 686 540 683 q 511 706 508 689 q 518 963 539 867 q 518 964 518 964 q 507 1000 513 985 q 503 1008 506 1003 q 439 1053 483 1053 q 385 1038 417 1053 q 325 993 353 1022 q 250 790 250 915 q 378 604 250 638 q 379 604 378 604 q 390 592 389 601 q 390 590 390 592 q 390 589 390 589 q 390 586 390 588 l 390 585 q 386 578 389 581 q 385 577 386 578 q 385 575 385 576 q 381 574 383 574 q 379 572 381 572 q 378 572 379 572 q 374 572 375 572 q 237 494 296 572 q 178 310 178 415 q 194 190 178 242 q 233 114 211 139 q 283 74 254 89 q 328 57 311 60 q 358 54 344 54 q 470 90 421 54 q 574 210 519 126 q 574 211 574 210 q 633 319 596 249 q 678 400 665 381 z "},"È":{"ha":667,"x_min":69,"x_max":715,"o":"m 678 400 q 701 403 688 413 q 706 381 715 394 q 664 304 694 364 q 601 192 625 231 q 328 -19 474 -19 q 141 62 213 -19 q 69 275 69 143 q 118 468 69 383 q 269 590 169 558 q 154 807 154 638 q 235 1029 154 935 q 311 1093 269 1069 q 389 1117 353 1117 q 507 1067 464 1117 q 536 1018 525 1046 q 543 699 579 911 q 524 686 540 683 q 511 706 508 689 q 518 963 539 867 q 518 964 518 964 q 507 1000 513 985 q 503 1008 506 1003 q 439 1053 483 1053 q 385 1038 417 1053 q 325 993 353 1022 q 250 790 250 915 q 378 604 250 638 q 379 604 378 604 q 390 592 389 601 q 390 590 390 592 q 390 589 390 589 q 390 586 390 588 l 390 585 q 386 578 389 581 q 385 577 386 578 q 385 575 385 576 q 381 574 383 574 q 379 572 381 572 q 378 572 379 572 q 374 572 375 572 q 237 494 296 572 q 178 310 178 415 q 194 190 178 242 q 233 114 211 139 q 283 74 254 89 q 328 57 311 60 q 358 54 344 54 q 470 90 421 54 q 574 210 519 126 q 574 211 574 210 q 633 319 596 249 q 678 400 665 381 z "},"É":{"ha":667,"x_min":69,"x_max":715,"o":"m 678 400 q 701 403 688 413 q 706 381 715 394 q 664 304 694 364 q 601 192 625 231 q 328 -19 474 -19 q 141 62 213 -19 q 69 275 69 143 q 118 468 69 383 q 269 590 169 558 q 154 807 154 638 q 235 1029 154 935 q 311 1093 269 1069 q 389 1117 353 1117 q 507 1067 464 1117 q 536 1018 525 1046 q 543 699 579 911 q 524 686 540 683 q 511 706 508 689 q 518 963 539 867 q 518 964 518 964 q 507 1000 513 985 q 503 1008 506 1003 q 439 1053 483 1053 q 385 1038 417 1053 q 325 993 353 1022 q 250 790 250 915 q 378 604 250 638 q 379 604 378 604 q 390 592 389 601 q 390 590 390 592 q 390 589 390 589 q 390 586 390 588 l 390 585 q 386 578 389 581 q 385 577 386 578 q 385 575 385 576 q 381 574 383 574 q 379 572 381 572 q 378 572 379 572 q 374 572 375 572 q 237 494 296 572 q 178 310 178 415 q 194 190 178 242 q 233 114 211 139 q 283 74 254 89 q 328 57 311 60 q 358 54 344 54 q 470 90 421 54 q 574 210 519 126 q 574 211 574 210 q 633 319 596 249 q 678 400 665 381 z "},"Ê":{"ha":667,"x_min":69,"x_max":715,"o":"m 678 400 q 701 403 688 413 q 706 381 715 394 q 664 304 694 364 q 601 192 625 231 q 328 -19 474 -19 q 141 62 213 -19 q 69 275 69 143 q 118 468 69 383 q 269 590 169 558 q 154 807 154 638 q 235 1029 154 935 q 311 1093 269 1069 q 389 1117 353 1117 q 507 1067 464 1117 q 536 1018 525 1046 q 543 699 579 911 q 524 686 540 683 q 511 706 508 689 q 518 963 539 867 q 518 964 518 964 q 507 1000 513 985 q 503 1008 506 1003 q 439 1053 483 1053 q 385 1038 417 1053 q 325 993 353 1022 q 250 790 250 915 q 378 604 250 638 q 379 604 378 604 q 390 592 389 601 q 390 590 390 592 q 390 589 390 589 q 390 586 390 588 l 390 585 q 386 578 389 581 q 385 577 386 578 q 385 575 385 576 q 381 574 383 574 q 379 572 381 572 q 378 572 379 572 q 374 572 375 572 q 237 494 296 572 q 178 310 178 415 q 194 190 178 242 q 233 114 211 139 q 283 74 254 89 q 328 57 311 60 q 358 54 344 54 q 470 90 421 54 q 574 210 519 126 q 574 211 574 210 q 633 319 596 249 q 678 400 665 381 z "},"Ë":{"ha":667,"x_min":69,"x_max":715,"o":"m 678 400 q 701 403 688 413 q 706 381 715 394 q 664 304 694 364 q 601 192 625 231 q 328 -19 474 -19 q 141 62 213 -19 q 69 275 69 143 q 118 468 69 383 q 269 590 169 558 q 154 807 154 638 q 235 1029 154 935 q 311 1093 269 1069 q 389 1117 353 1117 q 507 1067 464 1117 q 536 1018 525 1046 q 543 699 579 911 q 524 686 540 683 q 511 706 508 689 q 518 963 539 867 q 518 964 518 964 q 507 1000 513 985 q 503 1008 506 1003 q 439 1053 483 1053 q 385 1038 417 1053 q 325 993 353 1022 q 250 790 250 915 q 378 604 250 638 q 379 604 378 604 q 390 592 389 601 q 390 590 390 592 q 390 589 390 589 q 390 586 390 588 l 390 585 q 386 578 389 581 q 385 577 386 578 q 385 575 385 576 q 381 574 383 574 q 379 572 381 572 q 378 572 379 572 q 374 572 375 572 q 237 494 296 572 q 178 310 178 415 q 194 190 178 242 q 233 114 211 139 q 283 74 254 89 q 328 57 311 60 q 358 54 344 54 q 470 90 421 54 q 574 210 519 126 q 574 211 574 210 q 633 319 596 249 q 678 400 665 381 z "},"F":{"ha":826,"x_min":69,"x_max":1042,"o":"m 1040 1167 q 1039 1157 1042 1161 l 1039 1156 q 986 1092 1019 1115 q 906 1060 953 1068 q 798 1050 860 1051 q 657 1050 736 1049 q 510 1053 563 1053 l 506 1053 q 507 961 506 1049 q 506 604 510 724 q 517 604 511 604 l 765 604 q 777 599 772 604 q 782 588 782 594 q 777 576 782 581 q 765 571 772 571 l 517 571 q 504 571 510 571 q 361 46 485 172 q 210 -17 299 -17 q 178 -13 194 -17 q 140 1 163 -10 q 101 40 118 13 q 75 107 83 67 q 71 144 71 125 q 69 169 69 157 q 103 321 69 243 q 199 463 138 399 q 407 589 290 557 q 404 1000 413 746 q 401 1044 403 1017 q 274 986 314 1029 q 236 826 226 935 q 286 669 246 736 q 281 647 294 656 q 271 644 276 644 q 257 653 263 644 q 203 824 214 725 q 201 864 201 844 q 476 1126 201 1119 q 489 1126 481 1126 q 679 1124 543 1126 q 856 1121 794 1121 l 857 1121 q 1011 1174 969 1121 q 1013 1175 1013 1175 q 1014 1176 1013 1176 q 1018 1179 1015 1178 q 1019 1179 1019 1179 l 1021 1181 q 1022 1181 1021 1181 q 1028 1181 1025 1181 q 1029 1181 1028 1181 q 1032 1179 1031 1179 q 1033 1178 1033 1178 q 1035 1178 1033 1178 l 1035 1176 q 1037 1176 1036 1176 q 1038 1174 1038 1175 q 1039 1172 1038 1174 q 1040 1170 1039 1171 q 1040 1169 1040 1169 l 1040 1168 q 1040 1167 1040 1168 m 224 439 q 135 309 167 381 q 103 169 103 238 q 108 111 103 138 q 140 60 117 79 q 200 40 164 40 q 286 79 249 40 q 406 554 388 183 q 224 439 303 522 z "},"G":{"ha":815,"x_min":69,"x_max":860,"o":"m 824 396 q 844 407 828 411 q 856 388 860 403 q 814 282 842 333 q 740 176 786 231 q 663 89 694 122 q 571 -4 631 56 q 525 -50 536 -39 q 519 -193 522 -132 q 511 -324 517 -254 q 494 -440 506 -393 q 468 -528 483 -487 q 428 -590 453 -569 q 374 -611 404 -611 q 286 -531 314 -611 q 269 -426 265 -487 q 311 -263 269 -342 q 428 -103 353 -185 q 428 -49 428 -85 l 428 -25 l 428 -12 q 379 -19 404 -19 q 209 40 278 -19 q 105 217 140 100 q 69 504 69 333 q 171 949 69 764 q 273 1075 217 1029 q 383 1121 329 1121 q 486 1067 443 1121 q 531 913 529 1014 q 531 904 531 907 q 428 689 531 782 q 404 690 415 678 q 406 713 393 701 q 497 904 497 796 q 497 911 497 907 q 471 1006 496 964 q 410 1047 446 1047 q 343 1010 383 1047 q 267 907 303 974 q 178 510 178 740 q 242 154 178 269 q 399 54 297 54 q 428 56 414 54 q 431 182 428 128 q 442 299 433 236 q 465 403 450 363 q 504 470 479 443 q 565 497 529 497 q 619 460 600 497 q 638 357 638 424 q 632 295 638 331 q 613 217 626 260 q 582 136 600 174 q 576 125 579 131 q 576 124 576 125 q 526 50 554 81 q 525 -1 526 33 q 537 9 529 1 q 547 19 544 17 q 638 110 607 78 q 713 194 668 142 q 783 296 757 247 q 824 396 810 344 m 604 357 q 594 433 604 401 q 565 464 585 464 q 559 460 563 464 q 548 430 556 457 q 536 356 540 403 q 526 110 529 283 q 542 132 535 119 q 588 249 572 185 q 604 357 604 313 m 428 -153 q 303 -426 303 -299 q 315 -514 303 -475 q 326 -533 319 -525 q 358 -546 339 -546 q 417 -382 400 -546 q 428 -153 426 -296 z "},"H":{"ha":1050,"x_min":69,"x_max":979,"o":"m 979 1 l 979 0 q 979 -3 979 -1 q 978 -6 979 -4 q 975 -10 976 -8 q 975 -11 975 -11 q 974 -12 974 -11 q 972 -12 974 -12 q 968 -14 971 -14 q 967 -15 968 -15 q 965 -15 965 -15 l 965 -15 q 940 -17 953 -17 q 817 31 868 -17 q 704 576 692 147 q 496 475 626 531 q 363 58 467 176 q 208 -15 299 -15 q 114 27 156 -15 q 69 138 72 69 q 69 144 69 140 q 103 261 69 207 q 210 366 138 315 q 400 471 283 417 q 414 715 414 586 q 401 912 414 828 q 372 1031 389 996 q 340 1067 356 1067 q 262 1010 296 1067 q 225 901 228 954 q 225 896 225 899 q 225 890 225 894 q 279 667 225 782 q 271 644 286 651 q 249 653 256 638 q 192 890 192 775 q 192 896 192 890 q 193 903 192 900 q 248 1060 196 997 q 376 1122 300 1122 q 426 1106 406 1122 q 460 1058 447 1089 q 481 994 474 1026 q 494 919 489 963 q 504 765 501 864 q 499 513 507 667 q 706 617 629 568 q 729 841 711 744 q 769 989 747 938 q 817 1072 790 1040 q 865 1113 844 1104 q 906 1122 885 1121 q 907 1122 906 1122 q 962 1089 944 1122 q 979 1010 979 1056 q 828 665 979 801 q 804 644 815 654 q 800 540 800 592 l 800 528 q 801 455 800 481 q 803 379 801 429 q 809 298 804 329 q 822 224 814 267 q 842 151 829 181 q 871 93 854 122 q 913 45 888 64 q 968 17 938 26 q 969 17 968 17 q 971 15 971 17 q 975 13 974 14 q 976 11 976 13 q 978 10 978 10 l 978 8 q 979 7 979 8 q 979 4 979 6 q 979 3 979 4 q 979 1 979 3 m 396 432 q 172 292 240 360 q 103 144 103 224 q 103 139 103 140 q 129 72 104 100 q 189 44 154 44 q 353 233 290 44 q 396 432 379 318 m 947 1010 q 947 1024 947 1017 q 944 1042 946 1031 q 938 1064 942 1054 q 927 1081 935 1074 q 908 1089 919 1088 q 898 1076 904 1086 q 883 1047 892 1065 q 865 997 875 1028 q 844 926 854 965 q 807 690 818 818 q 947 1010 947 818 z "},"I":{"ha":654,"x_min":69,"x_max":511,"o":"m 433 1092 q 508 681 511 1014 q 507 660 507 668 q 469 296 507 465 q 217 -17 397 -17 l 215 -17 q 115 24 157 -17 q 71 117 78 63 q 69 124 71 121 q 69 131 69 126 q 69 138 69 133 q 74 149 69 144 q 86 154 79 154 q 92 153 89 154 q 98 149 96 151 q 101 144 100 147 q 103 138 103 142 q 103 132 103 135 q 103 128 103 129 q 135 63 107 88 q 204 38 163 38 q 303 104 261 38 q 366 274 344 171 q 397 478 388 378 q 407 671 407 578 q 392 928 407 840 q 328 1049 372 1049 q 265 1012 293 1049 q 229 921 238 975 q 229 919 229 919 q 228 901 228 910 l 228 900 q 228 889 228 894 q 226 885 228 886 q 232 804 226 844 q 250 728 238 764 q 281 668 263 693 q 276 645 289 654 q 253 650 263 636 q 218 721 232 679 q 198 811 204 763 q 194 906 192 860 q 196 915 196 913 q 228 1029 203 982 q 371 1119 276 1119 q 433 1092 407 1119 z "},"Ì":{"ha":654,"x_min":69,"x_max":511,"o":"m 433 1092 q 508 681 511 1014 q 507 660 507 668 q 469 296 507 465 q 217 -17 397 -17 l 215 -17 q 115 24 157 -17 q 71 117 78 63 q 69 124 71 121 q 69 131 69 126 q 69 138 69 133 q 74 149 69 144 q 86 154 79 154 q 92 153 89 154 q 98 149 96 151 q 101 144 100 147 q 103 138 103 142 q 103 132 103 135 q 103 128 103 129 q 135 63 107 88 q 204 38 163 38 q 303 104 261 38 q 366 274 344 171 q 397 478 388 378 q 407 671 407 578 q 392 928 407 840 q 328 1049 372 1049 q 265 1012 293 1049 q 229 921 238 975 q 229 919 229 919 q 228 901 228 910 l 228 900 q 228 889 228 894 q 226 885 228 886 q 232 804 226 844 q 250 728 238 764 q 281 668 263 693 q 276 645 289 654 q 253 650 263 636 q 218 721 232 679 q 198 811 204 763 q 194 906 192 860 q 196 915 196 913 q 228 1029 203 982 q 371 1119 276 1119 q 433 1092 407 1119 z "},"Í":{"ha":654,"x_min":69,"x_max":511,"o":"m 433 1092 q 508 681 511 1014 q 507 660 507 668 q 469 296 507 465 q 217 -17 397 -17 l 215 -17 q 115 24 157 -17 q 71 117 78 63 q 69 124 71 121 q 69 131 69 126 q 69 138 69 133 q 74 149 69 144 q 86 154 79 154 q 92 153 89 154 q 98 149 96 151 q 101 144 100 147 q 103 138 103 142 q 103 132 103 135 q 103 128 103 129 q 135 63 107 88 q 204 38 163 38 q 303 104 261 38 q 366 274 344 171 q 397 478 388 378 q 407 671 407 578 q 392 928 407 840 q 328 1049 372 1049 q 265 1012 293 1049 q 229 921 238 975 q 229 919 229 919 q 228 901 228 910 l 228 900 q 228 889 228 894 q 226 885 228 886 q 232 804 226 844 q 250 728 238 764 q 281 668 263 693 q 276 645 289 654 q 253 650 263 636 q 218 721 232 679 q 198 811 204 763 q 194 906 192 860 q 196 915 196 913 q 228 1029 203 982 q 371 1119 276 1119 q 433 1092 407 1119 z "},"Î":{"ha":654,"x_min":69,"x_max":511,"o":"m 433 1092 q 508 681 511 1014 q 507 660 507 668 q 469 296 507 465 q 217 -17 397 -17 l 215 -17 q 115 24 157 -17 q 71 117 78 63 q 69 124 71 121 q 69 131 69 126 q 69 138 69 133 q 74 149 69 144 q 86 154 79 154 q 92 153 89 154 q 98 149 96 151 q 101 144 100 147 q 103 138 103 142 q 103 132 103 135 q 103 128 103 129 q 135 63 107 88 q 204 38 163 38 q 303 104 261 38 q 366 274 344 171 q 397 478 388 378 q 407 671 407 578 q 392 928 407 840 q 328 1049 372 1049 q 265 1012 293 1049 q 229 921 238 975 q 229 919 229 919 q 228 901 228 910 l 228 900 q 228 889 228 894 q 226 885 228 886 q 232 804 226 844 q 250 728 238 764 q 281 668 263 693 q 276 645 289 654 q 253 650 263 636 q 218 721 232 679 q 198 811 204 763 q 194 906 192 860 q 196 915 196 913 q 228 1029 203 982 q 371 1119 276 1119 q 433 1092 407 1119 z "},"Ï":{"ha":654,"x_min":69,"x_max":511,"o":"m 433 1092 q 508 681 511 1014 q 507 660 507 668 q 469 296 507 465 q 217 -17 397 -17 l 215 -17 q 115 24 157 -17 q 71 117 78 63 q 69 124 71 121 q 69 131 69 126 q 69 138 69 133 q 74 149 69 144 q 86 154 79 154 q 92 153 89 154 q 98 149 96 151 q 101 144 100 147 q 103 138 103 142 q 103 132 103 135 q 103 128 103 129 q 135 63 107 88 q 204 38 163 38 q 303 104 261 38 q 366 274 344 171 q 397 478 388 378 q 407 671 407 578 q 392 928 407 840 q 328 1049 372 1049 q 265 1012 293 1049 q 229 921 238 975 q 229 919 229 919 q 228 901 228 910 l 228 900 q 228 889 228 894 q 226 885 228 886 q 232 804 226 844 q 250 728 238 764 q 281 668 263 693 q 276 645 289 654 q 253 650 263 636 q 218 721 232 679 q 198 811 204 763 q 194 906 192 860 q 196 915 196 913 q 228 1029 203 982 q 371 1119 276 1119 q 433 1092 407 1119 z "},"J":{"ha":813,"x_min":69,"x_max":856,"o":"m 835 406 q 853 392 851 408 q 840 374 856 375 q 632 336 728 357 q 544 138 597 225 q 393 -31 478 28 q 215 -90 308 -90 q 196 -90 203 -90 q 192 -90 194 -90 l 190 -90 q 188 -90 189 -90 q 125 -76 150 -89 q 69 25 69 -50 q 256 251 69 157 q 540 349 365 306 q 578 642 578 492 q 541 951 578 836 q 442 1067 504 1067 q 343 990 379 1067 q 343 988 343 989 q 319 896 326 949 q 324 706 307 804 q 378 560 342 607 q 376 537 389 547 q 351 539 363 526 q 307 634 325 574 q 284 762 289 694 q 286 899 279 829 q 286 900 286 900 q 311 996 293 954 q 313 1001 311 999 q 319 1018 315 1010 q 472 1121 371 1121 q 679 654 679 1121 q 642 372 679 510 q 835 406 731 390 m 103 25 q 140 -47 103 -29 q 196 -57 160 -57 q 475 174 365 -47 q 529 313 507 238 q 271 222 371 272 q 103 25 103 136 z "},"K":{"ha":929,"x_min":68,"x_max":978,"o":"m 943 407 q 967 406 956 418 q 965 382 978 393 q 938 347 951 369 q 913 288 925 324 q 894 226 901 251 q 874 154 886 201 q 846 60 856 92 q 819 -10 836 28 q 783 -64 801 -47 q 742 -81 765 -81 q 719 -76 729 -81 q 699 -60 708 -71 q 683 -38 690 -49 q 670 -7 676 -28 q 660 28 664 14 q 650 72 656 43 q 642 118 644 101 q 633 169 639 135 q 621 244 625 218 q 607 314 617 269 q 589 383 597 358 q 567 440 581 408 q 538 490 553 472 q 500 519 522 507 q 453 532 478 532 q 447 317 451 429 q 439 144 443 206 q 433 72 435 83 l 433 68 q 428 38 431 49 q 419 12 425 26 q 405 -10 414 -3 q 381 -17 396 -17 q 347 -1 360 -17 q 335 74 328 19 q 348 274 339 113 q 360 652 357 435 q 339 985 363 869 q 314 1044 332 1022 q 272 1065 296 1065 q 176 1028 218 1065 q 114 924 133 990 q 114 922 114 924 q 112 716 93 821 q 171 560 131 611 q 167 537 181 547 q 144 539 154 526 q 90 662 111 582 q 70 836 68 742 q 106 1000 72 931 q 301 1121 165 1121 q 379 1086 346 1121 q 425 992 413 1051 q 453 625 450 869 q 464 625 458 625 q 468 625 465 625 q 515 635 494 625 q 548 657 535 644 q 574 696 561 669 q 592 740 586 722 q 611 792 599 757 q 631 853 624 832 q 657 909 639 875 q 694 960 675 943 q 747 992 714 978 q 819 1006 779 1006 q 831 1001 826 1006 q 836 989 836 996 q 831 977 836 982 q 819 972 826 972 q 759 960 786 972 q 716 934 732 949 q 684 890 700 919 q 661 840 668 860 q 642 782 654 821 q 624 727 631 746 q 603 681 617 708 q 574 636 590 654 q 536 607 558 618 q 597 565 569 592 q 642 497 624 538 q 674 420 661 456 q 698 328 688 385 q 713 240 708 272 q 725 151 717 208 q 747 10 738 44 q 767 -33 757 -26 q 842 164 797 0 q 870 264 860 229 q 901 342 881 299 q 943 407 921 386 z "},"L":{"ha":744,"x_min":60,"x_max":1015,"o":"m 1014 50 q 1014 47 1014 49 q 1014 39 1015 43 q 1013 36 1013 38 q 1011 35 1013 36 q 1010 33 1011 33 q 808 -56 932 -56 q 695 -37 754 -56 q 601 1 636 -18 q 504 56 567 19 q 438 94 460 82 q 258 -17 372 -14 q 253 -17 256 -17 q 181 9 200 -17 q 163 68 163 35 q 193 144 163 114 q 285 176 228 178 q 376 169 332 176 q 422 597 422 324 q 271 1088 422 1081 q 265 1088 268 1088 q 139 1000 182 1088 q 104 763 94 903 q 164 560 114 624 q 160 537 174 547 q 138 539 147 526 q 72 759 83 610 q 108 1014 60 908 q 265 1121 161 1121 q 377 1087 329 1121 q 458 986 425 1053 q 506 821 490 919 q 522 592 522 722 q 475 179 522 322 q 464 147 469 163 q 578 96 506 132 q 663 56 632 69 q 749 30 693 43 q 864 17 804 17 q 982 53 936 17 q 988 57 988 57 l 989 58 q 990 60 989 58 q 993 60 992 60 q 995 60 994 60 q 997 61 996 61 q 999 61 997 61 q 1000 61 999 61 q 1004 60 1001 60 q 1005 59 1004 60 q 1006 58 1006 58 q 1007 58 1007 58 q 1008 57 1008 57 q 1014 50 1013 54 m 196 68 q 209 28 196 40 q 253 17 222 17 q 363 128 319 17 q 285 144 321 143 q 283 144 283 144 q 282 144 282 144 q 217 121 240 144 q 196 68 196 100 z "},"M":{"ha":1356,"x_min":68,"x_max":1403,"o":"m 1369 407 q 1392 405 1382 418 q 1390 381 1403 392 q 1343 327 1368 363 q 1304 266 1318 292 q 1265 193 1290 240 q 1224 118 1238 140 q 1224 117 1224 117 q 1082 -17 1149 -17 q 1006 47 1039 -17 q 972 221 972 110 q 999 625 972 311 q 1014 839 1013 793 q 986 1043 1022 1006 q 967 1051 978 1051 q 908 986 943 1051 q 908 985 908 985 q 824 590 863 879 q 801 449 808 485 l 801 447 q 774 357 789 382 q 731 332 758 332 q 681 367 706 332 q 651 458 657 403 q 646 668 646 507 q 645 787 646 743 q 641 895 644 831 q 629 998 638 960 q 607 1050 621 1036 q 596 1056 601 1056 q 585 1049 592 1056 q 568 1027 578 1043 q 549 988 558 1011 q 528 926 539 964 q 510 840 518 888 q 461 403 488 718 q 442 181 449 261 q 440 179 442 179 q 437 108 439 138 q 433 72 435 78 l 433 68 q 428 38 431 49 q 420 12 425 26 q 406 -10 415 -3 q 381 -17 396 -17 q 347 -1 360 -17 q 335 74 328 19 q 348 274 339 113 q 360 652 357 435 q 339 985 363 869 q 331 1013 336 1000 q 320 1035 326 1025 q 306 1051 314 1044 q 290 1062 299 1058 q 272 1065 282 1065 q 176 1028 218 1065 q 114 924 133 990 q 114 922 114 924 q 112 716 93 821 q 171 560 131 611 q 167 537 181 547 q 144 539 154 526 q 90 662 111 582 q 70 836 68 742 q 106 1000 72 931 q 301 1121 165 1121 q 379 1086 346 1121 q 425 992 413 1051 q 453 668 449 881 q 474 832 463 764 q 474 833 474 833 q 535 1048 497 975 q 635 1121 572 1121 q 679 1104 660 1121 q 710 1049 699 1088 q 729 976 722 1011 q 739 876 736 942 q 742 772 742 811 q 743 656 743 732 q 758 415 744 444 q 768 447 763 425 q 768 449 768 449 q 768 450 768 450 l 768 454 q 769 456 768 454 q 790 594 776 493 q 811 739 803 686 q 838 870 819 792 q 879 999 857 949 q 879 1001 879 1000 q 1015 1121 933 1121 q 1068 1097 1047 1121 q 1103 1023 1092 1072 q 1112 888 1114 974 q 1106 742 1110 803 q 1092 564 1103 682 q 1078 404 1082 460 q 1072 268 1075 349 q 1078 141 1069 188 q 1104 75 1086 94 q 1128 64 1114 64 q 1197 138 1154 64 q 1236 208 1210 160 q 1276 285 1261 258 q 1318 349 1292 311 q 1369 407 1344 386 z "},"N":{"ha":1090,"x_min":68,"x_max":1138,"o":"m 1104 407 q 1127 404 1117 417 q 1125 381 1138 392 q 1078 328 1103 363 q 1040 267 1054 293 q 1000 193 1025 240 q 960 118 972 140 q 958 117 958 117 q 818 -17 883 -17 q 740 47 774 -17 q 707 221 707 110 q 733 625 707 311 q 749 839 747 793 q 721 1043 757 1006 q 701 1051 713 1051 q 638 969 681 1051 q 636 968 636 968 q 551 715 593 875 q 443 132 499 508 q 428 39 432 56 q 428 38 428 38 q 428 35 428 35 l 428 35 q 381 -17 415 -17 q 347 -1 360 -17 q 335 74 328 19 q 348 274 339 113 q 360 652 357 435 q 339 985 363 869 q 325 1028 335 1010 q 301 1056 315 1046 q 272 1065 288 1065 q 176 1028 218 1065 q 114 924 133 990 q 114 922 114 924 q 112 716 93 821 q 171 560 131 611 q 167 537 181 547 q 144 539 154 526 q 90 662 111 582 q 70 836 68 742 q 106 1000 72 931 q 301 1121 165 1121 q 379 1086 346 1121 q 425 992 413 1051 q 450 390 463 813 q 519 724 483 583 q 607 983 561 888 q 608 985 607 983 q 609 986 608 985 q 610 988 610 988 q 750 1121 675 1121 q 803 1097 782 1121 q 838 1023 826 1072 q 847 889 849 974 q 842 743 846 804 q 826 564 838 682 q 817 459 821 496 q 810 360 814 422 q 807 262 807 299 q 809 183 807 225 q 819 114 811 140 q 839 75 826 88 q 864 64 849 64 q 932 138 889 64 q 971 208 944 160 q 1001 266 990 246 q 1031 317 1013 286 q 1067 369 1049 347 q 1104 407 1085 390 z "},"Ñ":{"ha":1090,"x_min":68,"x_max":1138,"o":"m 1104 407 q 1127 404 1117 417 q 1125 381 1138 392 q 1078 328 1103 363 q 1040 267 1054 293 q 1000 193 1025 240 q 960 118 972 140 q 958 117 958 117 q 818 -17 883 -17 q 740 47 774 -17 q 707 221 707 110 q 733 625 707 311 q 749 839 747 793 q 721 1043 757 1006 q 701 1051 713 1051 q 638 969 681 1051 q 636 968 636 968 q 551 715 593 875 q 443 132 499 508 q 428 39 432 56 q 428 38 428 38 q 428 35 428 35 l 428 35 q 381 -17 415 -17 q 347 -1 360 -17 q 335 74 328 19 q 348 274 339 113 q 360 652 357 435 q 339 985 363 869 q 325 1028 335 1010 q 301 1056 315 1046 q 272 1065 288 1065 q 176 1028 218 1065 q 114 924 133 990 q 114 922 114 924 q 112 716 93 821 q 171 560 131 611 q 167 537 181 547 q 144 539 154 526 q 90 662 111 582 q 70 836 68 742 q 106 1000 72 931 q 301 1121 165 1121 q 379 1086 346 1121 q 425 992 413 1051 q 450 390 463 813 q 519 724 483 583 q 607 983 561 888 q 608 985 607 983 q 609 986 608 985 q 610 988 610 988 q 750 1121 675 1121 q 803 1097 782 1121 q 838 1023 826 1072 q 847 889 849 974 q 842 743 846 804 q 826 564 838 682 q 817 459 821 496 q 810 360 814 422 q 807 262 807 299 q 809 183 807 225 q 819 114 811 140 q 839 75 826 88 q 864 64 849 64 q 932 138 889 64 q 971 208 944 160 q 1001 266 990 246 q 1031 317 1013 286 q 1067 369 1049 347 q 1104 407 1085 390 z "},"O":{"ha":943,"x_min":69,"x_max":990,"o":"m 953 401 q 976 408 961 417 q 982 386 990 400 q 884 274 957 340 q 718 168 811 207 q 708 144 713 156 q 515 -17 636 -17 q 308 110 388 -17 q 256 231 276 160 q 193 289 222 257 q 102 442 135 357 q 69 614 69 526 q 240 1039 69 906 q 342 1095 286 1075 q 424 1118 399 1115 q 465 1121 449 1121 q 612 1075 549 1121 q 711 951 675 1029 q 764 783 747 874 q 781 590 781 692 q 733 213 781 365 q 872 308 811 250 q 953 401 933 367 m 103 614 q 139 437 103 524 q 242 286 175 350 q 218 539 218 394 q 246 745 218 622 q 314 925 274 868 q 351 946 326 943 q 392 939 376 949 q 401 879 424 918 q 358 778 376 838 q 330 650 340 718 q 319 515 319 582 q 358 206 319 332 q 546 165 444 165 q 692 194 618 165 q 747 590 747 347 q 738 735 747 665 q 708 869 729 804 q 655 983 686 935 q 574 1059 624 1031 q 465 1088 525 1088 q 369 1070 426 1088 q 261 1013 313 1053 q 103 614 103 890 m 515 17 q 675 153 613 17 q 546 132 611 132 q 374 163 453 132 q 441 53 403 90 q 515 17 479 17 z "},"Ò":{"ha":943,"x_min":69,"x_max":990,"o":"m 953 401 q 976 408 961 417 q 982 386 990 400 q 884 274 957 340 q 718 168 811 207 q 708 144 713 156 q 515 -17 636 -17 q 308 110 388 -17 q 256 231 276 160 q 193 289 222 257 q 102 442 135 357 q 69 614 69 526 q 240 1039 69 906 q 342 1095 286 1075 q 424 1118 399 1115 q 465 1121 449 1121 q 612 1075 549 1121 q 711 951 675 1029 q 764 783 747 874 q 781 590 781 692 q 733 213 781 365 q 872 308 811 250 q 953 401 933 367 m 103 614 q 139 437 103 524 q 242 286 175 350 q 218 539 218 394 q 246 745 218 622 q 314 925 274 868 q 351 946 326 943 q 392 939 376 949 q 401 879 424 918 q 358 778 376 838 q 330 650 340 718 q 319 515 319 582 q 358 206 319 332 q 546 165 444 165 q 692 194 618 165 q 747 590 747 347 q 738 735 747 665 q 708 869 729 804 q 655 983 686 935 q 574 1059 624 1031 q 465 1088 525 1088 q 369 1070 426 1088 q 261 1013 313 1053 q 103 614 103 890 m 515 17 q 675 153 613 17 q 546 132 611 132 q 374 163 453 132 q 441 53 403 90 q 515 17 479 17 z "},"Ó":{"ha":943,"x_min":69,"x_max":990,"o":"m 953 401 q 976 408 961 417 q 982 386 990 400 q 884 274 957 340 q 718 168 811 207 q 708 144 713 156 q 515 -17 636 -17 q 308 110 388 -17 q 256 231 276 160 q 193 289 222 257 q 102 442 135 357 q 69 614 69 526 q 240 1039 69 906 q 342 1095 286 1075 q 424 1118 399 1115 q 465 1121 449 1121 q 612 1075 549 1121 q 711 951 675 1029 q 764 783 747 874 q 781 590 781 692 q 733 213 781 365 q 872 308 811 250 q 953 401 933 367 m 103 614 q 139 437 103 524 q 242 286 175 350 q 218 539 218 394 q 246 745 218 622 q 314 925 274 868 q 351 946 326 943 q 392 939 376 949 q 401 879 424 918 q 358 778 376 838 q 330 650 340 718 q 319 515 319 582 q 358 206 319 332 q 546 165 444 165 q 692 194 618 165 q 747 590 747 347 q 738 735 747 665 q 708 869 729 804 q 655 983 686 935 q 574 1059 624 1031 q 465 1088 525 1088 q 369 1070 426 1088 q 261 1013 313 1053 q 103 614 103 890 m 515 17 q 675 153 613 17 q 546 132 611 132 q 374 163 453 132 q 441 53 403 90 q 515 17 479 17 z "},"Ô":{"ha":943,"x_min":69,"x_max":990,"o":"m 953 401 q 976 408 961 417 q 982 386 990 400 q 884 274 957 340 q 718 168 811 207 q 708 144 713 156 q 515 -17 636 -17 q 308 110 388 -17 q 256 231 276 160 q 193 289 222 257 q 102 442 135 357 q 69 614 69 526 q 240 1039 69 906 q 342 1095 286 1075 q 424 1118 399 1115 q 465 1121 449 1121 q 612 1075 549 1121 q 711 951 675 1029 q 764 783 747 874 q 781 590 781 692 q 733 213 781 365 q 872 308 811 250 q 953 401 933 367 m 103 614 q 139 437 103 524 q 242 286 175 350 q 218 539 218 394 q 246 745 218 622 q 314 925 274 868 q 351 946 326 943 q 392 939 376 949 q 401 879 424 918 q 358 778 376 838 q 330 650 340 718 q 319 515 319 582 q 358 206 319 332 q 546 165 444 165 q 692 194 618 165 q 747 590 747 347 q 738 735 747 665 q 708 869 729 804 q 655 983 686 935 q 574 1059 624 1031 q 465 1088 525 1088 q 369 1070 426 1088 q 261 1013 313 1053 q 103 614 103 890 m 515 17 q 675 153 613 17 q 546 132 611 132 q 374 163 453 132 q 441 53 403 90 q 515 17 479 17 z "},"Õ":{"ha":943,"x_min":69,"x_max":990,"o":"m 953 401 q 976 408 961 417 q 982 386 990 400 q 884 274 957 340 q 718 168 811 207 q 708 144 713 156 q 515 -17 636 -17 q 308 110 388 -17 q 256 231 276 160 q 193 289 222 257 q 102 442 135 357 q 69 614 69 526 q 240 1039 69 906 q 342 1095 286 1075 q 424 1118 399 1115 q 465 1121 449 1121 q 612 1075 549 1121 q 711 951 675 1029 q 764 783 747 874 q 781 590 781 692 q 733 213 781 365 q 872 308 811 250 q 953 401 933 367 m 103 614 q 139 437 103 524 q 242 286 175 350 q 218 539 218 394 q 246 745 218 622 q 314 925 274 868 q 351 946 326 943 q 392 939 376 949 q 401 879 424 918 q 358 778 376 838 q 330 650 340 718 q 319 515 319 582 q 358 206 319 332 q 546 165 444 165 q 692 194 618 165 q 747 590 747 347 q 738 735 747 665 q 708 869 729 804 q 655 983 686 935 q 574 1059 624 1031 q 465 1088 525 1088 q 369 1070 426 1088 q 261 1013 313 1053 q 103 614 103 890 m 515 17 q 675 153 613 17 q 546 132 611 132 q 374 163 453 132 q 441 53 403 90 q 515 17 479 17 z "},"Ö":{"ha":943,"x_min":69,"x_max":990,"o":"m 953 401 q 976 408 961 417 q 982 386 990 400 q 884 274 957 340 q 718 168 811 207 q 708 144 713 156 q 515 -17 636 -17 q 308 110 388 -17 q 256 231 276 160 q 193 289 222 257 q 102 442 135 357 q 69 614 69 526 q 240 1039 69 906 q 342 1095 286 1075 q 424 1118 399 1115 q 465 1121 449 1121 q 612 1075 549 1121 q 711 951 675 1029 q 764 783 747 874 q 781 590 781 692 q 733 213 781 365 q 872 308 811 250 q 953 401 933 367 m 103 614 q 139 437 103 524 q 242 286 175 350 q 218 539 218 394 q 246 745 218 622 q 314 925 274 868 q 351 946 326 943 q 392 939 376 949 q 401 879 424 918 q 358 778 376 838 q 330 650 340 718 q 319 515 319 582 q 358 206 319 332 q 546 165 444 165 q 692 194 618 165 q 747 590 747 347 q 738 735 747 665 q 708 869 729 804 q 655 983 686 935 q 574 1059 624 1031 q 465 1088 525 1088 q 369 1070 426 1088 q 261 1013 313 1053 q 103 614 103 890 m 515 17 q 675 153 613 17 q 546 132 611 132 q 374 163 453 132 q 441 53 403 90 q 515 17 479 17 z "},"Ø":{"ha":943,"x_min":69,"x_max":990,"o":"m 953 401 q 976 408 961 417 q 982 386 990 400 q 884 274 957 340 q 718 168 811 207 q 708 144 713 156 q 515 -17 636 -17 q 308 110 388 -17 q 256 231 276 160 q 193 289 222 257 q 102 442 135 357 q 69 614 69 526 q 240 1039 69 906 q 342 1095 286 1075 q 424 1118 399 1115 q 465 1121 449 1121 q 612 1075 549 1121 q 711 951 675 1029 q 764 783 747 874 q 781 590 781 692 q 733 213 781 365 q 872 308 811 250 q 953 401 933 367 m 103 614 q 139 437 103 524 q 242 286 175 350 q 218 539 218 394 q 246 745 218 622 q 314 925 274 868 q 351 946 326 943 q 392 939 376 949 q 401 879 424 918 q 358 778 376 838 q 330 650 340 718 q 319 515 319 582 q 358 206 319 332 q 546 165 444 165 q 692 194 618 165 q 747 590 747 347 q 738 735 747 665 q 708 869 729 804 q 655 983 686 935 q 574 1059 624 1031 q 465 1088 525 1088 q 369 1070 426 1088 q 261 1013 313 1053 q 103 614 103 890 m 515 17 q 675 153 613 17 q 546 132 611 132 q 374 163 453 132 q 441 53 403 90 q 515 17 479 17 z "},"P":{"ha":701,"x_min":68,"x_max":847,"o":"m 713 1119 q 766 1110 743 1119 q 803 1085 789 1101 q 826 1053 817 1069 q 840 1016 836 1036 q 846 983 844 996 q 847 957 847 969 q 790 770 847 864 q 640 612 732 676 q 453 535 549 547 q 448 319 453 431 q 439 145 443 207 q 433 72 435 83 l 433 68 q 428 38 431 49 q 420 12 425 26 q 406 -10 415 -3 q 381 -17 396 -17 q 347 -1 360 -17 q 335 74 328 19 q 348 274 339 113 q 360 652 357 435 q 339 985 363 869 q 325 1028 335 1010 q 301 1056 315 1046 q 272 1065 288 1065 q 176 1028 218 1065 q 114 924 133 990 q 114 922 114 924 q 112 716 93 821 q 171 560 131 611 q 167 537 181 547 q 144 539 154 526 q 90 662 111 582 q 70 836 68 742 q 106 1000 72 931 q 301 1121 165 1121 q 379 1086 346 1121 q 425 992 413 1051 q 450 746 443 903 q 500 894 471 826 q 571 1029 533 975 q 713 1119 638 1119 m 603 1014 q 501 806 543 936 q 454 572 458 675 q 508 596 481 581 q 562 632 535 611 q 614 678 589 653 q 660 735 639 704 q 698 800 682 767 q 723 872 714 833 q 732 951 732 911 q 681 1068 732 1068 q 604 1017 646 1068 q 603 1014 603 1015 z "},"Q":{"ha":935,"x_min":69,"x_max":1149,"o":"m 1114 18 q 1137 17 1125 29 q 1138 -6 1149 6 q 1057 -44 1115 -28 q 911 -60 999 -60 q 636 -10 832 -60 q 483 21 513 21 q 246 -15 319 21 q 224 -7 232 -22 q 223 6 221 -1 q 232 15 225 13 q 399 51 296 46 q 308 146 347 83 q 218 575 218 290 q 241 778 218 667 q 315 961 264 890 q 349 982 326 978 q 390 975 372 986 q 401 915 422 956 q 325 551 325 767 q 399 167 325 313 q 459 81 426 108 q 515 53 492 53 q 651 144 594 53 q 669 178 663 160 q 678 194 675 188 q 747 626 747 351 q 738 771 747 701 q 708 906 729 840 q 655 1019 686 971 q 574 1095 624 1067 q 465 1124 525 1124 q 369 1106 426 1124 q 261 1049 313 1089 q 103 650 103 926 q 98 638 103 643 q 86 633 93 633 q 74 638 79 633 q 69 650 69 643 q 240 1075 69 942 q 342 1131 286 1111 q 424 1154 399 1151 q 465 1157 449 1157 q 612 1111 549 1157 q 711 988 675 1065 q 764 819 747 910 q 781 626 781 728 q 708 181 781 344 q 706 176 707 178 q 702 169 704 172 q 699 162 700 165 q 694 153 697 158 q 689 143 692 149 q 586 36 646 65 q 644 22 604 32 q 911 -28 836 -28 q 1047 -13 994 -28 q 1114 18 1099 1 z "},"R":{"ha":975,"x_min":68,"x_max":1024,"o":"m 989 407 q 1013 406 1001 418 q 1011 382 1024 393 q 974 324 992 365 q 946 251 956 283 q 919 156 936 218 q 892 60 901 92 q 865 -10 882 28 q 830 -64 849 -47 q 788 -81 811 -81 q 758 -73 772 -81 q 732 -48 744 -65 q 710 -15 719 -31 q 691 31 701 0 q 674 81 681 63 q 657 139 668 100 q 638 202 644 181 q 619 262 632 224 q 595 322 606 300 q 568 372 585 343 q 535 415 551 400 q 498 443 519 431 q 451 458 476 456 q 446 275 450 368 q 438 132 442 182 q 433 72 435 82 l 433 68 q 428 38 431 49 q 419 12 425 26 q 405 -10 414 -3 q 381 -17 396 -17 q 347 -1 360 -17 q 335 74 328 19 q 348 274 339 113 q 360 652 357 435 q 339 985 363 869 q 331 1013 336 1000 q 320 1035 326 1025 q 306 1051 314 1044 q 290 1062 299 1058 q 272 1065 282 1065 q 205 1049 236 1065 q 150 1000 174 1032 q 114 924 126 968 q 114 922 114 924 q 112 716 93 821 q 171 560 131 611 q 167 537 181 547 q 144 539 154 526 q 90 662 111 582 q 70 836 68 742 q 106 1000 72 931 q 301 1121 165 1121 q 379 1086 346 1121 q 425 992 413 1051 q 450 746 444 903 q 500 894 471 826 q 571 1029 533 975 q 713 1119 638 1119 q 766 1110 743 1119 q 803 1085 789 1101 q 826 1053 817 1069 q 840 1016 836 1036 q 846 983 844 996 q 847 957 847 969 q 740 704 847 828 q 497 544 633 581 q 562 516 532 536 q 613 473 592 496 q 655 413 635 450 q 688 349 675 376 q 714 274 700 321 q 734 203 728 228 q 753 131 740 178 q 766 74 761 93 q 779 26 771 54 q 796 -16 788 -1 q 813 -33 804 -31 q 888 164 843 -1 q 916 264 906 229 q 947 342 926 299 q 989 407 967 386 m 603 1014 q 501 806 543 936 q 454 572 458 675 q 508 596 481 581 q 562 632 535 611 q 614 678 589 653 q 660 735 639 704 q 698 800 682 767 q 723 872 714 833 q 732 951 732 911 q 681 1068 732 1068 q 604 1017 646 1068 q 603 1014 603 1015 z "},"S":{"ha":726,"x_min":65,"x_max":769,"o":"m 747 410 q 767 397 764 413 q 753 378 769 381 q 557 331 678 367 q 589 240 588 292 q 528 75 590 139 q 257 -15 440 -15 q 160 4 197 -15 q 113 56 124 22 l 111 57 q 111 57 111 57 q 107 89 107 72 q 390 308 107 199 q 438 325 414 317 q 311 403 404 353 q 238 444 263 429 q 178 485 213 458 q 126 538 144 511 q 69 686 74 599 q 102 848 65 763 q 207 1004 139 933 q 428 1121 318 1121 q 495 1108 465 1121 q 546 1069 525 1096 q 596 931 586 1022 q 582 703 606 839 q 563 690 579 688 q 550 708 547 693 q 563 926 572 838 q 563 928 563 926 q 529 1021 556 992 q 453 1050 503 1050 q 392 1034 428 1050 q 319 987 357 1018 q 248 914 281 956 q 194 815 215 872 q 172 697 172 757 q 184 626 172 660 q 219 565 196 593 q 265 515 243 536 q 324 472 288 494 q 382 438 360 450 q 442 408 404 426 q 508 374 482 392 q 510 374 508 374 q 522 364 517 368 q 532 357 526 361 q 747 410 671 399 m 464 300 q 233 195 325 250 q 140 89 140 140 q 143 68 140 78 q 167 42 149 53 q 211 27 186 32 q 263 22 236 22 l 264 22 q 422 83 350 22 q 494 228 494 144 q 464 300 494 265 z "},"T":{"ha":692,"x_min":54,"x_max":1246,"o":"m 1213 1067 q 1235 1065 1225 1078 q 1233 1042 1246 1051 q 1142 999 1199 1013 q 1002 985 1086 985 q 863 988 918 985 q 708 1001 807 992 q 574 1011 615 1010 q 493 727 528 892 q 458 418 458 563 q 478 218 458 307 q 521 90 499 129 q 560 51 543 51 q 581 78 568 53 q 606 142 594 104 q 633 240 617 175 q 665 350 653 315 q 692 400 676 385 q 716 400 704 411 q 715 376 728 389 q 665 232 699 360 q 644 154 651 181 q 639 138 642 146 q 611 58 625 90 q 576 5 597 26 q 529 -17 554 -17 q 411 103 463 -17 q 360 418 360 224 q 474 1011 360 681 q 197 883 300 994 q 104 589 89 763 q 101 576 106 582 q 89 571 96 571 q 88 571 89 571 q 71 586 74 571 q 174 906 54 774 q 486 1044 289 1032 q 510 1107 499 1081 q 556 1139 522 1136 q 601 1121 586 1142 q 603 1078 614 1101 q 588 1044 594 1063 q 713 1033 624 1042 q 829 1024 788 1026 q 941 1018 871 1021 q 1054 1019 1011 1015 q 1142 1035 1097 1024 q 1213 1067 1188 1046 z "},"U":{"ha":1076,"x_min":65,"x_max":1121,"o":"m 1085 400 q 1106 410 1090 415 q 1117 389 1121 404 q 1014 139 1067 244 q 879 -17 938 -17 q 822 10 847 -17 q 775 119 792 43 q 756 308 758 194 q 756 528 753 422 q 768 776 758 633 q 685 393 725 547 q 667 325 676 357 q 578 65 621 146 q 485 -17 535 -17 q 406 17 436 -17 q 358 122 372 50 q 347 281 344 193 q 353 476 349 369 q 358 688 358 618 q 352 856 358 785 q 332 973 346 926 q 298 1042 318 1019 q 249 1065 278 1065 q 133 981 192 1065 q 107 748 92 875 q 171 560 122 621 q 167 537 181 547 q 144 539 154 526 q 101 626 119 571 q 74 743 83 681 q 72 874 65 806 q 104 996 79 943 q 106 1000 104 997 q 301 1121 165 1121 q 380 1082 346 1121 q 425 992 414 1043 q 448 754 444 901 q 446 479 451 607 q 443 229 442 307 q 461 106 444 151 q 499 60 478 60 q 513 65 506 60 q 535 86 521 69 q 563 131 549 103 q 596 211 576 158 q 635 333 615 264 q 653 401 644 367 q 768 965 703 594 q 789 1075 783 1051 l 789 1076 q 838 1121 797 1121 q 865 1110 854 1121 q 878 1058 881 1093 q 876 1042 878 1056 q 844 366 839 628 q 894 54 849 104 q 910 46 901 46 q 911 46 911 46 q 950 90 924 46 q 965 118 958 106 q 1000 188 979 142 l 1006 199 q 1085 400 1047 289 z "},"Ù":{"ha":1076,"x_min":65,"x_max":1121,"o":"m 1085 400 q 1106 410 1090 415 q 1117 389 1121 404 q 1014 139 1067 244 q 879 -17 938 -17 q 822 10 847 -17 q 775 119 792 43 q 756 308 758 194 q 756 528 753 422 q 768 776 758 633 q 685 393 725 547 q 667 325 676 357 q 578 65 621 146 q 485 -17 535 -17 q 406 17 436 -17 q 358 122 372 50 q 347 281 344 193 q 353 476 349 369 q 358 688 358 618 q 352 856 358 785 q 332 973 346 926 q 298 1042 318 1019 q 249 1065 278 1065 q 133 981 192 1065 q 107 748 92 875 q 171 560 122 621 q 167 537 181 547 q 144 539 154 526 q 101 626 119 571 q 74 743 83 681 q 72 874 65 806 q 104 996 79 943 q 106 1000 104 997 q 301 1121 165 1121 q 380 1082 346 1121 q 425 992 414 1043 q 448 754 444 901 q 446 479 451 607 q 443 229 442 307 q 461 106 444 151 q 499 60 478 60 q 513 65 506 60 q 535 86 521 69 q 563 131 549 103 q 596 211 576 158 q 635 333 615 264 q 653 401 644 367 q 768 965 703 594 q 789 1075 783 1051 l 789 1076 q 838 1121 797 1121 q 865 1110 854 1121 q 878 1058 881 1093 q 876 1042 878 1056 q 844 366 839 628 q 894 54 849 104 q 910 46 901 46 q 911 46 911 46 q 950 90 924 46 q 965 118 958 106 q 1000 188 979 142 l 1006 199 q 1085 400 1047 289 z "},"Ú":{"ha":1076,"x_min":65,"x_max":1121,"o":"m 1085 400 q 1106 410 1090 415 q 1117 389 1121 404 q 1014 139 1067 244 q 879 -17 938 -17 q 822 10 847 -17 q 775 119 792 43 q 756 308 758 194 q 756 528 753 422 q 768 776 758 633 q 685 393 725 547 q 667 325 676 357 q 578 65 621 146 q 485 -17 535 -17 q 406 17 436 -17 q 358 122 372 50 q 347 281 344 193 q 353 476 349 369 q 358 688 358 618 q 352 856 358 785 q 332 973 346 926 q 298 1042 318 1019 q 249 1065 278 1065 q 133 981 192 1065 q 107 748 92 875 q 171 560 122 621 q 167 537 181 547 q 144 539 154 526 q 101 626 119 571 q 74 743 83 681 q 72 874 65 806 q 104 996 79 943 q 106 1000 104 997 q 301 1121 165 1121 q 380 1082 346 1121 q 425 992 414 1043 q 448 754 444 901 q 446 479 451 607 q 443 229 442 307 q 461 106 444 151 q 499 60 478 60 q 513 65 506 60 q 535 86 521 69 q 563 131 549 103 q 596 211 576 158 q 635 333 615 264 q 653 401 644 367 q 768 965 703 594 q 789 1075 783 1051 l 789 1076 q 838 1121 797 1121 q 865 1110 854 1121 q 878 1058 881 1093 q 876 1042 878 1056 q 844 366 839 628 q 894 54 849 104 q 910 46 901 46 q 911 46 911 46 q 950 90 924 46 q 965 118 958 106 q 1000 188 979 142 l 1006 199 q 1085 400 1047 289 z "},"Û":{"ha":1076,"x_min":65,"x_max":1121,"o":"m 1085 400 q 1106 410 1090 415 q 1117 389 1121 404 q 1014 139 1067 244 q 879 -17 938 -17 q 822 10 847 -17 q 775 119 792 43 q 756 308 758 194 q 756 528 753 422 q 768 776 758 633 q 685 393 725 547 q 667 325 676 357 q 578 65 621 146 q 485 -17 535 -17 q 406 17 436 -17 q 358 122 372 50 q 347 281 344 193 q 353 476 349 369 q 358 688 358 618 q 352 856 358 785 q 332 973 346 926 q 298 1042 318 1019 q 249 1065 278 1065 q 133 981 192 1065 q 107 748 92 875 q 171 560 122 621 q 167 537 181 547 q 144 539 154 526 q 101 626 119 571 q 74 743 83 681 q 72 874 65 806 q 104 996 79 943 q 106 1000 104 997 q 301 1121 165 1121 q 380 1082 346 1121 q 425 992 414 1043 q 448 754 444 901 q 446 479 451 607 q 443 229 442 307 q 461 106 444 151 q 499 60 478 60 q 513 65 506 60 q 535 86 521 69 q 563 131 549 103 q 596 211 576 158 q 635 333 615 264 q 653 401 644 367 q 768 965 703 594 q 789 1075 783 1051 l 789 1076 q 838 1121 797 1121 q 865 1110 854 1121 q 878 1058 881 1093 q 876 1042 878 1056 q 844 366 839 628 q 894 54 849 104 q 910 46 901 46 q 911 46 911 46 q 950 90 924 46 q 965 118 958 106 q 1000 188 979 142 l 1006 199 q 1085 400 1047 289 z "},"Ü":{"ha":1076,"x_min":65,"x_max":1121,"o":"m 1085 400 q 1106 410 1090 415 q 1117 389 1121 404 q 1014 139 1067 244 q 879 -17 938 -17 q 822 10 847 -17 q 775 119 792 43 q 756 308 758 194 q 756 528 753 422 q 768 776 758 633 q 685 393 725 547 q 667 325 676 357 q 578 65 621 146 q 485 -17 535 -17 q 406 17 436 -17 q 358 122 372 50 q 347 281 344 193 q 353 476 349 369 q 358 688 358 618 q 352 856 358 785 q 332 973 346 926 q 298 1042 318 1019 q 249 1065 278 1065 q 133 981 192 1065 q 107 748 92 875 q 171 560 122 621 q 167 537 181 547 q 144 539 154 526 q 101 626 119 571 q 74 743 83 681 q 72 874 65 806 q 104 996 79 943 q 106 1000 104 997 q 301 1121 165 1121 q 380 1082 346 1121 q 425 992 414 1043 q 448 754 444 901 q 446 479 451 607 q 443 229 442 307 q 461 106 444 151 q 499 60 478 60 q 513 65 506 60 q 535 86 521 69 q 563 131 549 103 q 596 211 576 158 q 635 333 615 264 q 653 401 644 367 q 768 965 703 594 q 789 1075 783 1051 l 789 1076 q 838 1121 797 1121 q 865 1110 854 1121 q 878 1058 881 1093 q 876 1042 878 1056 q 844 366 839 628 q 894 54 849 104 q 910 46 901 46 q 911 46 911 46 q 950 90 924 46 q 965 118 958 106 q 1000 188 979 142 l 1006 199 q 1085 400 1047 289 z "},"V":{"ha":910,"x_min":68,"x_max":1046,"o":"m 1015 1179 q 1038 1174 1031 1188 q 1032 1151 1046 1160 q 978 1101 1004 1135 q 933 1031 953 1068 q 892 933 913 993 q 858 826 871 872 q 827 704 844 781 q 801 585 810 628 q 776 464 792 543 q 744 308 757 364 q 744 307 744 307 q 736 269 740 285 q 732 256 735 264 q 731 250 732 253 q 729 240 731 249 q 726 231 728 238 q 724 222 726 228 q 722 213 722 217 q 722 208 722 211 q 719 204 721 206 q 583 -17 663 -17 q 542 -1 561 -17 q 506 53 522 14 q 479 126 490 92 q 456 230 468 160 q 435 344 443 300 q 415 479 428 389 l 415 481 q 396 610 403 560 q 388 658 392 636 q 372 763 378 728 q 355 855 365 797 q 335 942 344 913 q 312 1005 325 972 q 283 1051 299 1038 q 249 1065 268 1065 q 133 981 192 1065 q 107 747 92 874 q 171 560 122 621 q 167 537 181 547 q 144 539 154 526 q 90 660 111 582 q 69 832 68 738 q 104 996 71 926 q 106 1000 104 997 q 301 1121 165 1121 q 378 1083 344 1121 q 425 993 413 1044 q 503 539 456 863 q 558 199 539 288 q 567 158 563 176 q 576 128 572 140 q 585 105 581 115 q 592 88 589 94 q 598 76 594 81 q 603 69 601 71 q 608 65 606 67 q 610 63 610 64 q 613 63 611 63 q 678 176 643 63 q 679 183 678 179 q 681 186 681 185 q 710 306 694 233 q 711 310 711 307 q 713 314 711 313 q 744 471 722 360 q 770 600 761 556 q 797 724 779 644 q 829 849 815 803 q 865 956 843 894 q 908 1056 886 1018 q 957 1128 929 1093 q 1015 1179 985 1163 z "},"W":{"ha":1392,"x_min":68,"x_max":1529,"o":"m 1515 1142 q 1461 1093 1488 1126 q 1415 1022 1435 1060 q 1375 924 1396 985 q 1341 817 1354 863 q 1310 696 1328 772 q 1284 577 1293 619 q 1260 456 1275 535 q 1228 300 1240 356 q 1228 297 1228 299 q 1198 180 1211 228 q 1165 80 1185 132 q 1121 1 1146 28 q 1067 -25 1096 -25 q 1027 -7 1046 -25 q 993 52 1008 11 q 965 140 978 93 q 940 263 953 186 q 918 410 928 340 q 894 583 908 479 l 892 607 q 853 867 871 772 q 851 875 853 868 q 847 899 849 889 q 842 883 844 892 q 839 879 840 881 q 836 871 838 875 q 822 822 829 847 q 757 485 799 731 q 726 317 738 374 q 726 315 726 317 q 726 315 726 315 q 726 313 726 314 q 707 217 715 258 q 686 130 696 165 q 662 58 676 94 q 628 2 647 21 q 583 -17 608 -17 q 542 -1 561 -17 q 506 53 522 14 q 479 126 490 92 q 456 230 468 160 q 435 344 443 300 q 415 481 428 389 q 396 610 401 571 q 393 625 394 617 q 390 642 392 633 q 388 658 389 651 q 371 763 376 728 q 355 855 365 797 q 335 942 344 913 q 312 1005 325 972 q 283 1051 299 1038 q 249 1065 268 1065 q 133 981 192 1065 q 107 748 92 875 q 171 560 122 621 q 167 537 181 547 q 144 539 154 526 q 90 660 111 582 q 69 833 68 739 q 104 996 71 926 q 106 1000 106 999 q 301 1121 165 1121 q 378 1083 344 1121 q 425 993 413 1044 q 503 539 456 863 q 558 199 539 288 q 585 106 571 139 q 603 67 599 72 q 612 63 608 63 q 620 67 615 63 q 638 102 625 71 q 665 188 651 133 q 672 215 668 200 l 672 217 q 682 263 676 235 q 693 319 690 303 q 724 490 704 374 q 760 694 746 621 q 793 838 774 767 q 831 946 813 910 q 890 996 857 996 q 893 996 890 996 l 893 996 q 945 905 925 994 q 1001 540 965 815 q 1049 211 1031 304 q 1096 54 1075 67 q 1161 168 1126 56 q 1162 170 1161 168 q 1163 172 1163 172 q 1163 174 1163 174 q 1163 175 1163 175 q 1193 297 1176 224 q 1194 301 1193 299 q 1194 304 1194 304 l 1194 306 q 1226 461 1206 354 q 1253 590 1244 546 q 1281 714 1263 635 q 1313 840 1299 793 q 1348 948 1326 886 q 1391 1047 1369 1010 q 1440 1119 1413 1085 q 1499 1171 1468 1154 q 1521 1165 1513 1179 q 1515 1142 1529 1150 z "},"X":{"ha":957,"x_min":57,"x_max":1004,"o":"m 967 401 q 989 409 974 417 q 997 386 1004 401 q 914 222 947 285 q 911 218 913 221 q 910 214 910 215 q 719 -17 786 -17 q 710 -16 714 -17 q 696 -11 706 -15 q 676 1 686 -7 q 653 25 667 8 q 624 65 639 42 q 591 124 610 88 q 553 206 572 160 q 476 406 515 293 q 276 -7 326 101 q 261 -17 272 -17 q 254 -15 257 -17 q 246 7 239 -8 q 463 451 301 128 q 406 647 432 547 q 372 789 393 694 q 355 864 361 839 q 338 928 349 889 q 319 986 328 967 q 299 1027 311 1006 q 275 1057 288 1049 q 247 1065 263 1065 q 185 1048 214 1065 q 131 979 157 1031 q 107 747 92 875 q 168 560 122 619 q 166 537 179 547 q 142 539 153 526 q 74 739 92 604 q 100 990 57 874 q 100 992 100 990 q 101 993 101 993 q 107 1006 103 999 q 286 1121 163 1121 q 369 1082 329 1121 q 422 993 410 1043 q 531 588 472 786 q 807 1114 742 1008 q 831 1119 817 1128 q 836 1096 844 1110 q 544 540 768 990 q 590 394 567 464 q 633 274 613 328 q 667 188 653 221 q 695 129 682 154 q 717 92 708 104 q 733 72 726 79 q 743 64 740 65 q 747 63 746 63 q 879 229 789 63 q 885 238 885 238 q 885 239 885 239 q 967 401 915 296 z "},"Y":{"ha":1022,"x_min":68,"x_max":1065,"o":"m 1044 410 q 1063 397 1061 413 q 1050 378 1065 381 q 833 339 933 360 q 735 69 800 168 q 425 -86 632 -86 q 406 -86 413 -86 q 401 -86 403 -86 q 396 -86 399 -86 q 335 -72 360 -83 q 279 29 279 -46 q 465 256 279 161 q 732 350 569 308 q 765 647 757 475 q 775 942 769 739 q 682 696 733 810 q 653 633 667 663 q 651 632 653 633 q 650 629 650 631 q 617 569 636 601 q 565 490 599 538 q 493 411 532 442 q 419 381 454 381 q 353 408 379 381 q 324 460 333 428 q 313 544 314 493 q 313 632 311 596 q 319 738 314 668 q 327 923 331 831 q 294 1047 324 1015 q 249 1065 278 1065 q 133 981 192 1065 q 107 748 92 875 q 171 560 122 621 q 167 537 181 547 q 144 539 154 526 q 90 660 111 582 q 69 833 68 739 q 104 996 71 926 q 106 1000 106 997 q 301 1121 165 1121 q 378 1082 346 1121 q 419 992 411 1043 q 417 732 432 919 q 408 572 407 651 q 431 469 408 493 q 454 460 439 460 q 624 651 528 460 q 625 652 625 651 q 625 653 625 653 q 651 710 639 681 q 731 913 697 808 q 778 1075 765 1017 q 779 1081 778 1078 q 797 1110 783 1099 q 826 1121 810 1121 q 861 1107 846 1121 q 879 1067 876 1093 q 869 729 882 1022 q 867 658 867 676 q 839 374 860 497 q 1044 410 935 394 m 404 -53 q 606 44 528 -46 q 725 314 685 133 q 481 226 576 275 q 313 29 313 142 q 350 -42 313 -25 q 404 -53 369 -51 z "},"Ý":{"ha":1022,"x_min":68,"x_max":1065,"o":"m 1044 410 q 1063 397 1061 413 q 1050 378 1065 381 q 833 339 933 360 q 735 69 800 168 q 425 -86 632 -86 q 406 -86 413 -86 q 401 -86 403 -86 q 396 -86 399 -86 q 335 -72 360 -83 q 279 29 279 -46 q 465 256 279 161 q 732 350 569 308 q 765 647 757 475 q 775 942 769 739 q 682 696 733 810 q 653 633 667 663 q 651 632 653 633 q 650 629 650 631 q 617 569 636 601 q 565 490 599 538 q 493 411 532 442 q 419 381 454 381 q 353 408 379 381 q 324 460 333 428 q 313 544 314 493 q 313 632 311 596 q 319 738 314 668 q 327 923 331 831 q 294 1047 324 1015 q 249 1065 278 1065 q 133 981 192 1065 q 107 748 92 875 q 171 560 122 621 q 167 537 181 547 q 144 539 154 526 q 90 660 111 582 q 69 833 68 739 q 104 996 71 926 q 106 1000 106 997 q 301 1121 165 1121 q 378 1082 346 1121 q 419 992 411 1043 q 417 732 432 919 q 408 572 407 651 q 431 469 408 493 q 454 460 439 460 q 624 651 528 460 q 625 652 625 651 q 625 653 625 653 q 651 710 639 681 q 731 913 697 808 q 778 1075 765 1017 q 779 1081 778 1078 q 797 1110 783 1099 q 826 1121 810 1121 q 861 1107 846 1121 q 879 1067 876 1093 q 869 729 882 1022 q 867 658 867 676 q 839 374 860 497 q 1044 410 935 394 m 404 -53 q 606 44 528 -46 q 725 314 685 133 q 481 226 576 275 q 313 29 313 142 q 350 -42 313 -25 q 404 -53 369 -51 z "},"Ÿ":{"ha":1022,"x_min":68,"x_max":1065,"o":"m 1044 410 q 1063 397 1061 413 q 1050 378 1065 381 q 833 339 933 360 q 735 69 800 168 q 425 -86 632 -86 q 406 -86 413 -86 q 401 -86 403 -86 q 396 -86 399 -86 q 335 -72 360 -83 q 279 29 279 -46 q 465 256 279 161 q 732 350 569 308 q 765 647 757 475 q 775 942 769 739 q 682 696 733 810 q 653 633 667 663 q 651 632 653 633 q 650 629 650 631 q 617 569 636 601 q 565 490 599 538 q 493 411 532 442 q 419 381 454 381 q 353 408 379 381 q 324 460 333 428 q 313 544 314 493 q 313 632 311 596 q 319 738 314 668 q 327 923 331 831 q 294 1047 324 1015 q 249 1065 278 1065 q 133 981 192 1065 q 107 748 92 875 q 171 560 122 621 q 167 537 181 547 q 144 539 154 526 q 90 660 111 582 q 69 833 68 739 q 104 996 71 926 q 106 1000 106 997 q 301 1121 165 1121 q 378 1082 346 1121 q 419 992 411 1043 q 417 732 432 919 q 408 572 407 651 q 431 469 408 493 q 454 460 439 460 q 624 651 528 460 q 625 652 625 651 q 625 653 625 653 q 651 710 639 681 q 731 913 697 808 q 778 1075 765 1017 q 779 1081 778 1078 q 797 1110 783 1099 q 826 1121 810 1121 q 861 1107 846 1121 q 879 1067 876 1093 q 869 729 882 1022 q 867 658 867 676 q 839 374 860 497 q 1044 410 935 394 m 404 -53 q 606 44 528 -46 q 725 314 685 133 q 481 226 576 275 q 313 29 313 142 q 350 -42 313 -25 q 404 -53 369 -51 z "},"Z":{"ha":942,"x_min":68,"x_max":996,"o":"m 958 404 q 981 411 967 419 q 988 389 996 403 q 926 282 953 325 q 860 193 899 239 q 780 123 822 147 q 692 99 738 99 q 586 110 639 99 q 503 134 533 122 q 422 169 474 146 q 365 194 383 188 q 183 99 275 99 q 76 140 100 99 q 69 174 68 156 q 69 176 69 175 q 71 177 71 176 q 71 178 71 178 q 79 201 72 190 q 130 246 96 229 q 206 263 164 263 l 207 263 q 296 251 251 263 q 399 397 342 306 q 492 553 456 488 q 590 735 528 618 q 785 1069 729 993 q 659 1048 707 1054 q 536 1037 611 1042 q 400 1046 461 1032 q 292 1090 339 1060 q 287 1114 278 1100 q 310 1118 296 1128 q 411 1077 354 1089 q 540 1070 468 1065 q 658 1081 613 1075 q 781 1101 704 1088 q 822 1110 813 1108 l 824 1110 q 914 1121 886 1121 q 929 1112 925 1121 q 928 1094 933 1103 q 812 926 872 1022 q 717 769 751 831 q 624 600 683 708 q 539 449 568 500 q 467 331 510 397 q 388 221 424 264 q 436 200 406 214 q 513 166 485 178 q 592 143 542 154 q 692 132 642 132 q 753 147 722 132 q 808 187 783 163 q 861 249 833 211 q 910 322 889 286 q 958 404 932 357 m 108 185 q 104 176 106 181 q 156 154 121 154 q 271 224 206 154 q 206 229 239 229 q 144 216 171 229 q 108 185 118 203 z "},"[":{"ha":407,"x_min":69,"x_max":338,"o":"m 321 40 q 330 38 326 40 q 335 31 333 35 q 338 24 338 28 q 333 12 338 17 q 321 7 328 7 q 181 6 276 6 q 126 6 150 6 q 111 3 119 3 q 92 8 101 3 q 90 10 92 10 l 89 11 q 69 63 69 26 q 69 124 69 90 q 72 470 69 254 q 76 842 74 686 q 78 1015 78 999 q 128 1104 81 1104 l 321 1104 q 333 1099 328 1104 q 338 1088 338 1094 q 333 1076 338 1081 q 321 1071 328 1071 l 171 1071 q 178 1017 176 1054 q 156 63 179 950 q 153 39 156 50 q 321 40 299 39 z "},"\\":{"ha":611,"x_min":51,"x_max":542,"o":"m 536 65 q 542 33 542 49 q 519 -7 542 1 q 510 -8 515 -8 q 463 39 481 -8 q 247 578 421 144 q 83 994 90 975 q 94 1094 51 1079 q 172 1019 135 1110 q 247 824 179 1001 q 404 414 315 646 q 536 65 493 182 z "},"]":{"ha":407,"x_min":69,"x_max":339,"o":"m 329 1015 q 333 819 331 996 q 337 410 335 642 q 338 63 339 179 q 318 11 338 26 q 315 8 317 10 q 296 3 306 3 q 281 6 288 3 q 226 6 257 6 q 86 7 132 6 q 74 12 79 7 q 69 24 69 17 q 74 35 69 31 q 86 40 79 40 q 254 39 108 39 q 251 63 251 50 q 231 1017 229 949 q 236 1071 231 1054 l 86 1071 q 74 1076 79 1071 q 69 1088 69 1081 q 74 1099 69 1094 q 86 1104 79 1104 l 281 1104 q 329 1015 326 1104 z "},"^":{"ha":517,"x_min":69,"x_max":447,"o":"m 447 822 q 447 818 447 819 q 447 814 447 817 q 447 811 447 813 q 446 810 446 811 q 444 807 446 808 q 442 805 443 806 q 441 804 442 804 q 440 803 440 804 q 439 803 439 803 l 439 801 q 436 801 438 801 q 433 800 435 800 q 431 800 432 800 l 431 800 q 429 800 429 800 l 428 800 q 426 801 426 801 q 425 801 426 801 q 424 803 424 801 q 422 803 422 803 l 421 804 q 419 806 421 804 q 418 807 418 807 q 357 885 403 825 q 274 989 292 968 q 97 817 190 911 l 97 815 q 96 815 97 815 l 96 814 q 88 811 92 813 q 86 811 86 811 q 85 811 85 811 q 83 811 83 811 q 81 813 82 811 q 78 813 79 813 q 77 813 78 813 q 75 815 76 814 q 75 817 75 815 l 74 817 q 74 818 74 817 q 72 818 74 818 q 69 828 69 822 q 69 831 69 829 q 71 833 69 832 q 72 836 71 835 q 176 999 108 900 q 265 1115 244 1097 q 276 1119 269 1119 q 289 1114 283 1118 q 370 981 308 1090 q 447 822 432 872 z "},"_":{"ha":581,"x_min":69,"x_max":511,"o":"m 479 88 q 502 74 493 86 q 511 43 511 61 q 507 21 511 31 q 495 6 503 11 q 478 1 488 1 q 454 1 464 1 q 377 2 422 1 q 289 3 332 3 q 207 6 246 4 q 142 8 168 7 q 113 10 117 8 q 69 58 69 14 q 113 108 69 107 l 114 108 q 479 88 157 108 z "},"`":{"ha":301,"x_min":68,"x_max":236,"o":"m 229 956 q 224 933 236 942 q 204 929 217 929 q 168 940 178 929 q 139 979 157 956 q 108 1022 124 1000 q 74 1074 79 1063 q 71 1092 68 1085 q 119 1114 76 1114 q 167 1096 156 1114 q 208 1007 179 1075 q 229 956 224 969 z "},"a":{"ha":588,"x_min":-35,"x_max":635,"o":"m 597 403 q 620 408 606 417 q 626 386 635 400 l 617 369 q 501 192 546 249 q 500 189 500 190 l 497 188 q 497 187 497 188 q 496 186 497 186 q 372 100 426 100 q 292 142 322 100 q 254 271 261 185 q 228 213 242 239 q 83 100 167 100 q 1 140 36 100 q -35 265 -35 181 q 41 472 -35 378 q 194 567 117 567 q 278 540 249 567 q 283 536 281 539 q 285 536 283 536 q 299 556 288 549 q 324 565 311 564 q 350 564 338 567 q 380 542 369 558 q 383 501 390 525 q 361 385 369 447 q 357 261 353 322 q 382 174 361 200 q 419 157 397 156 q 472 208 432 161 l 474 211 l 475 211 q 588 386 518 265 l 597 403 m 256 371 q 272 494 260 436 q 267 504 269 500 q 257 515 263 510 q 228 517 246 521 q 122 424 174 501 q 69 254 69 347 q 84 178 69 206 q 114 151 99 151 q 158 174 135 151 q 199 229 182 197 q 199 231 199 229 q 253 363 224 275 q 253 367 253 364 q 256 371 254 369 z "},"à":{"ha":588,"x_min":-35,"x_max":635,"o":"m 597 403 q 620 408 606 417 q 626 386 635 400 l 617 369 q 501 192 546 249 q 500 189 500 190 l 497 188 q 497 187 497 188 q 496 186 497 186 q 372 100 426 100 q 292 142 322 100 q 254 271 261 185 q 228 213 242 239 q 83 100 167 100 q 1 140 36 100 q -35 265 -35 181 q 41 472 -35 378 q 194 567 117 567 q 278 540 249 567 q 283 536 281 539 q 285 536 283 536 q 299 556 288 549 q 324 565 311 564 q 350 564 338 567 q 380 542 369 558 q 383 501 390 525 q 361 385 369 447 q 357 261 353 322 q 382 174 361 200 q 419 157 397 156 q 472 208 432 161 l 474 211 l 475 211 q 588 386 518 265 l 597 403 m 256 371 q 272 494 260 436 q 267 504 269 500 q 257 515 263 510 q 228 517 246 521 q 122 424 174 501 q 69 254 69 347 q 84 178 69 206 q 114 151 99 151 q 158 174 135 151 q 199 229 182 197 q 199 231 199 229 q 253 363 224 275 q 253 367 253 364 q 256 371 254 369 z "},"á":{"ha":588,"x_min":-35,"x_max":635,"o":"m 597 403 q 620 408 606 417 q 626 386 635 400 l 617 369 q 501 192 546 249 q 500 189 500 190 l 497 188 q 497 187 497 188 q 496 186 497 186 q 372 100 426 100 q 292 142 322 100 q 254 271 261 185 q 228 213 242 239 q 83 100 167 100 q 1 140 36 100 q -35 265 -35 181 q 41 472 -35 378 q 194 567 117 567 q 278 540 249 567 q 283 536 281 539 q 285 536 283 536 q 299 556 288 549 q 324 565 311 564 q 350 564 338 567 q 380 542 369 558 q 383 501 390 525 q 361 385 369 447 q 357 261 353 322 q 382 174 361 200 q 419 157 397 156 q 472 208 432 161 l 474 211 l 475 211 q 588 386 518 265 l 597 403 m 256 371 q 272 494 260 436 q 267 504 269 500 q 257 515 263 510 q 228 517 246 521 q 122 424 174 501 q 69 254 69 347 q 84 178 69 206 q 114 151 99 151 q 158 174 135 151 q 199 229 182 197 q 199 231 199 229 q 253 363 224 275 q 253 367 253 364 q 256 371 254 369 z "},"â":{"ha":588,"x_min":-35,"x_max":635,"o":"m 597 403 q 620 408 606 417 q 626 386 635 400 l 617 369 q 501 192 546 249 q 500 189 500 190 l 497 188 q 497 187 497 188 q 496 186 497 186 q 372 100 426 100 q 292 142 322 100 q 254 271 261 185 q 228 213 242 239 q 83 100 167 100 q 1 140 36 100 q -35 265 -35 181 q 41 472 -35 378 q 194 567 117 567 q 278 540 249 567 q 283 536 281 539 q 285 536 283 536 q 299 556 288 549 q 324 565 311 564 q 350 564 338 567 q 380 542 369 558 q 383 501 390 525 q 361 385 369 447 q 357 261 353 322 q 382 174 361 200 q 419 157 397 156 q 472 208 432 161 l 474 211 l 475 211 q 588 386 518 265 l 597 403 m 256 371 q 272 494 260 436 q 267 504 269 500 q 257 515 263 510 q 228 517 246 521 q 122 424 174 501 q 69 254 69 347 q 84 178 69 206 q 114 151 99 151 q 158 174 135 151 q 199 229 182 197 q 199 231 199 229 q 253 363 224 275 q 253 367 253 364 q 256 371 254 369 z "},"ã":{"ha":588,"x_min":-35,"x_max":635,"o":"m 597 403 q 620 408 606 417 q 626 386 635 400 l 617 369 q 501 192 546 249 q 500 189 500 190 l 497 188 q 497 187 497 188 q 496 186 497 186 q 372 100 426 100 q 292 142 322 100 q 254 271 261 185 q 228 213 242 239 q 83 100 167 100 q 1 140 36 100 q -35 265 -35 181 q 41 472 -35 378 q 194 567 117 567 q 278 540 249 567 q 283 536 281 539 q 285 536 283 536 q 299 556 288 549 q 324 565 311 564 q 350 564 338 567 q 380 542 369 558 q 383 501 390 525 q 361 385 369 447 q 357 261 353 322 q 382 174 361 200 q 419 157 397 156 q 472 208 432 161 l 474 211 l 475 211 q 588 386 518 265 l 597 403 m 256 371 q 272 494 260 436 q 267 504 269 500 q 257 515 263 510 q 228 517 246 521 q 122 424 174 501 q 69 254 69 347 q 84 178 69 206 q 114 151 99 151 q 158 174 135 151 q 199 229 182 197 q 199 231 199 229 q 253 363 224 275 q 253 367 253 364 q 256 371 254 369 z "},"ä":{"ha":588,"x_min":-35,"x_max":635,"o":"m 597 403 q 620 408 606 417 q 626 386 635 400 l 617 369 q 501 192 546 249 q 500 189 500 190 l 497 188 q 497 187 497 188 q 496 186 497 186 q 372 100 426 100 q 292 142 322 100 q 254 271 261 185 q 228 213 242 239 q 83 100 167 100 q 1 140 36 100 q -35 265 -35 181 q 41 472 -35 378 q 194 567 117 567 q 278 540 249 567 q 283 536 281 539 q 285 536 283 536 q 299 556 288 549 q 324 565 311 564 q 350 564 338 567 q 380 542 369 558 q 383 501 390 525 q 361 385 369 447 q 357 261 353 322 q 382 174 361 200 q 419 157 397 156 q 472 208 432 161 l 474 211 l 475 211 q 588 386 518 265 l 597 403 m 256 371 q 272 494 260 436 q 267 504 269 500 q 257 515 263 510 q 228 517 246 521 q 122 424 174 501 q 69 254 69 347 q 84 178 69 206 q 114 151 99 151 q 158 174 135 151 q 199 229 182 197 q 199 231 199 229 q 253 363 224 275 q 253 367 253 364 q 256 371 254 369 z "},"å":{"ha":588,"x_min":-35,"x_max":635,"o":"m 597 403 q 620 408 606 417 q 626 386 635 400 l 617 369 q 501 192 546 249 q 500 189 500 190 l 497 188 q 497 187 497 188 q 496 186 497 186 q 372 100 426 100 q 292 142 322 100 q 254 271 261 185 q 228 213 242 239 q 83 100 167 100 q 1 140 36 100 q -35 265 -35 181 q 41 472 -35 378 q 194 567 117 567 q 278 540 249 567 q 283 536 281 539 q 285 536 283 536 q 299 556 288 549 q 324 565 311 564 q 350 564 338 567 q 380 542 369 558 q 383 501 390 525 q 361 385 369 447 q 357 261 353 322 q 382 174 361 200 q 419 157 397 156 q 472 208 432 161 l 474 211 l 475 211 q 588 386 518 265 l 597 403 m 256 371 q 272 494 260 436 q 267 504 269 500 q 257 515 263 510 q 228 517 246 521 q 122 424 174 501 q 69 254 69 347 q 84 178 69 206 q 114 151 99 151 q 158 174 135 151 q 199 229 182 197 q 199 231 199 229 q 253 363 224 275 q 253 367 253 364 q 256 371 254 369 z "},"b":{"ha":632,"x_min":-24,"x_max":681,"o":"m 643 404 q 667 407 653 417 q 671 385 681 397 q 597 317 643 347 q 518 275 551 288 q 421 242 485 263 q 417 240 419 242 q 372 135 399 182 q 281 22 333 61 q 171 -17 229 -17 q 139 -7 153 -17 q 138 -6 139 -7 q 122 11 128 1 q 128 89 103 44 q 317 240 182 186 q 342 394 342 326 q 306 494 342 494 q 280 481 293 494 q 243 432 267 467 q 121 146 172 315 q 108 117 121 131 q 72 100 92 100 l 71 100 q 28 144 38 100 q 17 647 -24 376 q 160 1047 57 918 q 289 1121 219 1121 q 374 1053 356 1121 q 379 990 381 1026 q 371 926 378 957 q 286 683 350 819 q 96 406 193 488 q 111 221 97 324 q 215 451 163 363 q 347 567 285 567 q 422 517 397 567 q 443 406 443 475 q 428 279 443 346 q 559 332 508 306 q 643 404 610 358 m 322 1067 q 251 1011 290 1067 q 180 870 213 956 q 124 672 147 785 q 97 451 100 558 q 256 699 179 536 q 338 929 317 826 q 338 932 338 931 q 338 934 338 933 q 339 935 339 935 q 346 988 344 963 q 332 1061 347 1042 q 322 1067 328 1067 m 154 24 q 238 78 200 29 q 303 199 276 126 q 157 74 200 151 q 151 28 140 44 q 154 24 151 26 z "},"c":{"ha":451,"x_min":-35,"x_max":499,"o":"m 461 403 q 485 408 471 417 q 490 385 499 399 q 460 338 482 372 q 399 240 422 276 q 333 145 375 203 q 253 50 292 88 q 179 -4 214 13 q 174 -7 176 -6 q 129 -17 150 -17 q 72 -6 99 -17 q 20 33 46 6 q -20 115 -6 60 q -35 249 -35 171 q 43 475 -35 376 q 117 542 76 517 q 194 567 158 567 q 276 542 247 567 q 293 524 286 535 q 301 511 297 519 q 307 504 303 510 q 302 481 315 490 q 279 486 289 472 q 274 493 276 490 q 267 504 269 500 q 257 515 263 510 q 226 517 246 522 q 122 424 172 501 q 74 243 72 346 q 103 84 76 140 q 167 26 131 28 q 235 78 199 42 q 311 171 271 115 q 374 262 351 226 q 432 354 397 297 q 461 403 454 392 z "},"ç":{"ha":451,"x_min":-35,"x_max":499,"o":"m 461 403 q 485 408 471 417 q 490 385 499 399 q 460 338 482 372 q 399 240 422 276 q 333 145 375 203 q 253 50 292 88 q 179 -4 214 13 q 174 -7 176 -6 q 129 -17 150 -17 q 72 -6 99 -17 q 20 33 46 6 q -20 115 -6 60 q -35 249 -35 171 q 43 475 -35 376 q 117 542 76 517 q 194 567 158 567 q 276 542 247 567 q 293 524 286 535 q 301 511 297 519 q 307 504 303 510 q 302 481 315 490 q 279 486 289 472 q 274 493 276 490 q 267 504 269 500 q 257 515 263 510 q 226 517 246 522 q 122 424 172 501 q 74 243 72 346 q 103 84 76 140 q 167 26 131 28 q 235 78 199 42 q 311 171 271 115 q 374 262 351 226 q 432 354 397 297 q 461 403 454 392 z "},"d":{"ha":578,"x_min":-42,"x_max":631,"o":"m 631 1031 q 622 968 631 1004 l 622 967 q 525 724 600 874 q 369 454 456 588 q 376 279 369 354 q 389 166 382 204 q 406 105 396 128 q 422 77 415 82 q 435 72 429 72 q 454 93 440 72 q 454 94 454 94 q 463 108 458 101 q 463 109 463 108 q 464 111 464 110 l 465 115 q 475 133 471 124 q 574 360 511 206 q 580 378 574 363 q 589 400 586 393 q 611 409 596 415 q 621 388 626 403 q 604 347 615 378 q 490 92 532 167 q 490 90 490 90 q 482 76 486 82 q 388 -17 429 -17 q 286 139 317 -17 q 269 268 276 194 q 235 203 253 232 q 76 100 165 100 q 35 109 56 100 q -3 136 15 118 q -31 188 -21 154 q -42 265 -42 221 q 34 472 -42 378 q 188 567 110 567 q 264 546 236 567 q 344 929 275 769 q 439 1072 386 1022 q 550 1121 492 1121 q 619 1082 600 1121 q 631 1033 629 1063 q 631 1032 631 1032 q 631 1031 631 1032 m 192 201 q 265 343 231 253 q 263 478 263 407 q 263 500 263 490 q 260 504 261 503 q 250 515 256 510 q 221 517 239 521 q 115 424 167 501 q 63 254 63 347 q 81 179 63 207 q 118 151 100 151 q 192 201 150 151 m 596 1011 q 589 1058 600 1044 q 574 1065 583 1065 q 533 1043 557 1065 q 481 974 510 1021 q 429 865 453 928 q 388 710 406 803 q 369 515 371 618 q 506 760 443 633 q 589 972 569 888 q 590 976 589 975 q 594 997 593 988 q 596 1011 596 1004 z "},"e":{"ha":399,"x_min":-35,"x_max":446,"o":"m 410 403 q 432 408 418 417 q 438 385 446 399 q 385 308 406 336 q 328 233 364 279 q 256 158 292 188 q 186 113 221 128 q 181 110 183 111 q 129 100 154 100 q 17 156 69 100 q -35 311 -35 211 q 22 499 -35 431 q 153 567 78 567 q 211 550 188 567 q 239 494 239 531 l 239 493 q 187 387 238 436 q 75 308 136 338 q 74 261 74 286 q 110 156 74 183 q 172 142 136 135 q 226 177 197 153 q 278 226 256 201 q 328 288 300 250 q 372 347 357 326 q 410 403 386 368 m 160 504 q 81 349 101 464 q 167 415 131 376 q 206 493 204 454 q 193 514 206 510 q 160 504 181 518 z "},"è":{"ha":399,"x_min":-35,"x_max":446,"o":"m 410 403 q 432 408 418 417 q 438 385 446 399 q 385 308 406 336 q 328 233 364 279 q 256 158 292 188 q 186 113 221 128 q 181 110 183 111 q 129 100 154 100 q 17 156 69 100 q -35 311 -35 211 q 22 499 -35 431 q 153 567 78 567 q 211 550 188 567 q 239 494 239 531 l 239 493 q 187 387 238 436 q 75 308 136 338 q 74 261 74 286 q 110 156 74 183 q 172 142 136 135 q 226 177 197 153 q 278 226 256 201 q 328 288 300 250 q 372 347 357 326 q 410 403 386 368 m 160 504 q 81 349 101 464 q 167 415 131 376 q 206 493 204 454 q 193 514 206 510 q 160 504 181 518 z "},"é":{"ha":399,"x_min":-35,"x_max":446,"o":"m 410 403 q 432 408 418 417 q 438 385 446 399 q 385 308 406 336 q 328 233 364 279 q 256 158 292 188 q 186 113 221 128 q 181 110 183 111 q 129 100 154 100 q 17 156 69 100 q -35 311 -35 211 q 22 499 -35 431 q 153 567 78 567 q 211 550 188 567 q 239 494 239 531 l 239 493 q 187 387 238 436 q 75 308 136 338 q 74 261 74 286 q 110 156 74 183 q 172 142 136 135 q 226 177 197 153 q 278 226 256 201 q 328 288 300 250 q 372 347 357 326 q 410 403 386 368 m 160 504 q 81 349 101 464 q 167 415 131 376 q 206 493 204 454 q 193 514 206 510 q 160 504 181 518 z "},"ê":{"ha":399,"x_min":-35,"x_max":446,"o":"m 410 403 q 432 408 418 417 q 438 385 446 399 q 385 308 406 336 q 328 233 364 279 q 256 158 292 188 q 186 113 221 128 q 181 110 183 111 q 129 100 154 100 q 17 156 69 100 q -35 311 -35 211 q 22 499 -35 431 q 153 567 78 567 q 211 550 188 567 q 239 494 239 531 l 239 493 q 187 387 238 436 q 75 308 136 338 q 74 261 74 286 q 110 156 74 183 q 172 142 136 135 q 226 177 197 153 q 278 226 256 201 q 328 288 300 250 q 372 347 357 326 q 410 403 386 368 m 160 504 q 81 349 101 464 q 167 415 131 376 q 206 493 204 454 q 193 514 206 510 q 160 504 181 518 z "},"ë":{"ha":399,"x_min":-35,"x_max":446,"o":"m 410 403 q 432 408 418 417 q 438 385 446 399 q 385 308 406 336 q 328 233 364 279 q 256 158 292 188 q 186 113 221 128 q 181 110 183 111 q 129 100 154 100 q 17 156 69 100 q -35 311 -35 211 q 22 499 -35 431 q 153 567 78 567 q 211 550 188 567 q 239 494 239 531 l 239 493 q 187 387 238 436 q 75 308 136 338 q 74 261 74 286 q 110 156 74 183 q 172 142 136 135 q 226 177 197 153 q 278 226 256 201 q 328 288 300 250 q 372 347 357 326 q 410 403 386 368 m 160 504 q 81 349 101 464 q 167 415 131 376 q 206 493 204 454 q 193 514 206 510 q 160 504 181 518 z "},"f":{"ha":285,"x_min":-28,"x_max":340,"o":"m 340 1031 q 332 968 340 1004 q 332 968 332 968 l 332 967 q 235 724 310 874 q 85 464 168 593 q 79 296 79 381 q 82 117 79 196 q 139 122 113 111 q 187 160 164 133 q 226 228 210 188 q 252 293 243 268 q 272 357 261 318 q 286 400 282 389 q 307 410 292 415 q 317 388 322 404 q 304 347 313 379 q 282 276 292 304 q 253 206 272 249 q 209 134 235 163 q 151 92 183 106 q 136 86 144 89 q 242 -28 213 38 q 260 -158 271 -93 q 246 -206 256 -183 q 196 -275 228 -249 q 128 -301 164 -301 q 8 -164 44 -301 q -28 286 -28 -26 q 54 865 -28 618 q 148 1055 94 989 q 260 1121 201 1121 q 329 1082 310 1121 q 339 1033 339 1063 q 340 1031 339 1032 m 226 -153 q 229 -122 226 -140 q 224 -78 232 -104 q 203 -25 215 -51 q 159 29 190 1 q 83 79 128 57 q 100 -97 89 -28 q 176 -239 125 -239 q 217 -192 193 -239 q 226 -153 224 -172 m 306 1011 q 299 1058 308 1044 q 283 1065 293 1065 q 256 1049 272 1065 q 213 984 239 1032 q 163 868 186 936 q 92 536 113 724 q 299 974 263 813 q 300 976 299 975 q 304 996 303 988 q 304 1001 304 999 q 306 1011 306 1007 z "},"g":{"ha":557,"x_min":-28,"x_max":606,"o":"m 571 407 q 595 404 585 417 q 592 381 606 392 q 575 368 588 378 q 358 183 456 275 q 335 -119 351 21 q 282 -391 318 -258 q 194 -575 246 -524 q 114 -612 158 -612 q 72 -606 92 -612 q 31 -579 53 -599 q -3 -518 10 -560 q -17 -415 -17 -476 q 256 126 -17 -165 q 260 268 258 196 q 235 213 247 238 q 232 208 233 211 q 90 100 172 100 q 8 140 43 100 q -28 265 -28 181 q 43 466 -28 378 q 192 554 114 554 q 263 531 236 554 q 304 565 274 561 q 343 554 326 568 q 364 504 363 538 q 361 231 367 383 q 556 394 449 313 q 571 407 568 404 m 122 -532 q 253 74 222 -425 q 17 -415 17 -190 q 18 -451 17 -435 q 41 -524 24 -493 q 76 -556 58 -556 q 122 -532 100 -556 m 260 363 q 260 367 260 364 q 261 369 261 369 q 261 457 261 421 q 207 469 244 479 q 118 400 160 457 q 76 254 76 343 q 91 178 76 206 q 121 151 106 151 q 151 163 135 151 q 181 192 167 175 q 206 229 194 208 q 206 231 206 229 q 260 363 229 275 z "},"h":{"ha":553,"x_min":-58,"x_max":599,"o":"m 561 400 q 583 409 568 415 q 592 388 599 403 q 585 371 590 382 q 428 69 496 164 q 410 46 419 57 q 407 43 408 44 q 314 -17 357 -17 q 263 6 282 -17 q 240 80 243 29 q 240 172 236 131 q 257 290 244 213 q 267 356 264 333 q 273 413 269 379 q 274 467 276 447 q 264 494 271 486 q 254 499 261 499 q 171 401 218 499 q 86 147 124 303 q 74 118 86 132 q 38 100 57 101 l 36 100 q -7 146 3 100 q -18 649 -58 378 q 125 1049 22 919 q 254 1122 185 1122 q 339 1053 321 1122 q 344 992 346 1028 q 336 928 343 958 q 251 685 315 821 q 63 407 158 489 q 75 236 63 329 q 294 568 168 568 q 353 542 332 568 q 376 463 374 517 q 373 367 379 410 q 351 244 367 325 q 340 178 343 201 q 331 122 336 156 q 328 69 326 89 q 336 43 331 50 q 346 39 340 39 q 383 65 360 39 q 406 96 393 79 q 406 97 406 96 q 407 99 407 97 q 554 383 472 192 q 561 400 558 393 m 288 1068 q 217 1013 256 1068 q 145 872 178 957 q 89 673 113 786 q 63 453 65 560 q 221 699 144 538 q 303 931 282 828 q 303 933 303 932 q 303 935 303 933 q 304 936 304 936 q 311 989 310 964 q 297 1063 313 1043 q 288 1068 293 1068 z "},"i":{"ha":321,"x_min":-17,"x_max":368,"o":"m 331 403 q 353 408 339 417 q 360 386 368 400 l 350 369 q 235 192 278 247 q 233 189 233 190 l 231 188 q 229 186 231 188 q 106 100 160 100 q 25 142 56 100 q -11 268 -6 185 q -7 422 -17 351 q 17 536 3 493 q 44 563 24 556 q 83 564 64 569 q 113 542 103 558 q 117 501 124 525 q 94 385 103 447 q 90 261 86 322 q 115 174 94 200 q 153 157 129 157 q 206 208 165 161 l 207 211 q 321 386 250 265 l 331 403 m 140 627 q 130 624 140 627 q 94 627 119 621 q 52 648 68 633 q 40 677 36 663 q 63 698 43 692 q 110 699 83 704 q 152 678 136 693 q 165 648 168 663 q 140 627 161 633 z "},"ì":{"ha":321,"x_min":-17,"x_max":368,"o":"m 331 403 q 353 408 339 417 q 360 386 368 400 l 350 369 q 235 192 278 247 q 233 189 233 190 l 231 188 q 229 186 231 188 q 106 100 160 100 q 25 142 56 100 q -11 268 -6 185 q -7 422 -17 351 q 17 536 3 493 q 44 563 24 556 q 83 564 64 569 q 113 542 103 558 q 117 501 124 525 q 94 385 103 447 q 90 261 86 322 q 115 174 94 200 q 153 157 129 157 q 206 208 165 161 l 207 211 q 321 386 250 265 l 331 403 m 140 627 q 130 624 140 627 q 94 627 119 621 q 52 648 68 633 q 40 677 36 663 q 63 698 43 692 q 110 699 83 704 q 152 678 136 693 q 165 648 168 663 q 140 627 161 633 z "},"í":{"ha":321,"x_min":-17,"x_max":368,"o":"m 331 403 q 353 408 339 417 q 360 386 368 400 l 350 369 q 235 192 278 247 q 233 189 233 190 l 231 188 q 229 186 231 188 q 106 100 160 100 q 25 142 56 100 q -11 268 -6 185 q -7 422 -17 351 q 17 536 3 493 q 44 563 24 556 q 83 564 64 569 q 113 542 103 558 q 117 501 124 525 q 94 385 103 447 q 90 261 86 322 q 115 174 94 200 q 153 157 129 157 q 206 208 165 161 l 207 211 q 321 386 250 265 l 331 403 m 140 627 q 130 624 140 627 q 94 627 119 621 q 52 648 68 633 q 40 677 36 663 q 63 698 43 692 q 110 699 83 704 q 152 678 136 693 q 165 648 168 663 q 140 627 161 633 z "},"î":{"ha":321,"x_min":-17,"x_max":368,"o":"m 331 403 q 353 408 339 417 q 360 386 368 400 l 350 369 q 235 192 278 247 q 233 189 233 190 l 231 188 q 229 186 231 188 q 106 100 160 100 q 25 142 56 100 q -11 268 -6 185 q -7 422 -17 351 q 17 536 3 493 q 44 563 24 556 q 83 564 64 569 q 113 542 103 558 q 117 501 124 525 q 94 385 103 447 q 90 261 86 322 q 115 174 94 200 q 153 157 129 157 q 206 208 165 161 l 207 211 q 321 386 250 265 l 331 403 m 140 627 q 130 624 140 627 q 94 627 119 621 q 52 648 68 633 q 40 677 36 663 q 63 698 43 692 q 110 699 83 704 q 152 678 136 693 q 165 648 168 663 q 140 627 161 633 z "},"ï":{"ha":321,"x_min":-17,"x_max":368,"o":"m 331 403 q 353 408 339 417 q 360 386 368 400 l 350 369 q 235 192 278 247 q 233 189 233 190 l 231 188 q 229 186 231 188 q 106 100 160 100 q 25 142 56 100 q -11 268 -6 185 q -7 422 -17 351 q 17 536 3 493 q 44 563 24 556 q 83 564 64 569 q 113 542 103 558 q 117 501 124 525 q 94 385 103 447 q 90 261 86 322 q 115 174 94 200 q 153 157 129 157 q 206 208 165 161 l 207 211 q 321 386 250 265 l 331 403 m 140 627 q 130 624 140 627 q 94 627 119 621 q 52 648 68 633 q 40 677 36 663 q 63 698 43 692 q 110 699 83 704 q 152 678 136 693 q 165 648 168 663 q 140 627 161 633 z "},"j":{"ha":296,"x_min":-278,"x_max":343,"o":"m 310 407 q 333 404 322 417 q 331 381 343 392 q 314 368 326 378 q 97 183 194 275 q 74 -119 90 21 q 20 -391 57 -258 q -67 -575 -17 -524 q -147 -612 -103 -612 q -189 -606 -169 -612 q -230 -579 -208 -599 q -265 -518 -251 -560 q -278 -415 -278 -476 q -6 126 -278 -165 q -3 503 6 367 q 10 546 -4 529 q 43 565 24 563 q 81 554 64 568 q 103 504 101 538 q 100 231 106 385 q 294 394 188 313 q 310 407 307 404 m -140 -532 q -8 74 -39 -425 q -244 -415 -244 -190 q -243 -451 -244 -435 q -220 -524 -237 -493 q -185 -556 -203 -556 q -140 -532 -161 -556 m 42 626 q 10 631 25 626 q -13 644 -4 636 q -22 663 -22 653 q -3 689 -22 678 q 42 700 15 700 q 88 689 69 700 q 107 663 107 678 q 88 637 107 647 q 42 626 69 626 z "},"k":{"ha":574,"x_min":-37,"x_max":619,"o":"m 583 400 q 604 409 589 415 q 613 388 619 403 q 606 371 611 382 q 474 107 532 200 q 335 -17 396 -17 q 301 -4 318 -17 q 273 24 285 8 q 247 69 261 39 q 224 117 232 99 q 201 172 215 136 q 181 224 186 211 q 138 260 165 260 q 107 147 122 207 q 94 118 107 132 q 58 100 78 101 l 57 100 q 14 146 24 100 q 3 649 -37 378 q 146 1049 43 919 q 275 1122 206 1122 q 360 1053 342 1122 q 365 992 367 1028 q 357 928 364 957 q 272 685 336 821 q 82 407 178 489 q 96 236 83 329 q 315 568 189 568 q 361 546 346 568 q 375 496 375 526 q 338 381 375 442 q 240 289 300 321 q 267 258 257 278 q 299 182 278 236 q 313 142 308 156 q 328 109 318 129 q 345 78 338 89 q 364 60 353 68 q 386 51 375 51 q 444 122 399 53 q 575 383 503 215 q 583 400 581 394 m 308 1068 q 238 1013 276 1068 q 166 872 199 957 q 110 673 133 786 q 83 453 86 560 q 242 699 165 538 q 324 931 303 828 q 324 933 324 932 q 325 936 325 935 q 332 989 331 964 q 318 1063 333 1043 q 308 1068 314 1068 m 153 304 q 257 392 224 338 q 285 485 290 446 q 275 499 282 499 q 238 475 258 499 q 195 408 217 451 q 153 304 174 364 z "},"l":{"ha":378,"x_min":-14,"x_max":425,"o":"m 388 400 q 410 409 394 415 q 418 388 425 403 q 290 133 349 232 q 254 76 271 101 q 250 69 253 74 q 233 50 240 57 l 233 49 q 139 -17 181 -17 q 85 -1 110 -17 q 38 54 61 15 q 0 172 14 93 q -14 361 -14 250 q -2 534 -14 444 q 32 710 10 624 q 85 871 54 796 q 191 1056 133 990 q 306 1121 249 1121 q 375 1083 356 1121 q 383 1004 389 1054 l 383 1003 q 378 976 382 990 q 378 971 378 974 q 376 967 376 968 l 376 965 q 261 692 349 851 q 93 415 174 532 q 93 375 93 396 q 133 93 93 172 q 182 54 154 54 q 204 65 192 54 q 388 400 281 160 m 192 861 q 97 481 115 679 q 260 763 183 611 q 350 1003 336 914 q 343 1058 356 1043 q 329 1065 338 1065 q 299 1046 319 1065 q 249 977 279 1026 q 192 861 219 928 z "},"m":{"ha":839,"x_min":-18,"x_max":885,"o":"m 847 400 q 869 409 854 415 q 878 388 885 403 q 871 371 876 383 q 717 74 783 168 q 715 72 717 74 q 694 46 706 57 q 693 43 694 44 q 600 -17 643 -17 q 549 6 568 -17 q 525 80 529 29 q 526 172 521 131 q 543 290 531 213 q 549 333 547 318 q 555 375 551 349 q 559 417 558 401 q 560 449 560 432 q 557 478 560 467 q 550 494 554 489 q 540 499 546 499 q 456 401 503 499 q 372 147 410 303 l 372 146 q 356 119 369 131 q 325 110 342 108 q 310 115 317 111 q 294 126 303 118 q 281 155 286 135 q 278 203 276 175 q 246 493 289 447 q 232 499 239 499 q 181 439 211 499 q 139 289 153 375 q 129 129 125 203 q 129 125 129 126 q 129 124 129 125 q 126 113 131 117 q 115 103 122 106 q 100 100 108 100 q 72 106 86 100 q 44 123 57 111 q 24 150 31 135 q -14 344 -10 219 q 7 536 -18 469 q 33 563 13 556 q 72 564 53 569 q 102 542 92 558 q 107 501 113 525 q 99 235 75 367 q 150 450 111 358 q 151 453 150 451 q 153 456 151 453 q 199 531 174 503 q 279 569 236 569 q 335 543 311 569 q 382 307 385 488 q 581 568 468 568 q 639 542 618 568 q 663 463 660 517 q 659 367 665 410 q 638 244 653 325 q 625 178 629 201 q 617 122 621 156 q 614 69 613 89 q 622 43 615 50 q 632 39 625 39 q 668 65 644 39 q 692 96 679 79 q 692 97 692 96 q 693 99 692 97 q 840 383 758 193 q 843 390 842 386 q 846 397 844 394 q 847 400 847 399 z "},"n":{"ha":606,"x_min":-4,"x_max":651,"o":"m 614 401 q 636 410 621 417 q 644 388 651 403 q 638 371 643 383 q 483 75 550 169 q 482 72 482 74 q 461 46 472 57 q 460 43 461 46 q 367 -17 410 -17 q 314 6 335 -17 q 284 122 285 38 q 297 289 283 207 q 301 333 300 318 q 305 374 303 349 q 307 415 307 400 q 307 449 307 431 q 303 478 307 467 q 294 494 300 489 q 285 499 292 499 q 221 436 253 499 q 217 429 219 432 q 143 124 163 314 q 129 103 143 108 q 114 100 122 100 q 71 114 93 100 q 38 150 49 128 q 0 344 4 219 q 21 536 -4 469 q 47 563 26 556 q 86 564 67 569 q 116 542 106 558 q 121 501 126 525 q 119 201 83 346 q 168 399 138 315 q 169 400 169 399 q 197 461 182 435 q 199 464 197 463 q 325 568 256 568 q 385 542 363 568 q 410 463 406 517 q 410 367 415 410 q 394 244 406 325 q 385 180 388 203 q 379 124 382 157 q 378 71 376 90 q 389 43 381 51 q 399 39 392 39 q 435 65 411 39 q 458 96 446 79 l 458 97 q 460 99 458 97 q 607 383 525 193 q 614 401 611 394 z "},"ñ":{"ha":606,"x_min":-4,"x_max":651,"o":"m 614 401 q 636 410 621 417 q 644 388 651 403 q 638 371 643 383 q 483 75 550 169 q 482 72 482 74 q 461 46 472 57 q 460 43 461 46 q 367 -17 410 -17 q 314 6 335 -17 q 284 122 285 38 q 297 289 283 207 q 301 333 300 318 q 305 374 303 349 q 307 415 307 400 q 307 449 307 431 q 303 478 307 467 q 294 494 300 489 q 285 499 292 499 q 221 436 253 499 q 217 429 219 432 q 143 124 163 314 q 129 103 143 108 q 114 100 122 100 q 71 114 93 100 q 38 150 49 128 q 0 344 4 219 q 21 536 -4 469 q 47 563 26 556 q 86 564 67 569 q 116 542 106 558 q 121 501 126 525 q 119 201 83 346 q 168 399 138 315 q 169 400 169 399 q 197 461 182 435 q 199 464 197 463 q 325 568 256 568 q 385 542 363 568 q 410 463 406 517 q 410 367 415 410 q 394 244 406 325 q 385 180 388 203 q 379 124 382 157 q 378 71 376 90 q 389 43 381 51 q 399 39 392 39 q 435 65 411 39 q 458 96 446 79 l 458 97 q 460 99 458 97 q 607 383 525 193 q 614 401 611 394 z "},"o":{"ha":513,"x_min":-21,"x_max":561,"o":"m 524 403 q 547 407 533 417 q 551 383 561 397 q 434 267 510 326 q 294 201 358 207 q 250 146 276 169 q 136 100 199 100 q 115 101 125 100 q 92 105 106 101 q 65 115 78 108 q 40 133 53 122 q 16 159 26 143 q -3 195 6 175 q -16 244 -11 215 q -21 307 -21 274 q 3 421 -21 363 q 80 523 28 479 q 197 567 132 567 q 242 556 221 567 q 283 524 264 546 q 315 469 303 501 l 315 468 q 317 467 315 468 l 317 465 q 332 360 332 419 q 311 238 332 292 q 426 301 364 250 q 524 403 488 351 m 289 274 q 300 360 300 314 q 285 456 300 415 q 231 501 264 501 q 164 479 196 501 q 110 412 132 457 q 89 311 89 367 q 109 189 89 233 q 165 144 129 144 q 217 163 192 144 q 232 175 225 168 q 233 176 233 175 q 235 178 233 176 q 260 207 249 192 q 246 231 247 215 q 256 258 244 246 q 283 274 267 271 q 289 274 286 275 z "},"ò":{"ha":513,"x_min":-21,"x_max":561,"o":"m 524 403 q 547 407 533 417 q 551 383 561 397 q 434 267 510 326 q 294 201 358 207 q 250 146 276 169 q 136 100 199 100 q 115 101 125 100 q 92 105 106 101 q 65 115 78 108 q 40 133 53 122 q 16 159 26 143 q -3 195 6 175 q -16 244 -11 215 q -21 307 -21 274 q 3 421 -21 363 q 80 523 28 479 q 197 567 132 567 q 242 556 221 567 q 283 524 264 546 q 315 469 303 501 l 315 468 q 317 467 315 468 l 317 465 q 332 360 332 419 q 311 238 332 292 q 426 301 364 250 q 524 403 488 351 m 289 274 q 300 360 300 314 q 285 456 300 415 q 231 501 264 501 q 164 479 196 501 q 110 412 132 457 q 89 311 89 367 q 109 189 89 233 q 165 144 129 144 q 217 163 192 144 q 232 175 225 168 q 233 176 233 175 q 235 178 233 176 q 260 207 249 192 q 246 231 247 215 q 256 258 244 246 q 283 274 267 271 q 289 274 286 275 z "},"ó":{"ha":513,"x_min":-21,"x_max":561,"o":"m 524 403 q 547 407 533 417 q 551 383 561 397 q 434 267 510 326 q 294 201 358 207 q 250 146 276 169 q 136 100 199 100 q 115 101 125 100 q 92 105 106 101 q 65 115 78 108 q 40 133 53 122 q 16 159 26 143 q -3 195 6 175 q -16 244 -11 215 q -21 307 -21 274 q 3 421 -21 363 q 80 523 28 479 q 197 567 132 567 q 242 556 221 567 q 283 524 264 546 q 315 469 303 501 l 315 468 q 317 467 315 468 l 317 465 q 332 360 332 419 q 311 238 332 292 q 426 301 364 250 q 524 403 488 351 m 289 274 q 300 360 300 314 q 285 456 300 415 q 231 501 264 501 q 164 479 196 501 q 110 412 132 457 q 89 311 89 367 q 109 189 89 233 q 165 144 129 144 q 217 163 192 144 q 232 175 225 168 q 233 176 233 175 q 235 178 233 176 q 260 207 249 192 q 246 231 247 215 q 256 258 244 246 q 283 274 267 271 q 289 274 286 275 z "},"ô":{"ha":513,"x_min":-21,"x_max":561,"o":"m 524 403 q 547 407 533 417 q 551 383 561 397 q 434 267 510 326 q 294 201 358 207 q 250 146 276 169 q 136 100 199 100 q 115 101 125 100 q 92 105 106 101 q 65 115 78 108 q 40 133 53 122 q 16 159 26 143 q -3 195 6 175 q -16 244 -11 215 q -21 307 -21 274 q 3 421 -21 363 q 80 523 28 479 q 197 567 132 567 q 242 556 221 567 q 283 524 264 546 q 315 469 303 501 l 315 468 q 317 467 315 468 l 317 465 q 332 360 332 419 q 311 238 332 292 q 426 301 364 250 q 524 403 488 351 m 289 274 q 300 360 300 314 q 285 456 300 415 q 231 501 264 501 q 164 479 196 501 q 110 412 132 457 q 89 311 89 367 q 109 189 89 233 q 165 144 129 144 q 217 163 192 144 q 232 175 225 168 q 233 176 233 175 q 235 178 233 176 q 260 207 249 192 q 246 231 247 215 q 256 258 244 246 q 283 274 267 271 q 289 274 286 275 z "},"õ":{"ha":513,"x_min":-21,"x_max":561,"o":"m 524 403 q 547 407 533 417 q 551 383 561 397 q 434 267 510 326 q 294 201 358 207 q 250 146 276 169 q 136 100 199 100 q 115 101 125 100 q 92 105 106 101 q 65 115 78 108 q 40 133 53 122 q 16 159 26 143 q -3 195 6 175 q -16 244 -11 215 q -21 307 -21 274 q 3 421 -21 363 q 80 523 28 479 q 197 567 132 567 q 242 556 221 567 q 283 524 264 546 q 315 469 303 501 l 315 468 q 317 467 315 468 l 317 465 q 332 360 332 419 q 311 238 332 292 q 426 301 364 250 q 524 403 488 351 m 289 274 q 300 360 300 314 q 285 456 300 415 q 231 501 264 501 q 164 479 196 501 q 110 412 132 457 q 89 311 89 367 q 109 189 89 233 q 165 144 129 144 q 217 163 192 144 q 232 175 225 168 q 233 176 233 175 q 235 178 233 176 q 260 207 249 192 q 246 231 247 215 q 256 258 244 246 q 283 274 267 271 q 289 274 286 275 z "},"ö":{"ha":513,"x_min":-21,"x_max":561,"o":"m 524 403 q 547 407 533 417 q 551 383 561 397 q 434 267 510 326 q 294 201 358 207 q 250 146 276 169 q 136 100 199 100 q 115 101 125 100 q 92 105 106 101 q 65 115 78 108 q 40 133 53 122 q 16 159 26 143 q -3 195 6 175 q -16 244 -11 215 q -21 307 -21 274 q 3 421 -21 363 q 80 523 28 479 q 197 567 132 567 q 242 556 221 567 q 283 524 264 546 q 315 469 303 501 l 315 468 q 317 467 315 468 l 317 465 q 332 360 332 419 q 311 238 332 292 q 426 301 364 250 q 524 403 488 351 m 289 274 q 300 360 300 314 q 285 456 300 415 q 231 501 264 501 q 164 479 196 501 q 110 412 132 457 q 89 311 89 367 q 109 189 89 233 q 165 144 129 144 q 217 163 192 144 q 232 175 225 168 q 233 176 233 175 q 235 178 233 176 q 260 207 249 192 q 246 231 247 215 q 256 258 244 246 q 283 274 267 271 q 289 274 286 275 z "},"ø":{"ha":513,"x_min":-21,"x_max":561,"o":"m 524 403 q 547 407 533 417 q 551 383 561 397 q 434 267 510 326 q 294 201 358 207 q 250 146 276 169 q 136 100 199 100 q 115 101 125 100 q 92 105 106 101 q 65 115 78 108 q 40 133 53 122 q 16 159 26 143 q -3 195 6 175 q -16 244 -11 215 q -21 307 -21 274 q 3 421 -21 363 q 80 523 28 479 q 197 567 132 567 q 242 556 221 567 q 283 524 264 546 q 315 469 303 501 l 315 468 q 317 467 315 468 l 317 465 q 332 360 332 419 q 311 238 332 292 q 426 301 364 250 q 524 403 488 351 m 289 274 q 300 360 300 314 q 285 456 300 415 q 231 501 264 501 q 164 479 196 501 q 110 412 132 457 q 89 311 89 367 q 109 189 89 233 q 165 144 129 144 q 217 163 192 144 q 232 175 225 168 q 233 176 233 175 q 235 178 233 176 q 260 207 249 192 q 246 231 247 215 q 256 258 244 246 q 283 274 267 271 q 289 274 286 275 z "},"p":{"ha":592,"x_min":-25,"x_max":639,"o":"m 603 404 q 626 407 613 417 q 629 385 639 397 q 558 318 601 347 q 482 276 514 289 q 390 242 450 263 q 385 240 389 242 q 378 238 381 239 q 288 56 347 129 q 151 -17 228 -17 q 119 -7 133 -17 q 118 -6 118 -6 q 103 11 108 1 q 94 43 94 25 q 108 89 94 65 q 278 235 160 182 q 301 394 301 322 q 297 450 301 424 q 283 494 292 476 q 261 513 274 513 q 215 490 244 513 q 142 401 176 456 q 88 289 108 347 q 79 43 81 168 q 131 -549 75 -335 q 133 -574 133 -562 q 110 -611 133 -604 q 100 -612 106 -612 q 64 -598 82 -612 q 39 -561 46 -583 q -10 -284 4 -461 q -21 61 -25 -107 q -6 365 -17 229 q 18 536 6 500 q 42 562 24 554 q 79 564 61 569 q 108 542 97 558 q 113 501 118 526 q 96 389 104 468 q 147 465 119 432 q 189 510 165 490 q 306 567 249 567 q 382 514 357 567 q 403 401 403 472 q 389 276 403 342 q 472 307 442 294 q 540 345 503 319 q 603 404 578 371 m 135 25 q 265 192 213 36 q 138 74 178 147 q 132 28 121 44 q 135 25 133 26 z "},"q":{"ha":575,"x_min":-35,"x_max":629,"o":"m 592 403 q 615 408 600 417 q 621 386 629 400 q 603 351 617 379 q 363 -1 481 104 q 458 -142 425 -68 q 495 -282 492 -217 q 492 -394 499 -347 q 471 -481 486 -440 q 471 -482 471 -482 q 468 -489 471 -482 q 461 -508 465 -499 q 442 -547 453 -529 q 420 -581 432 -565 q 397 -604 408 -596 q 374 -612 385 -612 q 326 -585 347 -612 q 250 1 253 -483 q 254 271 249 138 q 228 213 242 239 q 83 100 167 100 q 1 140 36 100 q -35 265 -35 181 q -13 377 -35 321 q 42 474 8 433 q 116 541 75 515 q 194 567 157 567 q 278 540 249 567 q 279 539 279 540 q 309 563 288 557 q 349 563 331 569 q 380 540 371 557 q 383 501 389 524 q 371 409 378 478 q 358 239 364 340 q 351 33 353 138 q 574 367 460 135 q 592 403 588 394 m 261 388 q 271 497 265 457 q 267 504 269 500 q 257 515 261 511 q 228 517 246 521 q 122 424 174 501 q 69 254 69 347 q 84 178 69 206 q 114 151 99 151 q 158 174 135 151 q 199 229 182 197 q 200 231 199 229 q 253 363 224 275 q 261 388 258 383 m 447 -450 q 462 -370 458 -411 q 460 -274 465 -329 q 428 -156 456 -218 q 350 -37 400 -94 q 363 -368 349 -237 q 401 -532 376 -499 q 407 -537 404 -536 q 440 -471 424 -518 q 440 -471 440 -471 q 447 -450 444 -460 z "},"r":{"ha":546,"x_min":-18,"x_max":586,"o":"m 569 411 q 581 406 576 411 q 586 394 586 401 q 581 383 586 388 q 569 378 576 378 l 519 378 l 508 378 q 485 378 500 378 q 460 378 471 378 q 442 378 450 378 l 440 378 q 399 383 418 378 q 367 396 379 389 q 344 416 356 403 q 327 437 332 429 q 314 460 322 444 q 293 490 301 482 q 271 499 285 499 q 186 389 232 499 q 186 388 186 388 q 129 122 146 279 q 129 121 129 122 q 115 101 128 107 q 100 99 108 99 q 57 113 79 99 q 24 149 35 128 q -14 344 -10 219 q 7 536 -18 468 q 33 562 13 554 q 72 564 53 569 q 94 552 85 560 q 107 531 103 544 q 107 501 111 518 q 106 201 69 346 q 156 399 124 315 q 156 399 156 399 q 156 401 156 400 q 157 403 157 403 q 229 525 189 483 q 311 567 269 567 q 363 558 340 567 q 403 532 386 550 q 430 501 421 514 q 451 465 439 489 q 481 424 469 436 q 508 411 493 411 l 569 411 z "},"s":{"ha":438,"x_min":-14,"x_max":493,"o":"m 458 406 q 482 404 471 417 q 481 381 493 392 q 243 221 388 300 q 271 135 271 179 q 264 88 271 113 q 241 40 257 64 q 193 -1 225 15 q 119 -17 161 -17 q 61 9 83 -17 q 39 69 39 35 q 64 138 39 108 q 139 199 89 168 q 93 236 125 213 q 54 267 68 256 q 22 301 40 279 q -6 351 3 324 q -14 410 -14 378 q 37 515 -14 464 q 165 565 88 565 q 256 547 217 565 q 313 494 294 528 q 314 492 313 493 q 314 486 314 490 q 314 485 314 486 q 314 483 314 483 q 313 481 314 482 q 313 479 313 479 q 311 478 313 479 q 311 476 311 478 l 310 476 q 310 475 310 475 q 308 474 308 474 l 307 472 q 304 472 306 472 q 303 471 303 471 q 297 471 300 471 q 295 471 296 471 q 293 471 294 471 q 292 472 292 471 q 289 472 290 472 q 289 474 289 472 q 288 474 289 474 q 208 507 246 507 q 123 476 153 507 q 93 414 93 444 q 106 367 93 390 q 133 331 119 344 q 174 293 146 317 q 222 247 207 264 q 458 406 368 328 m 124 17 q 158 29 143 18 q 180 56 172 40 q 188 89 188 72 q 161 174 188 138 q 94 123 115 147 q 72 69 72 99 q 85 33 72 49 q 119 17 97 17 q 124 17 122 17 z "},"t":{"ha":328,"x_min":-160,"x_max":1028,"o":"m 1021 769 q 1013 748 1028 756 q 990 756 997 740 q 903 824 969 799 q 768 849 838 849 q 634 838 703 849 q 524 815 565 826 q 414 782 483 804 q 132 719 238 728 q 104 418 104 579 q 107 324 104 368 q 115 247 110 281 q 127 185 121 214 q 141 137 133 157 q 156 101 149 117 q 172 75 164 85 q 185 59 179 65 q 197 50 192 53 q 204 47 201 47 q 240 107 218 47 q 276 221 253 140 q 336 400 313 347 q 358 409 343 415 q 367 388 372 403 q 308 213 343 336 q 274 99 285 132 l 274 97 l 272 97 q 179 -18 232 -18 q 56 95 108 -18 q 3 404 3 208 q 32 718 3 569 q -149 808 -78 728 q -147 832 -160 821 q -124 831 -135 843 q 38 750 -60 758 q 165 1089 82 957 q 197 1117 178 1110 q 233 1115 217 1125 q 253 1088 249 1107 q 244 1036 257 1069 q 232 1011 240 1029 q 139 753 168 879 q 404 814 236 761 q 517 847 476 836 q 629 870 558 858 q 768 882 700 882 q 922 852 847 882 q 1021 769 996 822 z "},"u":{"ha":611,"x_min":-24,"x_max":658,"o":"m 621 403 q 644 408 629 417 q 650 386 658 400 l 640 369 q 525 192 569 247 q 524 189 524 190 l 522 188 q 521 186 521 186 q 396 100 451 100 q 315 142 346 100 q 278 361 269 207 q 206 204 240 264 q 206 201 206 203 q 200 193 203 199 q 99 100 144 100 q 18 142 49 100 q -18 267 -12 183 q -14 422 -24 351 q 10 536 -4 493 q 35 563 17 556 q 74 564 54 569 q 101 542 92 558 q 104 501 111 525 q 83 383 90 449 q 80 258 75 318 q 103 174 85 197 q 131 158 114 158 q 176 219 143 164 q 210 283 193 247 q 304 528 250 371 l 308 536 l 308 538 q 333 563 314 556 q 371 564 351 569 q 399 542 389 558 q 403 501 408 525 q 381 384 388 447 q 378 261 374 321 q 404 175 383 201 q 444 157 419 156 q 496 208 456 160 l 499 211 q 611 386 542 265 l 621 403 z "},"ù":{"ha":611,"x_min":-24,"x_max":658,"o":"m 621 403 q 644 408 629 417 q 650 386 658 400 l 640 369 q 525 192 569 247 q 524 189 524 190 l 522 188 q 521 186 521 186 q 396 100 451 100 q 315 142 346 100 q 278 361 269 207 q 206 204 240 264 q 206 201 206 203 q 200 193 203 199 q 99 100 144 100 q 18 142 49 100 q -18 267 -12 183 q -14 422 -24 351 q 10 536 -4 493 q 35 563 17 556 q 74 564 54 569 q 101 542 92 558 q 104 501 111 525 q 83 383 90 449 q 80 258 75 318 q 103 174 85 197 q 131 158 114 158 q 176 219 143 164 q 210 283 193 247 q 304 528 250 371 l 308 536 l 308 538 q 333 563 314 556 q 371 564 351 569 q 399 542 389 558 q 403 501 408 525 q 381 384 388 447 q 378 261 374 321 q 404 175 383 201 q 444 157 419 156 q 496 208 456 160 l 499 211 q 611 386 542 265 l 621 403 z "},"ú":{"ha":611,"x_min":-24,"x_max":658,"o":"m 621 403 q 644 408 629 417 q 650 386 658 400 l 640 369 q 525 192 569 247 q 524 189 524 190 l 522 188 q 521 186 521 186 q 396 100 451 100 q 315 142 346 100 q 278 361 269 207 q 206 204 240 264 q 206 201 206 203 q 200 193 203 199 q 99 100 144 100 q 18 142 49 100 q -18 267 -12 183 q -14 422 -24 351 q 10 536 -4 493 q 35 563 17 556 q 74 564 54 569 q 101 542 92 558 q 104 501 111 525 q 83 383 90 449 q 80 258 75 318 q 103 174 85 197 q 131 158 114 158 q 176 219 143 164 q 210 283 193 247 q 304 528 250 371 l 308 536 l 308 538 q 333 563 314 556 q 371 564 351 569 q 399 542 389 558 q 403 501 408 525 q 381 384 388 447 q 378 261 374 321 q 404 175 383 201 q 444 157 419 156 q 496 208 456 160 l 499 211 q 611 386 542 265 l 621 403 z "},"û":{"ha":611,"x_min":-24,"x_max":658,"o":"m 621 403 q 644 408 629 417 q 650 386 658 400 l 640 369 q 525 192 569 247 q 524 189 524 190 l 522 188 q 521 186 521 186 q 396 100 451 100 q 315 142 346 100 q 278 361 269 207 q 206 204 240 264 q 206 201 206 203 q 200 193 203 199 q 99 100 144 100 q 18 142 49 100 q -18 267 -12 183 q -14 422 -24 351 q 10 536 -4 493 q 35 563 17 556 q 74 564 54 569 q 101 542 92 558 q 104 501 111 525 q 83 383 90 449 q 80 258 75 318 q 103 174 85 197 q 131 158 114 158 q 176 219 143 164 q 210 283 193 247 q 304 528 250 371 l 308 536 l 308 538 q 333 563 314 556 q 371 564 351 569 q 399 542 389 558 q 403 501 408 525 q 381 384 388 447 q 378 261 374 321 q 404 175 383 201 q 444 157 419 156 q 496 208 456 160 l 499 211 q 611 386 542 265 l 621 403 z "},"ü":{"ha":611,"x_min":-24,"x_max":658,"o":"m 621 403 q 644 408 629 417 q 650 386 658 400 l 640 369 q 525 192 569 247 q 524 189 524 190 l 522 188 q 521 186 521 186 q 396 100 451 100 q 315 142 346 100 q 278 361 269 207 q 206 204 240 264 q 206 201 206 203 q 200 193 203 199 q 99 100 144 100 q 18 142 49 100 q -18 267 -12 183 q -14 422 -24 351 q 10 536 -4 493 q 35 563 17 556 q 74 564 54 569 q 101 542 92 558 q 104 501 111 525 q 83 383 90 449 q 80 258 75 318 q 103 174 85 197 q 131 158 114 158 q 176 219 143 164 q 210 283 193 247 q 304 528 250 371 l 308 536 l 308 538 q 333 563 314 556 q 371 564 351 569 q 399 542 389 558 q 403 501 408 525 q 381 384 388 447 q 378 261 374 321 q 404 175 383 201 q 444 157 419 156 q 496 208 456 160 l 499 211 q 611 386 542 265 l 621 403 z "},"v":{"ha":503,"x_min":-15,"x_max":550,"o":"m 514 406 q 538 406 526 418 q 539 382 550 394 q 411 266 464 304 q 301 228 358 228 l 299 228 q 293 228 296 228 q 251 109 272 158 q 217 36 231 60 q 188 -1 203 13 q 166 -15 172 -14 q 153 -17 160 -17 q 68 33 104 -17 q 17 150 38 75 q -9 300 -3 225 q -13 440 -15 375 q -1 536 -11 506 q 19 560 4 553 q 52 565 35 568 q 81 544 69 561 q 88 503 92 528 q 94 260 75 410 q 154 65 114 110 q 174 53 164 53 q 215 110 189 53 q 261 238 239 163 q 263 240 261 239 q 246 258 253 247 q 210 394 214 301 q 231 554 207 486 q 299 629 253 629 q 338 614 322 629 q 358 550 358 593 q 303 261 358 457 q 397 296 350 261 q 514 406 444 331 m 272 276 q 325 550 325 465 q 314 590 325 579 q 299 596 308 596 q 261 544 276 596 q 244 394 240 475 q 272 278 247 313 l 272 276 z "},"w":{"ha":831,"x_min":-15,"x_max":878,"o":"m 843 406 q 866 406 854 418 q 867 382 878 394 q 739 266 792 304 q 629 228 686 228 l 626 228 q 621 228 625 228 q 579 109 600 158 q 544 36 558 60 q 515 -1 531 13 q 494 -15 500 -14 q 481 -17 488 -17 q 396 33 432 -17 q 338 178 358 85 q 315 372 318 272 q 258 211 285 269 q 257 208 258 210 q 257 208 257 208 q 257 206 257 207 q 158 100 208 100 q 57 158 99 100 q 13 250 31 194 q -10 360 -4 306 q -13 462 -15 414 q -1 536 -11 510 q 19 561 3 553 q 52 565 35 569 q 80 545 69 561 q 88 503 90 529 q 92 330 76 425 q 144 192 108 235 q 192 167 167 168 q 228 222 204 174 q 239 249 233 236 q 310 476 267 321 q 325 529 321 515 q 326 536 325 532 q 328 538 326 538 q 349 561 333 554 q 381 565 364 568 q 408 544 397 561 q 415 503 419 528 q 423 260 403 410 q 482 65 443 110 q 501 53 492 53 q 544 110 517 53 q 589 238 567 163 q 590 240 590 240 q 574 258 581 247 q 538 394 542 301 q 558 554 535 486 q 626 629 581 629 q 665 614 650 629 q 686 550 686 593 q 631 261 686 458 q 681 271 656 261 q 733 303 706 281 q 785 347 761 325 q 843 406 808 368 m 600 276 q 653 550 653 465 q 642 590 653 579 q 626 596 636 596 q 590 544 606 596 q 572 394 568 475 q 600 278 575 313 l 600 276 z "},"x":{"ha":582,"x_min":-56,"x_max":615,"o":"m 579 402 q 583 409 579 402 q 601 408 588 417 q 607 385 615 400 q 572 324 597 369 q 440 101 489 172 q 404 53 422 74 q 306 -17 346 -17 q 201 55 261 -17 q 82 235 142 126 q -19 106 10 142 q -32 99 -24 99 q -43 103 -37 99 q -44 126 -56 113 q 65 267 -15 163 q -33 528 -15 428 q -10 564 -39 557 q 38 554 13 569 q 72 510 63 539 q 132 351 99 429 q 293 560 263 519 q 316 563 303 574 q 319 540 329 553 q 147 318 290 501 q 256 122 201 199 q 338 43 311 44 q 378 74 350 43 q 413 121 394 94 q 414 122 414 121 q 418 128 415 124 q 543 340 464 196 q 579 402 571 388 z "},"y":{"ha":608,"x_min":-17,"x_max":657,"o":"m 622 407 q 647 404 636 417 q 643 381 657 392 q 626 368 639 378 q 411 183 506 275 q 394 -43 406 65 q 365 -260 383 -151 q 315 -453 346 -369 q 246 -575 285 -536 q 165 -612 210 -612 q 124 -606 144 -612 q 83 -579 104 -599 q 48 -518 61 -560 q 35 -415 35 -476 q 307 126 35 -165 q 313 429 315 288 q 106 100 189 100 q 25 142 56 100 q -11 267 -6 183 q -7 422 -17 351 q 17 536 3 493 q 42 563 24 556 q 81 564 61 569 q 108 542 99 558 q 111 501 118 525 q 90 383 97 449 q 87 258 82 318 q 110 174 92 197 q 138 158 121 158 q 183 219 150 164 q 186 222 185 221 q 218 285 201 249 q 313 528 258 372 l 315 532 q 315 535 315 533 q 356 565 328 561 q 394 554 378 568 q 415 504 414 538 q 413 231 418 385 q 607 394 500 313 q 622 407 621 404 m 174 -532 q 304 74 274 -425 q 68 -415 68 -190 q 69 -451 68 -435 q 83 -503 74 -479 q 103 -541 92 -526 q 128 -556 115 -556 q 174 -532 151 -556 z "},"ý":{"ha":608,"x_min":-17,"x_max":657,"o":"m 622 407 q 647 404 636 417 q 643 381 657 392 q 626 368 639 378 q 411 183 506 275 q 394 -43 406 65 q 365 -260 383 -151 q 315 -453 346 -369 q 246 -575 285 -536 q 165 -612 210 -612 q 124 -606 144 -612 q 83 -579 104 -599 q 48 -518 61 -560 q 35 -415 35 -476 q 307 126 35 -165 q 313 429 315 288 q 106 100 189 100 q 25 142 56 100 q -11 267 -6 183 q -7 422 -17 351 q 17 536 3 493 q 42 563 24 556 q 81 564 61 569 q 108 542 99 558 q 111 501 118 525 q 90 383 97 449 q 87 258 82 318 q 110 174 92 197 q 138 158 121 158 q 183 219 150 164 q 186 222 185 221 q 218 285 201 249 q 313 528 258 372 l 315 532 q 315 535 315 533 q 356 565 328 561 q 394 554 378 568 q 415 504 414 538 q 413 231 418 385 q 607 394 500 313 q 622 407 621 404 m 174 -532 q 304 74 274 -425 q 68 -415 68 -190 q 69 -451 68 -435 q 83 -503 74 -479 q 103 -541 92 -526 q 128 -556 115 -556 q 174 -532 151 -556 z "},"ÿ":{"ha":608,"x_min":-17,"x_max":657,"o":"m 622 407 q 647 404 636 417 q 643 381 657 392 q 626 368 639 378 q 411 183 506 275 q 394 -43 406 65 q 365 -260 383 -151 q 315 -453 346 -369 q 246 -575 285 -536 q 165 -612 210 -612 q 124 -606 144 -612 q 83 -579 104 -599 q 48 -518 61 -560 q 35 -415 35 -476 q 307 126 35 -165 q 313 429 315 288 q 106 100 189 100 q 25 142 56 100 q -11 267 -6 183 q -7 422 -17 351 q 17 536 3 493 q 42 563 24 556 q 81 564 61 569 q 108 542 99 558 q 111 501 118 525 q 90 383 97 449 q 87 258 82 318 q 110 174 92 197 q 138 158 121 158 q 183 219 150 164 q 186 222 185 221 q 218 285 201 249 q 313 528 258 372 l 315 532 q 315 535 315 533 q 356 565 328 561 q 394 554 378 568 q 415 504 414 538 q 413 231 418 385 q 607 394 500 313 q 622 407 621 404 m 174 -532 q 304 74 274 -425 q 68 -415 68 -190 q 69 -451 68 -435 q 83 -503 74 -479 q 103 -541 92 -526 q 128 -556 115 -556 q 174 -532 151 -556 z "},"z":{"ha":519,"x_min":7,"x_max":554,"o":"m 518 406 q 542 406 529 417 q 543 383 554 396 q 404 194 475 307 q 285 -36 333 81 q 360 -314 363 -181 q 347 -391 360 -358 q 315 -439 333 -424 q 275 -457 296 -454 q 272 -457 274 -457 q 271 -457 271 -457 l 269 -457 l 269 -457 q 209 -422 235 -457 q 183 -325 183 -387 q 232 -82 183 -217 q 160 31 200 -18 q 83 101 119 79 l 83 101 q 81 103 82 103 q 80 104 81 103 q 79 106 79 106 l 78 106 q 76 108 78 107 q 76 110 76 110 q 76 111 76 110 q 75 113 75 111 l 75 114 l 75 114 q 75 116 75 115 q 75 118 75 117 q 76 122 75 119 q 76 124 76 122 q 79 126 78 125 l 79 128 q 215 404 215 269 q 193 475 215 450 q 131 500 171 500 q 53 456 78 500 q 40 394 40 426 q 35 383 40 388 q 24 378 31 378 q 12 383 17 378 q 7 394 7 388 q 24 472 7 436 q 83 541 44 515 q 168 567 121 567 q 272 527 235 567 q 308 418 308 488 q 258 260 308 346 q 138 124 207 174 q 207 75 172 110 q 264 1 238 44 q 344 158 299 79 q 433 298 390 238 q 518 406 476 358 m 297 -344 q 251 -126 297 -237 q 217 -325 217 -237 q 224 -378 217 -356 q 244 -412 232 -401 q 269 -424 256 -424 q 271 -424 269 -424 q 281 -417 275 -422 q 292 -392 286 -411 q 297 -344 297 -374 z "},"{":{"ha":421,"x_min":68,"x_max":351,"o":"m 350 8 q 351 6 350 7 q 351 3 351 4 q 351 -1 351 1 q 347 -10 350 -6 q 342 -12 344 -11 q 339 -14 340 -14 l 338 -14 q 337 -14 338 -14 q 335 -14 336 -14 l 333 -14 q 290 -4 311 -14 q 252 27 269 6 q 220 71 235 49 q 192 130 206 93 q 169 194 178 167 q 149 266 160 221 q 132 335 138 311 q 117 406 126 360 q 76 549 88 539 q 69 564 68 554 q 79 578 71 574 q 125 726 90 589 q 142 794 136 771 q 159 862 147 818 q 180 930 171 906 q 203 989 189 954 q 230 1044 217 1024 q 259 1084 243 1064 q 294 1113 275 1104 q 333 1124 313 1122 q 335 1124 333 1124 q 336 1124 335 1124 q 339 1122 338 1124 q 340 1122 339 1122 l 342 1122 q 344 1121 343 1121 q 344 1119 344 1121 q 346 1119 346 1119 q 349 1117 347 1118 q 349 1115 349 1115 q 350 1114 350 1114 q 351 1110 350 1111 q 351 1107 351 1108 q 351 1104 351 1106 l 351 1103 q 350 1101 350 1103 q 350 1100 350 1101 q 349 1098 349 1099 q 348 1097 349 1097 q 347 1096 347 1096 l 346 1094 q 292 999 317 1064 q 256 885 267 933 q 226 753 244 838 q 174 561 194 600 q 203 432 183 538 q 225 317 215 360 q 253 205 235 274 q 294 89 271 136 q 346 15 317 42 q 346 14 346 14 q 347 13 347 14 q 350 8 349 11 z "},"|":{"ha":247,"x_min":69,"x_max":178,"o":"m 178 1029 q 156 47 178 964 q 142 2 156 18 q 112 -14 129 -14 q 82 2 94 -14 q 69 47 69 18 q 69 110 69 67 q 72 466 69 243 q 76 850 74 689 q 78 1028 78 1011 q 128 1119 81 1119 q 151 1113 142 1119 q 166 1098 161 1106 q 174 1076 171 1090 q 177 1053 176 1061 q 178 1029 178 1044 z "},"}":{"ha":421,"x_min":69,"x_max":351,"o":"m 342 578 q 351 564 350 574 q 344 549 351 554 q 304 406 333 539 q 289 335 294 360 q 272 266 283 311 q 251 194 261 221 q 228 130 242 167 q 201 71 215 93 q 169 27 186 49 q 131 -4 151 6 q 88 -14 110 -14 l 86 -14 q 84 -14 85 -14 q 83 -14 83 -14 l 82 -14 q 79 -12 81 -14 q 74 -10 76 -12 q 69 -1 71 -6 q 69 3 69 1 q 71 7 69 4 q 71 8 71 8 q 74 13 72 11 q 75 14 74 14 q 75 15 75 14 q 107 56 92 31 q 134 106 122 81 q 158 169 146 132 q 176 234 169 207 q 193 304 183 261 q 207 369 203 347 q 218 432 211 392 q 247 561 238 536 q 194 753 226 600 q 165 885 176 838 q 128 999 154 933 q 74 1094 103 1064 l 74 1096 q 73 1097 74 1096 q 72 1098 72 1097 q 72 1100 72 1099 q 71 1101 71 1101 q 69 1103 69 1103 l 69 1104 q 69 1107 69 1106 q 69 1110 69 1108 l 69 1111 q 71 1114 69 1111 q 72 1115 71 1114 q 72 1117 72 1115 q 75 1119 74 1118 q 76 1119 75 1119 q 77 1121 76 1121 q 79 1122 78 1121 l 79 1122 l 81 1122 q 82 1122 82 1122 q 84 1124 83 1124 q 86 1124 85 1124 q 88 1124 88 1124 q 127 1113 108 1122 q 162 1084 146 1104 q 191 1044 178 1064 q 218 989 204 1024 q 241 929 232 954 q 262 862 250 904 q 279 795 274 819 q 296 726 285 771 q 342 578 331 589 z "},"~":{"ha":613,"x_min":63,"x_max":550,"o":"m 515 586 q 540 584 529 597 q 538 561 550 571 q 536 560 538 560 q 535 559 536 560 q 533 557 535 558 q 406 511 479 511 q 294 542 365 511 q 196 568 229 568 q 165 567 179 568 q 141 563 150 565 q 123 555 132 560 q 109 547 114 550 q 96 538 104 544 q 73 540 83 526 q 75 563 63 553 q 77 565 76 564 q 78 565 78 565 l 81 568 q 110 590 99 582 q 146 605 121 597 q 201 613 171 613 q 314 583 240 613 q 417 556 383 556 q 511 582 479 556 q 513 583 511 582 q 514 583 513 583 q 515 585 514 585 q 515 586 515 586 z "}," ":{"ha":385,"x_min":0,"x_max":0,"o":""},"©":{"ha":639,"x_min":69,"x_max":569,"o":"m 143 749 q 180 785 143 749 q 319 822 217 822 q 496 749 422 822 q 569 572 569 675 q 496 394 569 468 q 319 321 422 321 q 143 394 217 321 q 69 572 69 468 q 143 749 69 675 m 166 418 q 198 386 166 418 q 319 354 229 354 q 473 418 410 354 q 536 572 536 482 q 473 725 536 661 q 319 789 410 789 q 166 725 229 789 q 103 572 103 661 q 166 418 103 482 m 421 457 q 444 458 432 468 q 446 435 457 447 q 319 376 396 379 q 311 376 314 376 q 262 387 289 376 q 206 419 235 397 q 159 481 178 440 q 140 572 140 521 q 153 644 140 611 q 187 698 167 678 q 233 732 207 718 q 281 751 258 746 q 324 757 304 757 q 374 751 353 757 q 375 751 375 751 l 376 751 q 438 711 413 742 q 436 688 449 699 q 413 689 424 676 q 367 719 393 713 q 278 697 317 729 q 236 641 251 676 q 221 567 221 606 q 248 453 221 496 q 319 411 275 411 q 324 410 322 411 q 421 457 382 413 z "},"­":{"ha":0,"x_min":0,"x_max":0,"o":""},"®":{"ha":514,"x_min":69,"x_max":444,"o":"m 124 1069 q 152 1096 124 1069 q 257 1124 179 1124 q 390 1069 335 1124 q 444 936 444 1014 q 390 803 444 858 q 257 749 335 749 q 124 803 179 749 q 69 936 69 858 q 124 1069 69 1014 m 148 827 q 170 805 148 827 q 257 782 193 782 q 367 827 321 782 q 413 936 413 872 q 367 1045 413 1000 q 257 1090 321 1090 q 148 1045 193 1090 q 103 936 103 1000 q 148 827 103 872 m 285 922 q 331 824 328 886 q 326 812 331 817 q 315 807 322 807 l 314 807 q 297 822 299 807 q 276 883 296 858 q 238 907 257 907 q 235 908 236 907 q 233 908 233 908 l 233 822 q 228 812 233 817 q 217 807 224 807 q 205 812 210 807 q 200 822 200 817 l 200 1050 q 205 1060 200 1056 q 217 1065 210 1065 q 297 1043 267 1065 q 326 988 326 1021 q 285 922 326 944 m 233 940 q 277 956 261 943 q 293 987 293 969 q 277 1017 293 1004 q 233 1032 261 1029 l 233 940 z "},"±":{"ha":581,"x_min":69,"x_max":511,"o":"m 113 588 q 69 636 69 592 q 113 686 69 685 l 114 686 q 240 679 126 686 q 244 788 244 776 q 294 831 249 831 q 344 789 343 831 q 339 674 344 779 q 479 665 431 668 q 502 651 493 664 q 511 621 511 639 q 507 599 511 608 q 495 584 503 589 q 478 579 488 579 q 454 579 464 579 q 333 581 407 579 q 324 422 326 468 q 319 409 322 415 q 310 399 315 403 q 296 392 304 394 q 279 389 288 389 l 278 389 q 248 399 260 389 q 236 422 236 408 q 236 447 236 433 q 239 582 236 496 q 113 588 125 586 m 479 365 q 502 351 493 364 q 511 321 511 339 q 502 291 511 303 q 478 279 493 279 q 454 279 467 279 q 321 281 403 279 q 179 284 239 282 q 113 288 119 286 q 69 336 69 292 q 113 386 69 385 q 114 386 114 386 q 479 365 153 386 z "},"´":{"ha":301,"x_min":65,"x_max":232,"o":"m 231 1092 q 231 1083 232 1088 q 221 1065 229 1078 q 193 1022 213 1051 q 132 940 156 968 q 97 929 122 929 q 78 933 83 929 q 71 956 65 942 q 93 1007 78 971 q 135 1096 122 1075 q 182 1114 144 1114 q 231 1092 225 1114 z "},"×":{"ha":497,"x_min":68,"x_max":435,"o":"m 421 440 q 428 415 431 431 q 414 386 426 400 q 381 371 399 371 q 360 378 369 371 q 256 479 326 408 q 140 371 186 413 q 119 363 132 363 q 85 378 101 363 q 70 405 72 390 q 78 431 68 419 q 189 546 113 468 q 100 635 108 625 q 103 700 72 668 q 168 707 136 736 q 257 614 175 703 q 335 690 325 683 q 400 688 367 719 q 407 622 435 656 q 324 543 401 617 q 421 440 388 476 z "},"÷":{"ha":581,"x_min":69,"x_max":511,"o":"m 479 583 q 502 570 493 583 q 511 539 511 557 q 502 509 511 521 q 478 497 493 497 q 454 497 467 497 q 253 501 381 497 q 113 506 126 504 q 69 556 69 510 q 113 606 69 603 q 479 583 135 606 m 326 685 q 319 678 326 685 q 292 671 313 671 q 258 685 272 671 q 244 719 244 699 q 258 753 244 739 q 292 767 272 767 q 326 753 313 767 q 340 719 340 739 q 326 685 340 699 m 293 422 q 317 415 306 422 q 334 398 328 408 q 340 374 340 388 q 326 340 340 354 q 293 326 313 326 q 274 330 283 326 q 259 340 265 333 q 249 355 253 346 q 244 374 244 364 q 258 408 244 393 q 293 422 272 422 z "},"–":{"ha":710,"x_min":69,"x_max":640,"o":"m 603 582 q 615 580 608 582 q 625 574 621 578 q 633 564 629 569 q 638 551 636 558 q 640 538 640 544 q 629 508 640 519 q 601 496 618 496 q 571 496 588 496 q 397 498 506 496 q 209 502 288 500 q 122 504 131 504 q 69 553 69 508 q 121 603 69 601 q 603 582 157 604 z "},"—":{"ha":1054,"x_min":69,"x_max":985,"o":"m 933 582 q 956 578 946 582 q 972 567 965 574 q 981 553 978 561 q 985 538 985 546 q 972 508 985 521 q 932 496 958 496 q 882 496 910 496 q 595 498 774 496 q 288 502 417 500 q 146 504 160 504 q 69 553 69 507 q 76 582 69 571 q 97 597 83 593 q 120 602 111 601 q 144 603 129 603 q 933 582 197 604 z "},"‘":{"ha":235,"x_min":69,"x_max":172,"o":"m 122 1033 q 153 1018 140 1032 q 165 986 165 1004 q 151 953 165 967 q 117 939 138 939 q 85 952 99 939 q 69 985 71 965 l 69 986 q 72 1001 69 994 q 139 1100 85 1049 q 150 1104 143 1104 q 161 1100 156 1104 q 160 1078 172 1089 q 122 1033 138 1057 z "},"’":{"ha":235,"x_min":63,"x_max":165,"o":"m 165 1058 l 165 1057 q 163 1042 165 1049 q 96 943 150 994 q 85 939 92 939 q 74 943 79 939 q 74 965 63 954 q 113 1010 97 988 q 82 1025 94 1011 q 69 1057 69 1039 q 83 1090 69 1076 q 117 1104 97 1104 q 150 1091 136 1104 q 165 1058 164 1078 z "},"“":{"ha":353,"x_min":69,"x_max":289,"o":"m 240 1033 q 263 1026 253 1032 q 278 1009 272 1019 q 283 986 283 999 q 269 953 283 967 q 235 939 256 939 q 201 952 215 939 q 188 985 188 965 l 188 986 q 190 1001 188 993 q 256 1100 203 1049 q 267 1104 261 1104 q 279 1100 274 1104 q 278 1078 289 1089 q 240 1033 256 1056 m 122 1033 q 153 1018 140 1032 q 165 986 165 1004 q 151 953 165 967 q 117 939 138 939 q 85 952 99 939 q 69 985 71 965 l 69 986 q 72 1001 69 994 q 139 1100 85 1049 q 150 1104 143 1104 q 161 1100 156 1104 q 160 1078 172 1089 q 122 1033 138 1057 z "},"”":{"ha":353,"x_min":63,"x_max":283,"o":"m 283 1058 l 283 1057 q 281 1042 283 1049 q 214 943 268 993 q 203 939 210 939 q 192 943 196 939 q 192 965 181 954 q 229 1010 215 988 q 200 1025 213 1011 q 188 1057 188 1039 q 201 1090 188 1076 q 235 1104 215 1104 q 268 1091 254 1104 q 283 1058 282 1078 m 165 1058 l 165 1057 q 163 1042 165 1049 q 96 943 150 994 q 85 939 92 939 q 74 943 79 939 q 74 965 63 954 q 113 1010 97 988 q 90 1017 100 1011 q 75 1034 81 1024 q 69 1057 69 1044 q 83 1090 69 1076 q 117 1104 97 1104 q 150 1091 136 1104 q 165 1058 164 1078 z "},"†":{"ha":581,"x_min":69,"x_max":511,"o":"m 479 850 q 502 836 493 849 q 511 805 511 824 q 502 775 511 786 q 478 763 493 764 q 454 763 464 763 q 339 764 410 763 q 324 44 331 372 q 309 0 322 17 q 279 -17 296 -17 l 278 -17 q 249 -1 261 -17 q 236 46 236 15 q 236 107 236 74 q 242 767 236 335 q 113 772 126 771 q 69 821 69 775 q 113 871 69 869 q 243 864 121 871 q 244 1025 244 1014 q 294 1117 249 1117 q 322 1108 311 1117 q 338 1084 333 1100 q 343 1057 342 1068 q 344 1028 344 1046 q 342 858 344 1015 q 479 850 433 853 z "},"‡":{"ha":581,"x_min":69,"x_max":511,"o":"m 479 390 q 495 384 488 390 q 507 368 503 378 q 511 346 511 358 q 502 316 511 328 q 478 304 493 304 q 454 304 467 304 q 329 306 407 304 q 325 154 326 215 q 324 49 324 93 q 309 4 322 21 q 279 -12 296 -12 l 278 -12 q 249 3 261 -12 q 236 50 236 19 q 236 114 236 81 q 238 307 236 192 q 113 313 125 311 q 69 361 69 317 q 113 411 69 410 l 114 411 q 238 406 126 411 q 242 765 239 567 q 113 771 126 769 q 69 819 69 775 q 113 869 69 868 q 243 863 121 869 q 244 1029 244 1013 q 294 1121 249 1121 q 322 1113 311 1121 q 338 1089 333 1106 q 343 1062 342 1072 q 344 1032 344 1051 q 342 857 344 1017 q 479 849 436 851 q 502 835 493 847 q 511 804 511 822 q 507 782 511 792 q 495 767 503 772 q 478 763 488 763 q 454 763 467 763 q 339 764 410 763 q 331 400 338 661 q 479 390 415 394 z "},"•":{"ha":260,"x_min":69,"x_max":190,"o":"m 173 510 q 164 501 173 510 q 131 492 156 492 q 88 510 106 492 q 69 553 69 528 q 88 595 69 578 q 131 613 106 613 q 173 595 156 613 q 190 553 190 578 q 173 510 190 528 z "},"…":{"ha":693,"x_min":69,"x_max":624,"o":"m 575 96 q 610 82 596 96 q 624 48 624 68 q 610 14 624 28 q 576 0 596 0 q 542 14 556 0 q 528 47 528 28 q 534 72 528 61 q 551 90 540 83 q 575 96 563 96 m 313 82 q 319 89 313 82 q 347 96 326 96 q 381 82 367 96 q 394 48 394 68 q 381 14 394 28 q 346 0 367 0 q 322 6 333 0 q 305 24 311 13 q 299 47 299 35 q 313 82 299 68 m 83 82 q 90 89 83 82 q 117 96 97 96 q 151 82 138 96 q 165 48 165 68 q 151 14 165 28 q 117 0 138 0 q 99 3 107 0 q 83 14 90 7 q 73 29 76 21 q 69 47 69 38 q 83 82 69 68 z "},"‰":{"ha":1263,"x_min":69,"x_max":1193,"o":"m 1175 379 q 1193 271 1193 332 q 1110 57 1193 132 q 996 11 1058 11 q 960 15 978 11 q 920 31 943 18 q 881 65 897 43 q 851 126 864 86 q 839 219 839 165 q 863 333 839 275 q 940 435 888 392 q 1057 478 992 478 q 1125 453 1093 478 q 1175 381 1157 428 q 1175 379 1175 379 m 1096 90 q 1160 271 1160 153 q 1144 368 1160 328 q 1090 414 1124 414 q 992 360 1036 414 q 949 222 949 307 q 969 101 949 144 q 1026 57 989 57 q 1076 74 1053 57 q 1078 74 1078 74 q 1079 75 1078 75 q 1092 86 1085 79 q 1093 88 1093 88 q 1096 90 1094 89 m 758 378 q 775 271 775 332 q 692 57 775 132 q 578 11 640 11 q 550 14 564 11 q 517 24 536 17 q 481 45 497 31 q 451 81 465 60 q 429 138 438 103 q 421 219 421 174 q 445 333 421 275 q 522 435 469 392 q 640 478 574 478 q 707 453 675 478 q 757 382 739 429 q 757 381 757 381 q 758 378 758 379 m 678 89 q 742 271 742 153 q 726 367 742 326 l 726 368 q 672 414 707 414 q 574 360 618 414 q 531 222 531 307 q 551 101 531 144 q 608 57 572 57 q 660 74 635 57 q 674 86 667 79 q 675 88 675 86 l 676 88 q 676 89 676 89 l 678 89 m 647 999 q 482 583 640 981 q 457 518 476 567 q 429 449 438 469 q 403 384 421 428 q 376 317 385 340 q 351 255 367 293 q 326 192 336 217 q 306 139 317 168 q 285 87 294 110 q 268 44 276 64 q 221 -3 249 -3 q 211 -1 215 -3 q 190 23 196 4 q 194 71 185 42 q 408 635 257 238 q 558 1025 544 989 q 636 1100 594 1115 q 647 999 679 1085 m 340 669 q 226 624 289 624 q 197 626 211 624 q 165 636 183 629 q 130 658 146 643 q 100 694 114 672 q 78 751 86 715 q 69 832 69 786 q 94 946 69 888 q 170 1047 118 1004 q 288 1090 222 1090 q 356 1066 324 1090 q 406 994 388 1042 q 406 993 406 993 q 407 990 406 992 q 422 883 422 944 q 340 669 422 744 m 179 835 q 199 713 179 757 q 257 669 219 669 q 307 686 282 669 q 322 699 315 692 q 323 699 322 699 q 324 700 324 700 q 325 701 324 701 q 390 883 390 765 q 375 981 390 940 q 321 1026 354 1026 q 222 973 265 1026 q 179 835 179 919 z "},"™":{"ha":596,"x_min":69,"x_max":528,"o":"m 526 1103 l 526 824 q 522 812 526 817 q 510 807 517 807 q 498 812 503 807 q 493 824 493 817 l 493 1035 l 442 931 q 439 926 440 928 q 438 925 438 925 q 435 922 436 924 q 433 922 433 922 l 432 922 q 426 921 429 921 q 421 922 424 921 q 419 923 421 922 q 417 924 418 924 q 415 926 417 925 q 413 927 414 926 q 413 929 413 928 q 413 931 413 929 l 360 1035 l 360 822 q 355 812 360 817 q 343 807 350 807 q 331 812 336 807 q 326 822 326 817 l 326 1103 q 336 1119 326 1114 q 358 1113 351 1126 l 426 975 l 496 1113 q 518 1119 503 1126 q 526 1103 528 1114 m 272 1121 q 284 1116 279 1121 q 289 1104 289 1111 q 284 1092 289 1097 q 272 1088 279 1088 l 196 1088 l 196 822 q 191 812 196 817 q 179 807 186 807 q 171 809 175 807 q 165 815 167 811 q 163 822 163 818 l 163 1088 l 86 1088 q 74 1092 79 1088 q 69 1104 69 1097 q 74 1116 69 1111 q 86 1121 79 1121 l 272 1121 z "},"≠":{"ha":581,"x_min":69,"x_max":511,"o":"m 479 467 q 502 453 493 465 q 511 422 511 440 q 502 392 511 403 q 478 379 493 381 q 454 379 467 379 q 272 383 389 379 q 217 247 243 313 q 176 218 204 218 q 165 219 171 218 q 144 240 151 225 q 143 275 136 256 q 185 385 160 318 q 113 389 119 388 q 69 438 69 392 q 113 488 69 486 l 114 488 q 222 482 126 488 q 269 607 243 536 q 281 632 274 618 q 113 638 132 636 q 69 688 69 642 q 113 738 69 736 l 114 738 q 317 726 132 738 q 360 838 356 826 q 390 876 372 864 q 425 881 407 888 q 449 808 468 864 q 413 721 444 800 q 479 717 454 718 q 495 710 488 715 q 507 694 503 704 q 511 671 511 683 q 502 641 511 653 q 478 629 493 629 q 454 629 464 629 q 375 631 425 629 q 347 564 360 594 q 332 528 346 561 q 311 476 318 494 q 479 467 410 471 z "},"≤":{"ha":607,"x_min":69,"x_max":538,"o":"m 492 406 q 515 392 506 404 q 524 361 524 379 q 515 331 524 343 q 490 319 506 319 q 467 319 481 319 q 335 321 417 319 q 193 324 253 322 q 125 328 133 326 q 82 376 82 332 q 125 426 82 425 q 492 406 150 428 m 538 500 q 538 498 538 499 q 538 496 538 497 q 536 494 538 494 q 536 492 536 493 q 535 491 536 492 q 535 490 535 490 q 535 489 535 490 q 533 488 533 488 q 531 485 532 486 q 528 483 529 483 q 526 482 528 483 q 525 482 525 482 q 523 481 524 482 q 522 481 522 481 q 521 481 521 481 q 518 481 519 481 q 517 482 518 481 q 517 482 517 482 q 278 557 443 496 q 78 639 113 618 q 69 652 69 643 q 76 667 69 661 q 253 753 103 686 q 499 858 403 821 q 500 858 499 858 q 501 858 501 858 q 504 860 503 860 q 508 858 507 860 q 510 858 508 858 q 512 857 511 857 q 514 856 513 857 q 517 853 515 854 q 518 852 518 853 q 519 851 518 851 q 519 849 519 850 l 519 849 l 519 847 q 521 845 521 846 q 521 843 521 844 q 521 840 521 842 q 519 839 521 839 q 519 837 519 838 q 519 836 519 836 q 518 835 518 835 q 518 833 518 833 q 515 831 517 832 q 513 829 514 829 l 513 828 q 253 654 369 736 q 410 574 286 638 q 528 513 504 525 l 529 513 q 533 508 532 510 q 533 507 533 507 q 538 500 536 504 z "},"≥":{"ha":607,"x_min":68,"x_max":538,"o":"m 531 667 q 537 652 538 661 q 529 639 536 643 q 328 557 493 618 q 90 482 164 496 q 89 482 90 482 q 88 481 89 481 q 86 481 86 481 q 83 481 85 481 q 81 482 82 482 q 79 482 79 482 q 78 483 78 483 q 74 486 75 485 q 72 488 74 486 q 70 492 71 490 q 69 494 69 493 q 69 496 69 494 q 72 507 68 503 q 74 509 74 508 q 76 511 75 510 q 79 513 78 513 q 197 574 101 525 q 353 654 319 638 q 94 828 236 738 q 93 829 94 829 q 92 831 93 829 q 89 833 90 832 q 89 835 89 833 q 88 835 88 835 q 87 837 88 836 q 86 839 86 838 q 86 843 86 840 q 86 844 86 843 q 86 847 86 846 l 88 849 l 88 849 q 88 851 88 850 q 89 851 88 851 q 89 853 89 853 q 90 853 90 853 q 93 856 92 854 q 95 857 94 857 q 96 858 96 857 q 97 858 96 858 q 99 858 97 858 q 103 860 100 860 q 104 858 104 860 l 106 858 q 107 858 106 858 q 108 858 108 858 q 353 753 204 821 q 531 667 503 686 m 486 406 q 509 392 500 404 q 518 360 518 379 q 509 330 518 342 q 485 318 500 318 q 461 318 471 318 q 261 322 388 318 q 119 326 135 325 q 76 376 76 331 q 119 426 76 425 l 121 426 q 486 406 164 426 z "},"":{"ha":588,"x_min":-35,"x_max":635,"o":"m 597 403 q 620 408 606 417 q 626 386 635 400 q 572 281 613 361 q 485 110 517 165 q 483 107 483 108 l 481 104 q 358 -17 410 -17 q 289 21 317 -17 q 246 251 243 83 q 228 213 236 231 q 83 100 167 100 q 1 140 36 100 q -35 265 -35 181 q 41 472 -35 378 q 194 567 117 567 q 278 540 249 567 q 283 536 281 539 q 285 536 283 536 q 310 563 290 556 q 350 564 331 569 q 380 542 369 558 q 383 501 390 525 q 354 357 367 439 q 343 191 342 275 q 368 75 344 107 q 397 61 379 61 q 419 74 408 61 q 453 121 431 86 l 453 122 q 543 294 486 178 q 597 403 582 378 m 253 367 q 274 494 261 438 q 267 504 269 500 q 257 515 263 510 q 228 517 246 521 q 122 424 174 501 q 69 254 69 347 q 84 178 69 206 q 114 151 99 151 q 158 174 135 151 q 199 229 182 197 l 199 231 q 253 363 222 275 q 253 365 253 364 q 253 367 253 365 z "},"":{"ha":632,"x_min":-24,"x_max":681,"o":"m 643 404 q 667 407 653 417 q 671 385 681 397 q 622 335 649 354 q 562 308 596 317 q 503 297 528 300 q 438 293 478 294 q 353 155 410 210 q 214 100 296 100 q 181 110 194 100 q 165 126 171 117 q 169 206 144 161 q 338 318 222 300 q 342 394 342 354 q 306 494 342 494 q 288 488 297 494 q 269 468 279 481 q 243 432 260 456 q 121 146 172 314 q 108 117 121 131 q 72 100 93 100 l 71 100 q 28 144 38 100 q 17 647 -24 376 q 160 1047 57 918 q 289 1121 219 1121 q 374 1053 356 1121 q 379 990 381 1026 q 371 926 378 957 q 286 683 350 819 q 96 406 193 488 q 111 221 97 324 q 215 450 161 363 q 347 567 285 567 q 426 524 397 567 q 456 408 456 482 q 446 326 456 369 q 565 344 518 331 q 643 404 611 358 m 322 1067 q 251 1011 290 1067 q 180 870 213 956 q 124 672 147 785 q 97 451 100 558 q 256 699 179 536 q 338 929 317 826 q 338 932 338 931 q 338 933 338 932 q 339 935 339 935 q 346 988 344 963 q 332 1061 347 1042 q 322 1067 328 1067 m 196 140 q 332 283 303 150 q 199 189 242 267 q 193 144 183 161 q 196 140 194 142 z "},"":{"ha":444,"x_min":-42,"x_max":492,"o":"m 456 403 q 478 408 464 417 q 483 385 492 399 q 328 224 436 313 q 131 108 221 135 q 76 100 101 100 q 35 109 56 100 q -3 136 15 118 q -31 188 -21 154 q -42 265 -42 221 q 34 472 -42 378 q 188 567 110 567 q 271 540 242 567 q 286 524 281 535 q 294 511 289 519 q 297 508 296 511 q 300 504 299 506 q 295 481 308 490 q 272 486 282 472 q 268 493 269 490 q 260 504 263 500 q 250 515 256 510 q 221 517 239 521 q 115 424 167 501 q 63 254 63 347 q 79 173 63 204 q 125 140 96 142 q 308 250 206 167 q 456 403 410 333 z "},"":{"ha":575,"x_min":-49,"x_max":624,"o":"m 624 1031 q 615 968 624 1004 q 615 967 615 968 q 518 724 593 874 q 363 454 449 588 q 419 165 365 165 q 447 186 428 165 q 563 367 489 235 q 583 403 581 397 q 606 408 592 417 q 613 386 621 400 q 592 350 608 378 q 513 218 540 258 q 472 165 492 185 l 472 164 q 369 100 418 100 q 267 278 292 100 q 228 203 249 236 q 69 100 158 100 q -13 140 22 100 q -49 265 -49 181 q 27 472 -49 378 q 181 567 103 567 q 257 546 229 567 q 338 929 268 769 q 432 1072 379 1022 q 543 1121 485 1121 q 613 1082 593 1121 q 624 1033 622 1063 q 624 1032 624 1032 q 624 1031 624 1032 m 185 201 q 260 347 225 253 q 256 478 256 406 q 256 500 256 490 q 255 501 256 500 q 253 504 254 503 q 243 514 249 510 l 243 515 q 214 517 232 521 q 108 424 160 501 q 56 254 56 347 q 74 179 56 207 q 111 151 93 151 q 185 201 144 151 m 589 1011 q 582 1058 593 1044 q 567 1065 576 1065 q 526 1043 550 1065 q 474 974 503 1021 q 422 865 446 928 q 381 710 399 803 q 363 515 364 618 q 499 760 436 633 q 582 972 563 886 q 583 976 582 975 q 588 994 585 986 q 589 1004 589 1001 q 589 1011 589 1006 z "},"":{"ha":399,"x_min":-35,"x_max":446,"o":"m 408 401 q 431 409 415 417 q 438 386 446 401 q 433 377 436 385 q 428 365 429 369 q 303 135 360 226 q 189 6 246 43 q 128 -17 157 -17 q 76 -1 103 -17 q 23 44 49 14 q -19 128 -3 74 q -35 250 -35 182 q 23 478 -35 389 q 153 567 81 567 q 211 550 188 567 q 239 494 239 531 l 239 493 q 188 389 238 438 q 79 311 139 340 q 74 217 74 267 q 93 103 74 149 q 140 42 113 58 q 172 35 160 29 q 176 36 175 36 q 399 381 260 97 q 408 401 401 388 m 167 506 q 140 479 153 497 q 111 428 126 461 q 88 353 96 394 q 169 418 135 381 q 206 493 204 456 q 193 514 206 510 q 167 506 183 518 z "},"":{"ha":285,"x_min":-28,"x_max":340,"o":"m 340 1035 q 332 971 340 1007 q 332 971 332 971 l 332 969 q 235 726 310 876 q 85 467 168 596 q 79 299 79 383 q 79 219 79 260 q 132 226 106 215 q 177 252 158 236 q 218 297 196 268 q 251 343 240 326 q 276 388 261 360 q 288 406 285 401 q 310 411 296 419 q 315 389 324 403 q 306 371 313 385 q 276 323 289 342 q 240 273 264 304 q 190 221 217 242 q 136 190 164 200 q 244 75 214 142 q 264 -57 275 8 q 250 -104 260 -82 q 200 -174 232 -147 q 132 -200 168 -200 q 29 -118 68 -200 q -28 289 -28 0 q 54 868 -28 621 q 114 1008 81 950 q 184 1094 147 1065 q 260 1124 221 1124 q 329 1085 310 1124 q 339 1036 339 1065 q 340 1035 339 1035 m 231 -51 q 233 -20 231 -39 q 228 25 236 -1 q 206 78 219 51 q 159 133 192 104 q 81 182 126 161 q 181 -139 93 -139 q 219 -90 197 -139 q 231 -51 228 -72 m 306 1014 q 299 1061 308 1047 q 283 1068 293 1068 q 269 1062 278 1068 q 247 1041 260 1056 q 222 1005 235 1026 q 192 948 208 983 q 163 871 176 913 q 92 539 113 726 q 299 976 263 815 q 300 979 299 978 q 304 999 303 990 q 304 1004 304 1001 q 306 1014 306 1010 z "},"":{"ha":550,"x_min":-28,"x_max":606,"o":"m 571 407 q 595 404 585 417 q 592 381 606 392 q 572 365 589 378 q 363 192 456 275 q 226 -417 346 -293 q 138 -457 188 -457 q 43 -410 79 -457 q 7 -286 7 -362 q 240 121 7 -119 q 261 142 250 129 q 264 279 264 210 q 235 213 250 242 q 232 208 233 211 q 90 100 172 100 q 8 140 43 100 q -28 265 -28 181 q 43 466 -28 378 q 192 554 114 554 q 263 531 236 554 q 304 565 274 561 q 343 554 326 568 q 364 504 363 538 q 364 238 368 363 q 551 392 446 310 q 571 407 568 404 m 260 363 q 264 376 263 371 q 261 456 263 421 q 207 469 244 481 q 118 400 160 457 q 76 254 76 343 q 81 209 76 229 q 92 176 85 189 q 106 158 99 164 q 121 151 114 151 q 151 163 135 151 q 181 192 167 175 q 206 229 194 208 q 206 231 206 229 q 260 363 229 275 m 151 -374 q 258 92 238 -282 q 40 -286 40 -135 q 59 -365 40 -332 q 100 -399 78 -399 q 151 -374 128 -399 z "},"":{"ha":553,"x_min":-58,"x_max":599,"o":"m 563 400 q 583 409 568 415 q 592 388 599 403 q 574 351 588 376 q 527 273 561 326 q 460 182 493 219 q 328 100 388 100 q 271 124 290 100 q 250 183 254 143 q 249 253 246 222 q 263 342 253 283 q 268 494 285 474 q 254 499 263 499 q 171 401 218 499 q 86 147 124 303 q 74 118 86 132 q 38 100 57 101 l 36 100 q 22 103 29 100 q 6 117 15 106 q -7 146 -3 128 q -18 649 -58 378 q 125 1049 22 919 q 254 1122 185 1122 q 339 1053 321 1122 q 344 992 346 1028 q 336 928 343 957 q 251 685 315 821 q 61 407 157 489 q 75 236 63 329 q 294 568 168 568 q 360 540 338 568 q 380 476 378 518 q 377 403 382 435 q 358 310 372 371 q 347 160 332 179 q 360 154 351 154 q 429 199 386 154 q 506 301 468 242 q 563 400 543 360 m 288 1068 q 217 1013 256 1068 q 145 872 178 957 q 89 673 113 786 q 63 453 65 560 q 221 699 144 538 q 303 931 282 828 q 303 933 303 932 q 304 936 304 935 q 311 989 310 964 q 297 1063 313 1043 q 288 1068 293 1068 z "},"":{"ha":328,"x_min":-18,"x_max":375,"o":"m 338 403 q 360 408 346 417 q 367 386 375 400 q 313 281 351 361 q 224 110 257 165 q 224 107 224 108 l 221 104 q 97 -17 150 -17 q 29 21 56 -17 q -12 182 -6 69 q -5 391 -18 294 q 24 536 8 488 q 51 563 31 556 q 90 564 71 569 q 120 542 110 558 q 124 501 131 525 q 94 357 107 439 q 83 191 82 275 q 108 75 85 107 q 136 61 119 61 q 159 74 149 61 q 192 121 169 86 l 193 122 q 283 296 226 179 q 338 403 322 378 m 153 627 q 142 624 153 627 q 106 627 132 621 q 65 648 81 633 q 52 677 49 663 q 76 698 56 692 q 122 699 96 704 q 165 678 149 693 q 177 648 181 663 q 153 627 174 633 z "},"":{"ha":293,"x_min":-257,"x_max":342,"o":"m 307 407 q 331 404 321 417 q 328 381 342 392 q 308 365 324 378 q 99 192 190 275 q -37 -417 82 -293 q -126 -457 -76 -457 q -221 -410 -185 -457 q -257 -286 -257 -362 q -24 121 -257 -119 q -3 142 -11 132 q -6 503 6 335 q -2 527 -6 515 q 8 547 1 539 q 22 559 14 554 q 40 565 31 564 q 79 554 63 568 q 100 504 99 538 q 100 238 104 365 q 288 392 182 310 q 307 407 301 403 m -112 -374 q -6 92 -26 -282 q -224 -286 -224 -135 q -205 -366 -224 -333 q -164 -399 -186 -399 q -112 -374 -136 -399 m 39 626 q 6 631 21 626 q -17 644 -8 636 q -25 663 -25 653 q -6 689 -25 678 q 39 700 13 700 q 84 689 65 700 q 103 663 103 678 q 84 637 103 647 q 39 626 65 626 z "},"":{"ha":574,"x_min":-37,"x_max":619,"o":"m 583 400 q 604 409 589 415 q 613 388 619 403 q 576 332 604 369 q 508 252 547 294 q 422 171 469 210 q 336 114 374 132 q 329 111 332 111 q 282 100 303 100 q 258 103 269 100 q 240 114 247 106 q 226 130 232 122 q 215 151 221 138 q 206 174 210 165 q 199 199 203 182 q 175 267 185 243 q 151 300 160 299 q 110 156 129 235 q 108 150 108 154 q 108 149 108 150 q 107 147 107 149 q 94 118 107 132 q 58 100 79 101 l 57 100 q 14 146 24 100 q 3 649 -37 378 q 146 1049 43 919 q 275 1122 206 1122 q 360 1053 342 1122 q 365 992 367 1028 q 357 928 364 957 q 272 685 336 819 q 82 407 178 489 q 96 236 83 329 q 315 567 189 567 q 363 547 346 567 q 378 501 378 531 q 360 436 378 471 q 310 370 343 401 q 233 322 276 339 q 267 257 251 304 l 269 250 q 322 143 304 147 q 476 267 388 174 q 583 400 565 361 m 308 1068 q 252 1033 282 1068 q 194 935 222 997 q 141 797 165 874 q 101 630 117 721 q 83 453 85 539 q 242 699 165 538 q 324 931 303 828 q 324 933 324 932 q 325 936 325 935 q 332 988 331 965 q 318 1063 333 1043 q 308 1068 314 1068 m 168 346 q 263 416 235 375 q 288 485 292 457 q 275 499 285 499 q 168 346 228 499 z "},"":{"ha":365,"x_min":-14,"x_max":413,"o":"m 375 403 q 399 408 385 417 q 403 385 413 399 q 361 322 390 367 q 268 189 299 228 q 267 188 268 189 q 139 100 196 100 q 85 116 110 100 q 38 171 61 132 q 0 288 14 210 q -14 478 -14 367 q 68 929 -14 742 q 163 1072 110 1022 q 274 1121 215 1121 q 343 1082 324 1121 q 354 1033 353 1063 q 354 1032 354 1032 q 354 1031 354 1032 q 346 968 354 1004 l 346 967 q 249 724 324 874 q 93 454 179 588 q 116 250 96 324 q 149 167 136 176 q 171 158 161 158 q 242 208 194 158 q 333 340 272 246 q 375 403 363 385 m 297 1065 q 257 1043 281 1065 q 205 974 233 1021 q 153 865 176 928 q 112 710 129 803 q 93 515 94 618 q 230 760 167 633 q 313 972 293 888 q 314 976 313 975 q 318 997 317 988 q 319 1004 319 1003 q 319 1011 319 1006 q 313 1058 324 1044 q 297 1065 307 1065 z "},"":{"ha":840,"x_min":-18,"x_max":886,"o":"m 850 400 q 871 409 856 415 q 879 388 886 403 q 876 380 879 386 q 867 360 874 374 q 851 332 860 347 q 831 297 843 317 q 806 259 818 278 q 778 220 794 240 q 747 182 763 200 q 615 100 675 100 q 558 124 579 100 q 538 183 542 143 q 537 253 533 222 q 550 342 540 283 q 556 494 572 474 q 542 499 551 499 q 458 400 506 499 q 374 146 411 301 q 372 140 374 143 l 371 140 q 355 119 367 128 q 329 110 343 110 q 325 110 328 110 q 311 115 318 111 q 296 126 304 118 q 283 154 288 135 q 279 203 278 174 q 247 492 290 447 q 233 499 240 499 q 182 440 211 499 q 139 290 153 376 q 129 129 125 203 q 129 125 129 128 q 115 103 129 108 q 100 100 108 100 q 57 114 79 100 q 24 150 35 128 q -14 344 -10 219 q 7 536 -18 469 q 33 563 13 556 q 72 564 53 569 q 102 542 92 558 q 107 501 113 525 q 99 236 75 368 q 149 449 110 358 q 150 451 150 450 q 153 456 151 454 q 199 529 174 501 q 281 569 236 569 q 335 543 313 569 q 383 304 386 488 q 582 567 469 567 q 647 540 625 567 q 667 476 665 518 q 665 403 669 435 q 647 310 660 371 q 635 160 619 179 q 647 154 639 154 q 715 197 674 154 l 717 197 q 793 300 756 240 q 850 400 831 360 m 97 124 l 97 125 l 97 124 z "},"":{"ha":590,"x_min":-18,"x_max":638,"o":"m 600 400 q 622 409 607 415 q 631 388 638 403 q 575 289 615 353 q 489 176 535 225 q 472 158 481 167 q 361 100 411 100 q 304 124 325 100 q 278 215 279 151 q 286 340 276 279 q 285 493 303 474 q 271 499 279 499 q 186 389 232 499 q 186 388 186 388 q 129 122 146 279 q 129 121 129 121 q 115 103 126 108 q 100 100 108 100 q 57 114 79 100 q 24 150 35 128 q -14 344 -10 219 q 7 536 -18 469 q 33 563 13 556 q 72 564 53 569 q 102 542 92 558 q 107 501 113 525 q 106 201 69 346 q 156 399 124 315 q 156 400 156 400 q 156 401 156 400 q 204 494 178 457 q 257 549 231 532 q 311 567 283 567 q 378 540 354 567 q 406 442 404 510 q 394 311 407 375 q 396 160 379 181 q 410 154 401 154 q 475 210 426 154 q 476 211 476 211 q 551 313 515 256 q 600 400 586 369 z "},"":{"ha":511,"x_min":-14,"x_max":558,"o":"m 522 401 q 544 408 529 415 q 551 386 558 400 q 518 340 540 367 q 464 285 496 314 q 390 235 432 256 q 307 211 347 214 q 257 146 288 172 q 143 100 206 100 q 108 103 125 100 q 67 119 90 106 q 27 153 44 132 q -2 214 10 174 q -14 307 -14 254 q 10 419 -14 363 q 85 517 33 475 q 204 558 138 558 q 272 536 240 558 q 322 467 304 514 q 339 360 339 422 q 322 246 339 297 q 443 310 385 257 q 522 401 501 364 m 242 178 q 271 214 258 194 q 218 268 236 226 q 197 378 197 313 q 218 493 197 450 q 158 465 186 488 q 113 401 131 442 q 96 311 96 361 q 116 189 96 233 q 174 144 136 144 q 224 163 199 144 q 225 163 225 163 q 225 164 225 163 q 239 174 232 168 l 239 175 q 240 176 240 175 q 242 178 242 178 m 286 244 q 307 360 307 294 q 292 453 307 414 q 292 454 292 453 q 257 492 279 482 q 235 431 244 483 q 235 326 225 379 q 286 244 247 254 z "},"":{"ha":589,"x_min":-33,"x_max":636,"o":"m 600 404 q 623 407 610 417 q 626 385 636 397 q 579 335 606 354 q 518 308 553 317 q 459 297 483 300 q 393 293 435 294 q 351 206 378 244 q 169 100 282 100 q 138 110 153 100 q 121 126 128 117 q 126 206 101 161 q 300 319 181 303 q 306 394 306 356 q 295 475 306 440 q 267 510 285 510 q 175 447 225 510 q 83 272 114 371 q 124 -392 54 -121 q 128 -417 128 -406 q 104 -456 128 -447 q 94 -457 100 -457 q 58 -442 76 -457 q 32 -404 40 -426 q -19 -145 -4 -299 q -26 145 -33 8 q -7 389 -19 282 q 19 538 6 496 q 44 563 25 556 q 81 565 63 569 q 109 543 99 560 q 114 503 119 526 q 94 383 104 463 q 150 468 119 431 q 304 567 226 567 q 383 524 354 567 q 413 408 413 482 q 403 326 413 368 q 521 344 475 329 q 600 404 567 358 m 153 140 q 294 285 261 150 q 156 189 199 268 q 150 144 140 161 q 153 140 151 142 z "},"":{"ha":581,"x_min":-35,"x_max":628,"o":"m 592 403 q 614 408 600 417 q 619 386 628 400 q 603 351 617 379 q 363 -1 481 106 q 489 -322 524 -175 q 488 -324 489 -324 q 488 -326 488 -325 q 488 -329 488 -328 q 482 -344 485 -337 q 460 -387 472 -369 q 414 -436 440 -418 q 368 -454 388 -454 q 318 -424 339 -454 q 247 79 249 -328 q 251 263 247 172 q 228 213 239 236 q 225 208 226 211 q 83 100 165 100 q 1 140 36 100 q -35 265 -35 181 q -13 377 -35 321 q 42 474 8 433 q 116 541 75 515 q 194 567 157 567 q 278 540 249 567 q 279 540 279 540 q 308 563 286 557 q 349 564 329 569 q 372 549 363 558 q 383 528 381 540 q 383 501 386 517 q 360 319 371 458 q 350 32 350 179 q 572 367 458 135 q 592 403 588 396 m 257 378 q 269 500 263 454 q 267 504 269 501 q 257 515 263 510 q 228 517 246 521 q 122 424 174 501 q 69 254 69 347 q 84 178 69 206 q 114 151 99 151 q 158 174 135 151 q 199 229 182 197 q 199 231 199 229 q 253 363 224 275 q 257 378 256 374 m 456 -319 q 350 -36 489 -193 q 399 -378 354 -319 q 411 -386 404 -386 q 432 -369 421 -385 q 447 -340 442 -356 q 451 -333 450 -337 q 456 -319 453 -326 z "},"":{"ha":581,"x_min":-4,"x_max":511,"o":"m 494 411 q 506 406 501 411 q 511 394 511 401 q 506 383 511 388 q 494 378 501 378 q 485 379 489 378 q 481 378 482 378 l 450 378 l 428 378 q 385 383 404 378 q 353 396 365 389 q 330 416 342 403 q 313 438 318 429 q 300 460 308 446 q 287 482 292 475 q 274 494 282 489 q 257 499 267 499 q 200 458 228 499 q 192 447 196 453 q 147 364 172 418 q 113 236 122 300 q 142 138 122 182 q 143 125 143 132 q 129 103 143 110 q 114 100 122 100 q 71 114 93 100 q 38 150 49 128 q 0 344 4 219 q 21 536 -4 469 q 47 563 26 556 q 86 564 67 569 q 116 542 106 558 q 121 501 126 525 q 103 339 103 425 q 117 376 110 358 q 201 514 151 460 q 297 568 250 568 q 341 561 321 568 q 374 546 361 554 q 401 521 388 538 q 422 494 415 504 q 438 467 428 485 q 453 443 447 451 q 465 426 458 435 q 479 415 472 418 q 494 411 486 411 m 126 131 l 111 125 l 111 124 l 126 131 z "},"":{"ha":424,"x_min":-14,"x_max":471,"o":"m 440 407 q 463 401 454 415 q 457 379 471 388 q 228 275 374 331 q 242 222 242 250 q 235 185 242 204 q 214 145 228 165 q 172 113 200 125 q 106 100 143 100 q 52 122 72 100 q 32 171 32 143 q 55 226 32 203 q 124 269 78 249 q 82 299 111 279 q 47 325 60 315 q 18 352 35 335 q -6 392 1 369 q -14 440 -14 414 q 32 527 -14 488 q 146 567 78 567 q 276 510 243 567 q 277 509 276 510 q 278 507 278 508 q 279 503 279 506 q 278 496 279 500 q 278 494 278 496 q 276 493 278 494 q 276 492 276 492 q 275 489 275 490 q 273 488 274 489 q 272 488 272 488 q 271 487 272 488 q 268 485 269 486 q 264 485 267 485 q 258 485 261 483 q 257 485 257 485 l 256 486 q 255 486 256 486 q 253 488 254 486 q 183 513 217 513 q 110 489 138 513 q 83 443 83 465 q 95 408 83 426 q 119 380 107 390 q 154 351 131 369 q 207 303 192 321 q 210 303 208 303 q 213 304 213 304 q 440 407 360 360 m 110 132 q 149 150 133 133 q 164 186 164 167 q 147 243 164 218 q 65 171 65 208 q 76 144 65 156 q 106 132 88 132 q 110 132 108 132 z "},"":{"ha":328,"x_min":-500,"x_max":688,"o":"m 679 776 q 672 755 688 763 q 650 763 657 747 q 563 831 629 806 q 428 856 497 856 q 150 813 301 856 q 100 418 100 636 q 105 301 100 354 q 117 210 110 247 q 135 144 125 174 q 154 97 144 114 q 174 67 164 79 q 190 51 183 56 q 200 47 197 47 q 238 107 214 47 q 272 221 250 142 q 332 400 308 347 q 354 409 339 415 q 363 388 369 403 q 304 213 340 336 q 269 99 282 133 q 269 98 269 99 q 268 97 268 97 q 175 -18 228 -18 q 52 95 104 -18 q 0 404 0 208 q 40 779 0 604 q -278 722 -143 722 q -489 817 -407 722 q -487 839 -500 828 q -464 838 -475 850 q -278 756 -392 756 q -157 765 -218 756 q -56 786 -96 775 q 50 817 -15 797 q 161 1090 93 982 q 193 1117 174 1110 q 229 1115 213 1125 q 249 1090 244 1108 q 240 1036 253 1071 q 228 1011 236 1029 q 161 850 185 924 q 428 889 303 889 q 504 881 465 889 q 578 860 543 874 q 640 826 613 847 q 679 776 667 804 z "},"":{"ha":618,"x_min":-17,"x_max":665,"o":"m 628 403 q 651 408 636 417 q 657 386 665 400 q 603 281 642 361 q 515 110 547 165 q 513 107 514 108 q 513 104 513 106 q 389 -17 440 -17 q 319 21 347 -17 q 283 356 258 106 q 214 204 246 263 q 213 201 213 203 q 207 193 211 201 q 106 100 151 100 q 25 142 56 100 q -11 267 -6 183 q -7 422 -17 351 q 17 536 3 493 q 42 563 24 556 q 81 564 61 569 q 96 556 89 561 q 108 542 103 550 q 113 524 113 535 q 111 501 114 514 q 90 385 97 450 q 88 258 83 319 q 113 172 93 197 q 138 158 124 158 q 183 219 150 164 q 217 283 199 247 q 311 528 256 369 l 314 532 q 315 536 314 535 q 340 563 321 556 q 378 564 358 569 q 393 556 386 561 q 405 542 400 550 q 411 524 410 535 q 408 501 413 514 q 381 353 393 442 q 369 174 368 265 q 393 51 369 82 q 417 39 403 39 q 478 113 433 40 q 485 122 483 121 q 574 294 517 178 q 628 403 614 378 z "},"":{"ha":501,"x_min":-15,"x_max":549,"o":"m 514 406 q 537 406 525 417 q 538 382 549 394 q 410 266 463 304 q 300 228 357 228 l 299 228 q 275 233 286 228 q 158 99 215 99 q 57 157 99 99 q 13 250 31 194 q -10 359 -4 306 q -13 460 -15 413 q -1 536 -11 508 q 19 560 3 553 q 52 565 35 568 q 80 544 69 561 q 88 503 90 528 q 92 329 76 424 q 144 192 108 235 q 193 167 167 167 q 226 211 203 167 l 231 219 q 247 254 239 235 q 244 258 246 256 q 210 394 213 301 q 229 554 207 486 q 297 629 251 629 q 336 614 321 629 q 357 550 357 593 q 338 423 357 507 q 288 264 318 339 q 299 261 293 261 l 300 261 q 370 281 333 261 q 437 328 407 301 q 514 406 467 356 m 264 297 q 307 437 290 365 q 324 550 324 508 q 313 590 324 579 q 297 596 307 596 q 261 544 276 596 q 242 407 242 481 q 263 293 243 333 q 264 297 264 294 z "},"":{"ha":828,"x_min":-15,"x_max":876,"o":"m 840 406 q 865 406 853 417 q 865 382 876 394 q 738 266 790 304 q 626 228 685 228 l 625 228 q 601 233 613 228 q 485 99 542 99 q 383 157 425 99 q 315 379 328 235 q 260 214 285 274 q 257 208 258 211 q 250 193 254 200 q 158 100 206 100 q 57 158 99 100 q 13 250 31 194 q -10 360 -4 306 q -13 462 -15 414 q -1 536 -11 510 q 19 561 3 553 q 52 565 35 569 q 80 545 69 561 q 88 504 90 529 q 92 330 76 425 q 144 192 108 235 q 192 167 167 168 q 222 213 203 172 q 236 246 231 229 q 307 469 264 315 q 322 526 318 514 q 322 528 322 528 q 322 529 322 529 q 324 533 324 531 q 325 536 325 535 q 336 554 328 547 q 356 564 344 561 q 378 565 367 567 q 407 544 396 561 q 414 503 418 528 q 419 329 403 424 q 472 192 435 235 q 519 167 493 167 q 554 211 529 167 l 558 219 q 574 254 567 236 q 573 256 574 254 q 571 258 572 257 q 536 394 539 301 q 556 554 533 486 q 625 629 579 629 q 663 614 649 629 q 685 550 685 593 q 665 423 685 507 q 614 264 644 339 q 625 261 619 261 l 626 261 q 722 296 675 261 q 840 406 769 331 m 592 297 q 634 437 617 365 q 651 550 651 508 q 640 590 651 579 q 625 596 635 596 q 588 544 603 596 q 569 407 568 481 q 589 293 569 333 q 592 297 590 294 z "},"":{"ha":525,"x_min":-56,"x_max":572,"o":"m 536 404 q 559 406 546 417 q 563 383 572 396 q 550 369 558 379 q 539 354 542 358 q 383 174 439 228 q 382 171 382 172 q 379 169 379 169 q 257 99 306 99 q 88 240 181 99 q -19 106 1 131 q -32 99 -24 99 q -42 103 -37 99 q -44 125 -56 113 q 69 271 -12 167 q -33 528 -12 406 q -29 551 -36 542 q -8 565 -22 561 q 40 554 15 569 q 72 510 64 539 q 129 349 94 428 q 293 560 264 521 q 316 563 303 572 q 319 540 329 553 q 146 315 288 496 q 220 194 182 240 q 281 147 258 147 q 360 196 306 147 q 513 374 414 249 q 536 404 528 394 z "},"":{"ha":599,"x_min":-17,"x_max":653,"o":"m 619 407 q 642 404 632 417 q 640 381 653 392 q 619 365 638 379 q 411 192 503 275 q 274 -417 393 -294 q 185 -457 235 -457 q 90 -410 126 -457 q 54 -286 54 -362 q 288 119 54 -119 q 308 142 300 132 q 310 431 315 288 q 214 206 256 283 q 213 201 213 204 q 203 186 207 194 q 106 100 150 100 q 25 142 56 100 q -11 267 -6 183 q -7 422 -17 351 q 17 536 3 493 q 42 563 24 556 q 81 564 61 569 q 108 542 99 558 q 111 501 118 525 q 90 383 97 449 q 87 258 82 318 q 110 174 92 197 q 138 158 121 158 q 176 208 149 164 q 211 275 193 236 q 304 514 250 357 l 310 528 l 311 532 q 311 535 311 533 q 353 565 324 561 q 390 554 374 568 q 411 504 410 538 q 413 238 415 365 q 600 392 493 310 q 619 407 614 403 m 199 -374 q 307 92 285 -282 q 88 -286 88 -135 q 106 -366 88 -333 q 147 -399 125 -399 q 199 -374 175 -399 z "},"":{"ha":496,"x_min":7,"x_max":544,"o":"m 510 407 q 534 404 524 417 q 531 381 544 392 q 419 242 493 350 q 294 19 344 135 q 379 -211 381 -86 q 353 -314 378 -278 q 293 -353 328 -350 q 291 -354 292 -354 q 289 -354 290 -354 l 288 -354 q 227 -319 253 -354 q 201 -222 201 -285 q 242 -24 201 -133 q 93 96 196 32 l 83 101 q 81 103 82 103 q 81 104 81 103 q 79 106 79 104 l 78 106 q 76 108 78 107 q 76 110 76 110 q 75 114 75 113 q 75 116 75 115 q 75 118 75 117 q 75 119 75 118 q 76 122 75 121 q 76 124 76 122 q 79 126 78 125 q 79 128 79 128 q 215 404 215 269 q 193 475 215 450 q 131 500 171 500 q 53 456 78 500 q 40 394 40 426 q 35 383 40 388 q 24 378 31 378 q 12 383 17 378 q 7 394 7 388 q 24 472 7 436 q 83 541 44 515 q 168 567 121 567 q 272 527 235 567 q 308 418 308 488 q 259 261 308 346 q 140 126 210 176 q 269 47 208 107 l 269 46 q 397 269 322 164 q 510 407 471 375 m 317 -242 q 265 -56 317 -136 q 235 -222 235 -147 q 251 -294 235 -268 q 288 -321 267 -321 q 289 -321 289 -321 q 300 -314 294 -319 q 311 -290 306 -308 q 317 -242 317 -271 z "},"":{"ha":710,"x_min":-14,"x_max":756,"o":"m 718 401 q 740 409 725 415 q 749 388 756 403 q 719 318 740 369 q 614 93 651 160 q 497 -17 551 -17 q 450 -4 472 -17 q 406 38 428 8 q 368 126 383 68 q 347 268 353 185 q 272 179 307 215 q 271 178 271 178 q 257 165 265 172 q 256 164 257 165 q 139 100 189 100 q 85 116 110 100 q 38 171 61 132 q 0 288 14 210 q -14 478 -14 367 q 68 931 -14 743 q 163 1072 110 1022 q 274 1121 215 1121 q 343 1082 324 1121 q 354 1033 353 1063 q 354 1032 354 1033 q 346 968 356 1004 l 346 967 q 249 724 324 874 q 93 454 179 588 q 183 158 97 158 q 235 189 200 158 q 236 190 235 190 q 344 321 283 238 q 344 363 344 340 q 426 814 344 626 q 521 956 468 907 q 632 1006 574 1006 q 707 967 688 1006 q 708 868 724 932 q 704 853 707 861 q 701 847 703 850 q 619 671 679 776 q 451 414 551 553 q 451 375 451 396 q 461 194 451 261 q 485 92 471 126 q 518 54 501 54 q 585 111 549 54 q 689 332 622 176 q 718 401 708 379 m 93 515 q 230 760 167 633 q 314 972 293 888 q 314 976 314 975 q 318 996 317 986 q 319 1004 319 1003 q 319 1011 319 1006 q 313 1058 324 1044 q 297 1065 307 1065 q 257 1043 281 1065 q 205 974 233 1021 q 153 865 176 928 q 112 710 129 803 q 93 515 94 618 m 456 475 q 675 874 638 735 q 671 942 685 924 q 656 949 665 949 q 607 917 636 949 q 547 830 578 886 q 490 679 515 774 q 456 475 464 585 z "},"":{"ha":1531,"x_min":63,"x_max":1467,"o":"m 1207 856 q 933 826 1099 856 q 879 418 879 646 q 888 262 879 331 q 910 154 897 193 q 938 90 922 115 q 963 56 953 64 q 979 47 974 47 q 1017 107 993 47 q 1051 221 1029 142 q 1111 400 1088 347 q 1133 409 1118 415 q 1142 388 1149 403 q 1083 211 1119 336 q 1049 99 1060 132 q 1047 97 1049 97 q 954 -18 1007 -18 q 835 85 886 -18 q 779 371 783 189 q 767 329 771 343 q 732 215 744 249 q 732 214 732 215 q 638 100 690 100 q 515 213 567 100 q 463 522 463 325 q 475 739 463 633 q 285 722 365 722 q 74 817 156 722 q 75 839 63 828 q 99 838 88 850 q 285 756 171 756 q 481 774 367 756 q 624 1207 519 1040 q 656 1234 636 1226 q 693 1233 676 1242 q 712 1206 707 1225 q 703 1154 717 1188 q 692 1129 700 1149 q 583 790 611 964 q 735 821 633 800 q 836 842 803 835 q 940 1089 878 992 q 972 1117 953 1110 q 1008 1115 992 1125 q 1028 1088 1024 1107 q 1019 1036 1032 1069 q 1007 1011 1017 1031 q 944 861 967 929 q 1207 889 1100 889 q 1360 859 1286 889 q 1460 776 1435 829 q 1451 755 1467 763 q 1429 763 1436 747 q 1378 813 1415 792 q 1296 845 1340 835 q 1207 856 1251 856 m 735 339 q 781 482 764 438 q 826 806 788 654 q 740 789 793 799 q 578 757 631 765 q 564 535 564 651 q 573 380 564 449 q 594 272 582 311 q 622 208 607 233 q 647 174 636 182 q 664 165 657 165 q 700 224 676 165 q 735 339 713 258 z "},"":{"ha":424,"x_min":-28,"x_max":325,"o":"m 308 467 q 325 360 325 422 q 243 146 325 219 q 129 100 192 100 q 94 103 111 100 q 53 119 76 106 q 13 153 31 132 q -16 214 -4 174 q -28 307 -28 254 q -4 419 -28 363 q 72 517 19 475 q 190 558 124 558 q 258 536 226 558 q 308 467 290 514 m 228 178 q 293 360 293 242 q 278 453 293 414 q 278 454 278 453 q 224 494 260 494 q 156 473 188 494 q 103 409 124 451 q 82 311 82 367 q 102 189 82 233 q 158 144 122 144 q 210 163 185 144 q 225 175 218 168 q 226 176 225 175 q 228 178 226 176 z "},"":{"ha":2165,"x_min":63,"x_max":2213,"o":"m 2176 403 q 2199 408 2185 417 q 2204 386 2213 400 l 2194 369 q 2079 192 2124 249 q 2078 189 2079 190 l 2076 188 q 2075 186 2075 186 q 1951 100 2006 100 q 1871 142 1900 100 q 1833 271 1839 185 q 1806 213 1819 239 q 1804 208 1806 211 q 1663 100 1743 100 q 1579 140 1615 100 q 1543 265 1543 181 q 1586 421 1543 344 q 1475 376 1533 393 q 1349 354 1417 358 q 1226 349 1281 350 q 1090 358 1171 349 q 964 375 1010 368 q 832 397 918 382 q 506 436 600 436 q 348 424 418 436 q 238 396 278 411 q 167 356 199 381 q 126 319 136 332 q 103 288 115 306 q 101 285 103 286 q 100 282 100 282 q 86 274 94 274 q 76 276 81 274 q 72 300 63 286 q 75 304 74 301 q 100 340 89 326 q 145 381 111 354 q 222 425 179 408 q 338 456 264 442 q 506 469 413 469 q 838 429 603 469 q 962 409 919 415 q 1082 393 1004 403 q 1208 383 1160 383 q 1326 385 1257 382 q 1444 402 1394 389 q 1547 440 1493 415 q 1644 500 1601 465 q 1772 567 1710 567 q 1857 540 1828 567 q 1863 536 1860 539 q 1878 556 1867 549 q 1902 565 1889 564 q 1929 564 1915 567 q 1958 542 1947 558 q 1963 501 1968 525 q 1939 385 1947 447 q 1935 261 1931 322 q 1960 174 1939 200 q 1999 157 1975 156 q 2050 208 2010 161 l 2053 211 q 2167 386 2096 265 l 2176 403 m 1833 371 q 1851 494 1838 436 q 1846 504 1847 500 q 1836 515 1840 510 l 1835 515 q 1806 517 1825 521 q 1699 424 1751 501 q 1647 254 1647 347 q 1655 197 1647 221 q 1672 162 1663 172 q 1692 151 1682 151 q 1736 174 1713 151 q 1776 229 1760 197 q 1778 231 1776 229 q 1831 363 1801 275 q 1833 371 1832 365 z "},"":{"ha":2247,"x_min":-35,"x_max":2183,"o":"m 2146 507 q 2169 512 2156 521 q 2175 489 2183 503 q 2171 483 2174 488 q 2147 448 2158 463 q 2101 406 2136 433 q 2025 363 2067 379 q 1908 332 1983 346 q 1740 318 1833 318 q 1339 375 1619 318 q 1187 403 1239 394 q 1047 424 1135 413 q 902 433 958 435 q 781 419 846 432 q 667 379 715 407 q 602 330 635 361 q 551 276 569 299 q 503 213 533 254 q 458 153 474 172 q 419 117 443 135 q 372 100 396 100 q 292 142 322 100 q 254 271 261 185 q 228 214 242 239 q 225 210 226 213 q 83 100 165 100 q 1 140 36 100 q -35 265 -35 181 q 41 472 -35 378 q 194 567 117 567 q 278 540 249 567 q 283 536 281 539 q 285 536 283 536 q 310 563 290 556 q 350 564 331 569 q 380 542 369 558 q 383 501 390 525 q 360 384 369 447 q 356 259 351 321 q 379 172 360 197 q 414 157 393 157 q 451 199 422 161 q 461 211 458 208 q 476 232 467 219 q 513 281 499 263 q 550 326 526 299 q 599 373 574 353 q 650 408 624 393 l 651 408 q 745 447 694 433 q 857 463 796 461 q 968 465 918 465 q 1095 452 1018 464 q 1217 432 1172 440 q 1344 407 1261 424 q 1740 351 1624 351 q 1875 359 1814 351 q 1977 382 1936 367 q 2047 411 2018 397 q 2097 445 2076 425 q 2125 476 2117 465 q 2143 501 2133 486 q 2146 507 2144 504 m 256 372 q 272 496 260 436 q 267 504 269 500 q 257 515 263 510 q 228 517 246 522 q 122 424 174 501 q 69 254 69 347 q 84 178 69 206 q 114 151 99 151 q 158 174 135 151 q 199 229 182 197 q 199 231 199 231 q 253 363 224 275 q 253 367 253 364 q 256 372 254 371 z "},"":{"ha":2165,"x_min":63,"x_max":2213,"o":"m 2176 404 q 2199 407 2186 417 q 2203 385 2213 397 q 2131 317 2176 347 q 2051 275 2085 288 q 1954 242 2017 263 l 1950 240 q 1906 133 1932 182 q 1813 22 1865 61 q 1704 -17 1761 -17 q 1672 -7 1686 -17 q 1656 11 1661 0 q 1660 89 1635 44 q 1850 240 1714 186 q 1875 394 1875 325 q 1839 494 1875 494 q 1822 488 1831 494 q 1802 468 1813 481 q 1776 432 1792 456 q 1654 146 1706 314 q 1642 117 1654 131 q 1604 100 1625 100 q 1561 144 1571 100 q 1535 351 1539 240 q 1399 324 1472 331 q 1231 327 1325 317 q 1076 348 1138 338 q 901 381 1014 358 q 506 436 624 436 q 388 430 442 436 q 296 414 333 424 q 226 390 258 404 q 175 363 193 375 q 140 334 157 351 q 117 308 124 317 q 103 288 111 300 q 100 282 101 283 q 86 274 94 274 q 76 276 81 274 q 72 299 63 285 q 74 301 72 300 q 75 304 75 303 q 100 340 89 325 q 145 381 111 354 q 222 425 179 408 q 338 456 264 442 q 506 469 413 469 q 908 414 626 469 q 1046 387 999 396 q 1174 367 1093 378 q 1308 355 1256 356 q 1423 361 1361 354 q 1533 388 1485 368 q 1572 767 1529 583 q 1693 1047 1615 951 q 1821 1121 1753 1121 q 1907 1051 1889 1121 q 1898 898 1921 996 q 1821 683 1875 800 q 1629 403 1726 485 q 1644 221 1631 321 q 1749 451 1694 363 q 1881 567 1818 567 q 1956 515 1931 567 q 1976 406 1976 475 q 1960 279 1976 346 q 2092 332 2042 306 q 2176 404 2143 358 m 1856 1067 q 1783 1011 1822 1067 q 1712 869 1744 956 q 1656 669 1679 783 q 1629 449 1632 556 q 1790 697 1713 533 q 1871 926 1850 825 q 1871 932 1871 929 q 1878 1005 1879 964 q 1865 1061 1878 1046 q 1856 1067 1861 1067 m 1686 24 q 1747 53 1718 28 q 1797 115 1776 79 q 1836 199 1818 151 q 1689 74 1733 151 q 1683 28 1674 44 q 1686 24 1685 25 z "},"":{"ha":2121,"x_min":-37,"x_max":2057,"o":"m 2019 507 q 2043 512 2029 521 q 2047 489 2057 503 q 2044 483 2047 488 q 2029 460 2036 469 q 2004 431 2022 450 q 1966 399 1986 413 q 1912 369 1946 386 q 1838 343 1878 353 q 1740 326 1797 333 q 1614 318 1682 318 q 1213 374 1493 318 q 1086 399 1129 390 q 968 418 1043 407 q 844 431 893 429 q 737 431 796 432 q 630 416 678 429 q 540 379 582 403 q 419 306 488 350 q 358 133 401 211 q 267 22 319 61 q 157 -17 215 -17 q 124 -6 139 -17 q 108 11 114 0 q 114 89 89 44 q 311 271 150 154 q 328 394 328 340 q 292 494 328 494 q 274 488 283 494 q 256 468 265 481 q 229 432 246 456 q 107 146 158 315 q 94 117 107 131 q 58 100 78 100 l 57 100 q 14 144 24 100 q 3 647 -37 376 q 146 1047 43 918 q 275 1121 206 1121 q 360 1051 342 1121 q 351 898 375 996 q 274 683 328 800 q 83 403 179 485 q 97 221 83 321 q 201 450 147 361 q 333 565 271 565 q 408 515 383 565 q 429 406 429 475 q 426 349 429 378 q 524 408 482 385 q 607 442 561 429 q 694 461 653 456 q 794 465 736 467 q 894 460 853 464 q 1003 446 936 457 q 1108 428 1071 435 q 1218 407 1146 421 q 1614 351 1496 351 q 1772 364 1701 351 q 1881 392 1842 376 q 1953 431 1921 407 q 1994 469 1985 456 q 2017 501 2004 482 q 2019 507 2018 503 m 308 1067 q 238 1011 276 1067 q 165 869 199 956 q 109 669 132 783 q 83 449 86 556 q 243 697 165 532 q 324 926 303 824 q 324 932 324 929 q 332 1005 333 964 q 318 1061 331 1046 q 308 1067 314 1067 m 140 24 q 229 85 189 31 q 296 219 269 139 q 143 74 171 125 q 138 28 126 44 q 140 24 138 25 z "},"":{"ha":2029,"x_min":63,"x_max":2076,"o":"m 2039 403 q 2063 408 2049 417 q 2067 385 2076 399 q 2038 336 2057 369 q 1976 240 2000 276 q 1910 145 1951 203 q 1831 50 1869 88 q 1756 -4 1792 13 q 1751 -7 1754 -6 q 1707 -17 1728 -17 q 1649 -6 1676 -17 q 1597 33 1622 6 q 1558 115 1572 60 q 1543 249 1543 171 q 1583 417 1543 338 q 1474 369 1532 388 q 1349 347 1415 351 q 1228 341 1282 342 q 1094 351 1174 340 q 970 369 1015 363 q 842 393 925 376 q 506 436 604 436 q 348 424 418 436 q 238 396 278 411 q 167 356 199 381 q 126 319 136 332 q 103 286 115 306 q 100 282 101 283 q 86 274 94 274 q 78 276 81 274 q 72 299 63 285 q 74 302 72 300 q 75 304 75 304 q 95 333 86 322 q 126 367 104 344 q 180 404 149 389 q 255 436 211 419 q 363 461 299 453 q 506 469 428 469 q 847 425 607 469 q 968 403 926 410 q 1086 386 1010 396 q 1210 375 1163 376 q 1326 378 1258 374 q 1442 396 1393 382 q 1544 435 1490 410 q 1640 499 1597 461 q 1772 565 1707 565 q 1854 542 1825 565 q 1871 524 1864 535 q 1879 511 1874 519 q 1881 508 1879 510 q 1883 504 1883 506 q 1880 481 1893 490 q 1857 486 1867 472 q 1851 493 1853 490 q 1835 514 1842 508 q 1804 517 1824 522 q 1699 424 1749 501 q 1651 243 1650 346 q 1681 84 1653 140 q 1744 26 1708 28 q 1813 78 1776 42 q 1888 171 1849 115 q 1951 262 1928 226 q 2010 354 1975 297 q 2039 403 2032 390 z "},"":{"ha":2118,"x_min":-35,"x_max":2054,"o":"m 2017 479 q 2040 484 2026 493 q 2044 461 2054 475 q 2042 456 2043 458 q 2017 420 2028 435 q 1972 378 2007 406 q 1896 335 1938 351 q 1779 304 1854 318 q 1611 290 1704 290 q 1208 346 1490 290 q 1058 376 1110 367 q 917 396 1006 385 q 773 406 829 407 q 651 392 717 404 q 538 351 586 379 l 538 351 q 466 297 504 333 q 405 234 428 261 q 340 156 382 207 q 284 85 304 108 q 235 35 264 63 q 181 -6 206 7 q 129 -19 154 -19 q 72 -8 99 -19 q 20 31 46 4 q -20 113 -6 58 q -35 246 -35 168 q 43 472 -35 375 q 117 539 76 514 q 194 564 158 564 q 276 539 249 564 q 293 521 286 532 q 301 508 297 517 q 304 506 303 508 q 307 501 306 503 q 302 479 315 489 q 279 483 289 469 q 275 490 276 488 q 267 501 269 497 q 257 513 263 508 q 226 514 246 519 q 122 422 172 500 q 75 240 72 343 q 85 138 75 182 q 111 72 96 94 q 142 38 126 49 q 171 26 157 26 q 218 64 192 38 q 263 112 244 90 q 315 176 281 133 q 380 256 356 228 q 444 322 404 283 q 521 381 485 360 q 604 415 558 401 q 692 433 650 428 q 792 438 733 439 q 891 433 850 436 q 1000 418 932 429 q 1106 400 1068 407 q 1215 379 1143 393 q 1611 324 1493 324 q 1769 336 1699 324 q 1878 364 1839 349 q 1950 403 1918 379 q 1992 441 1982 428 q 2014 474 2001 454 q 2017 479 2015 476 z "},"":{"ha":2169,"x_min":63,"x_max":2211,"o":"m 2211 1031 q 2203 968 2211 1004 q 2203 968 2203 968 l 2203 967 q 2106 724 2182 874 q 1950 454 2036 586 q 1958 208 1950 307 q 1972 102 1964 143 q 1985 52 1981 61 q 1994 40 1990 43 q 2038 99 2008 49 q 2039 103 2039 101 q 2044 110 2042 106 q 2046 114 2044 111 l 2046 115 l 2047 115 q 2056 133 2050 121 q 2154 360 2092 206 q 2169 400 2158 371 q 2192 409 2176 415 q 2201 388 2207 403 q 2185 347 2197 378 q 2076 100 2115 174 q 1968 -17 2014 -17 q 1867 139 1897 -17 q 1850 268 1857 194 q 1815 203 1833 232 q 1658 100 1747 100 q 1574 140 1610 100 q 1539 265 1539 181 q 1571 400 1539 333 q 1468 358 1522 374 q 1349 338 1414 342 q 1233 335 1285 335 q 1104 346 1181 335 q 983 365 1028 357 q 858 389 939 372 q 506 436 610 436 q 348 424 418 436 q 238 396 278 411 q 167 356 199 381 q 126 319 136 332 q 103 288 115 306 q 100 282 101 285 q 86 274 94 274 q 78 276 81 274 q 72 300 63 286 q 75 304 72 300 q 91 328 85 319 q 116 356 97 338 q 154 388 135 375 q 208 418 174 401 q 283 445 243 435 q 381 463 322 456 q 506 469 439 469 q 864 421 613 469 q 984 398 943 406 q 1099 380 1025 390 q 1217 368 1172 369 q 1324 368 1261 367 q 1432 381 1388 369 q 1525 415 1476 393 q 1613 469 1574 438 q 1689 540 1647 514 q 1768 567 1731 567 q 1844 546 1817 567 q 1925 931 1856 769 q 2019 1072 1967 1022 q 2131 1121 2072 1121 q 2200 1082 2181 1121 q 2211 1031 2211 1063 m 1774 203 q 1846 343 1811 254 q 1843 478 1843 407 q 1843 500 1843 490 q 1840 504 1842 503 q 1831 515 1836 511 q 1801 517 1819 521 q 1695 424 1747 501 q 1643 254 1643 347 q 1662 179 1643 207 q 1699 151 1681 151 q 1772 201 1732 151 l 1772 203 l 1774 203 m 2176 1011 q 2169 1058 2181 1044 q 2154 1065 2164 1065 q 2114 1043 2138 1065 q 2062 974 2090 1021 q 2010 865 2033 928 q 1969 710 1986 803 q 1950 515 1951 618 q 2087 760 2024 633 q 2171 972 2150 886 q 2171 976 2171 975 q 2175 996 2174 986 l 2175 999 l 2176 1004 q 2176 1011 2176 1006 z "},"":{"ha":2278,"x_min":-35,"x_max":2214,"o":"m 2176 479 q 2200 484 2186 493 q 2204 461 2214 475 q 2203 458 2204 460 q 2201 456 2201 457 q 2178 420 2189 435 q 2132 378 2167 406 q 2056 335 2097 351 q 1939 304 2014 318 q 1771 290 1864 290 q 1369 347 1650 290 q 1217 376 1269 367 q 1078 396 1165 385 q 933 406 990 407 q 811 392 876 404 q 697 353 746 379 l 697 351 q 615 283 654 328 q 553 203 575 239 q 501 113 532 168 q 501 112 501 113 q 500 110 500 111 q 500 108 500 110 q 488 85 493 96 q 486 85 486 85 q 438 8 458 32 q 394 -17 418 -17 q 293 139 324 -17 q 276 268 283 194 q 235 194 257 226 q 83 100 169 100 q 1 140 36 100 q -35 265 -35 181 q -13 377 -35 321 q 42 474 8 433 q 116 541 75 515 q 194 567 157 567 q 271 546 243 567 q 351 931 282 769 q 446 1072 393 1022 q 557 1121 499 1121 q 626 1082 607 1121 q 638 1033 636 1063 q 638 1032 638 1032 q 638 1031 638 1032 q 629 968 638 1004 l 629 967 q 532 724 607 874 q 376 454 463 586 q 383 253 376 343 q 397 112 389 163 q 415 51 406 61 q 458 101 432 54 q 460 104 458 103 q 468 119 463 110 q 472 126 469 122 q 472 128 472 126 q 474 129 472 129 q 512 198 496 171 q 555 264 528 225 q 614 332 582 303 q 681 381 646 361 q 776 419 725 406 q 888 435 826 433 q 999 437 949 438 q 1125 424 1049 436 q 1246 404 1201 413 q 1375 379 1290 396 q 1771 324 1653 324 q 1928 336 1858 324 q 2038 364 1999 349 q 2110 403 2078 379 q 2151 441 2142 428 q 2174 474 2161 454 q 2175 476 2174 474 q 2176 479 2176 478 m 581 1065 q 540 1043 564 1065 q 488 974 517 1021 q 436 865 460 928 q 395 710 413 803 q 376 515 378 618 q 513 760 450 633 q 596 972 576 888 q 597 976 596 975 q 601 997 600 989 q 603 1003 601 999 q 603 1008 603 1007 q 603 1011 603 1010 q 596 1058 607 1044 q 581 1065 590 1065 m 199 201 q 272 343 238 253 q 269 478 269 406 q 269 500 269 490 q 257 515 263 510 q 228 517 246 521 q 122 424 174 501 q 69 254 69 347 q 88 179 69 207 q 125 151 107 151 q 199 201 158 151 z "},"":{"ha":2003,"x_min":63,"x_max":2050,"o":"m 2013 403 q 2036 408 2022 417 q 2040 385 2050 399 q 1988 307 2008 336 q 1931 233 1967 278 q 1859 157 1894 188 q 1789 111 1824 126 q 1785 110 1786 111 q 1733 100 1758 100 q 1632 144 1681 100 q 1572 269 1583 189 q 1460 260 1521 260 q 1345 267 1406 260 q 1211 290 1285 274 q 1089 317 1138 306 q 953 353 1040 329 q 827 385 871 374 q 718 410 783 396 q 601 430 653 424 q 506 436 550 436 q 348 424 418 436 q 238 396 278 411 q 167 356 199 381 q 126 319 136 332 q 103 288 115 306 q 101 284 103 286 q 100 282 100 282 q 77 277 92 268 q 72 300 63 286 q 75 304 74 301 q 100 340 89 325 q 145 381 111 354 q 222 425 179 408 q 338 456 264 442 q 506 469 413 469 q 650 456 567 469 q 792 428 733 442 q 961 385 850 414 q 1095 350 1049 361 q 1220 322 1142 339 q 1350 300 1299 306 q 1462 294 1401 294 q 1569 303 1522 293 q 1569 311 1569 308 q 1585 422 1569 372 q 1628 502 1601 471 q 1688 550 1656 533 q 1757 567 1721 567 q 1814 550 1792 567 q 1842 494 1842 531 q 1842 493 1842 493 q 1813 415 1842 454 q 1749 351 1783 375 q 1679 310 1715 326 q 1678 261 1678 286 q 1714 156 1678 183 q 1776 142 1740 135 q 1841 185 1807 156 q 1910 259 1875 215 q 1964 331 1944 303 q 2013 403 1983 358 m 1764 504 q 1685 349 1704 464 q 1771 415 1733 376 q 1808 493 1808 454 q 1797 514 1808 510 q 1764 504 1785 518 z "},"":{"ha":2046,"x_min":-14,"x_max":1982,"o":"m 1946 479 q 1968 484 1954 493 q 1974 461 1982 475 q 1972 458 1972 460 q 1969 456 1971 457 q 1946 420 1957 435 q 1901 378 1935 406 q 1824 335 1867 351 q 1707 304 1782 318 q 1539 290 1632 290 q 1138 347 1418 290 q 986 376 1038 367 q 847 396 935 385 q 701 406 758 407 q 580 392 644 404 q 465 351 515 379 l 465 351 q 395 303 429 332 q 344 255 361 274 q 299 201 326 236 q 210 115 243 133 q 201 110 207 111 l 200 110 l 199 110 q 150 100 175 100 q 38 156 90 100 q -14 311 -14 211 q 42 499 -14 431 q 174 567 99 567 q 232 550 208 567 q 260 494 260 531 q 260 493 260 493 q 208 387 258 436 q 96 310 157 338 q 94 261 94 286 q 131 156 94 183 q 189 142 156 136 q 274 222 218 156 q 319 277 301 257 q 374 328 338 297 q 450 381 411 360 l 450 381 q 544 419 493 406 q 656 435 594 433 q 768 437 718 438 q 894 424 818 436 q 1015 404 971 413 q 1143 379 1060 396 q 1539 324 1421 324 q 1697 336 1626 324 q 1807 364 1768 349 q 1878 403 1846 379 q 1920 441 1910 428 q 1942 474 1931 454 q 1946 479 1943 476 m 181 504 q 101 349 122 464 q 188 415 151 376 q 226 493 225 454 q 214 514 226 510 q 181 504 201 518 z "},"":{"ha":1919,"x_min":63,"x_max":1982,"o":"m 1982 1031 q 1974 968 1982 1004 q 1974 967 1974 968 q 1876 724 1951 874 q 1726 464 1810 593 q 1721 296 1721 381 q 1724 117 1721 196 q 1781 122 1754 111 q 1829 160 1807 133 q 1868 228 1851 188 q 1894 293 1885 268 q 1914 357 1903 318 q 1928 400 1924 390 q 1949 409 1933 415 q 1958 388 1964 403 q 1946 347 1956 379 q 1924 276 1933 304 q 1895 206 1914 249 q 1851 134 1876 163 q 1793 92 1825 106 q 1778 86 1786 89 q 1883 -28 1854 38 q 1901 -158 1913 -93 q 1888 -206 1897 -183 q 1838 -275 1869 -249 q 1769 -301 1806 -301 q 1651 -164 1688 -301 q 1614 286 1614 -26 q 1614 329 1614 304 q 1531 292 1578 306 q 1423 278 1483 278 q 1312 283 1363 279 q 1181 302 1261 286 q 1055 329 1101 318 q 918 363 1008 340 q 801 390 842 381 q 699 413 760 400 q 592 431 639 425 q 506 436 546 436 q 388 430 442 436 q 296 415 333 424 q 226 390 258 406 q 175 363 193 375 q 140 334 157 351 q 117 308 124 317 q 103 288 111 300 q 100 282 100 282 q 86 274 94 274 q 76 276 81 274 q 72 300 63 286 q 74 302 72 300 q 75 304 75 304 q 100 340 89 325 q 145 381 111 354 q 222 425 179 408 q 338 456 264 442 q 506 469 413 469 q 637 457 560 469 q 768 432 714 444 q 926 394 822 419 q 1045 365 1004 375 q 1158 341 1086 356 q 1272 321 1229 326 q 1372 312 1314 315 q 1469 314 1431 308 q 1548 333 1508 319 q 1615 372 1588 347 q 1696 865 1626 654 q 1790 1055 1736 989 q 1901 1121 1843 1121 q 1971 1082 1951 1121 q 1982 1033 1981 1063 q 1982 1032 1982 1032 q 1982 1031 1982 1032 m 1868 -153 q 1871 -128 1871 -142 q 1869 -93 1871 -114 q 1858 -51 1867 -72 q 1833 -8 1849 -31 q 1790 38 1818 15 q 1725 79 1763 61 q 1742 -97 1731 -29 q 1818 -239 1767 -239 q 1858 -192 1835 -239 q 1868 -153 1865 -172 m 1947 1010 q 1940 1058 1951 1043 q 1925 1065 1935 1065 q 1898 1049 1915 1065 q 1854 984 1881 1032 q 1804 868 1828 936 q 1733 536 1754 722 q 1940 972 1903 813 q 1942 976 1940 975 q 1946 997 1944 988 q 1947 1010 1947 1004 z "}}}
